<?xml version="1.0"?>
<svg xmlns:rdf="http://www.w3.org/1999/02/22-rdf-syntax-ns#" xmlns="http://www.w3.org/2000/svg" xmlns:cc="http://web.resource.org/cc/" xmlns:xlink="http://www.w3.org/1999/xlink" xmlns:dc="http://purl.org/dc/elements/1.1/" xmlns:svg="http://www.w3.org/2000/svg" id="svg1" height="128pt" width="128pt">
  <defs id="defs3">
    <linearGradient id="linearGradient1492">
      <stop id="stop1493" stop-color="#cbcbcb" offset="0"/>
      <stop id="stop1496" stop-color="#f0f0f0" offset=".34923"/>
      <stop id="stop1494" stop-color="#e2e2e2" offset="1"/>
    </linearGradient>
    <linearGradient id="linearGradient1495" y2="1.1719" xlink:href="#linearGradient1492" y1=".16406" x2=".1453" x1=".92308"/>
    <linearGradient id="linearGradient1497" y2="1.3281" xlink:href="#linearGradient1492" y1=".32812" x2="-.37607" x1=".63248"/>
    <linearGradient id="linearGradient1499" y1=".14062" x2=".062992" x1=".85827" y2=".54688">
      <stop id="stop1502" stop-color="#fff" offset="0"/>
      <stop id="stop1504" stop-color="#fff" stop-opacity="0" offset="1"/>
    </linearGradient>
  </defs>
  <g id="g1694" fill-rule="evenodd">
    <path id="path930" d="m17.159 6.3293v146.96h134.11v-110.22l-33.53-36.74-33.525 0.0003h-67.056z" stroke-width=".42649" stroke-opacity=".36478" fill="#fff"/>
    <g id="g1552" fill-opacity=".069182" stroke-width=".95407pt" transform="matrix(.30417 0 0 .29757 -36.704 -112.49)">
      <path id="path1505" d="m173.36 408.81v489.05h435.05v-366.79l-108.76-122.26h-326.29z"/>
      <path id="path1538" d="m170.12 407.19v493.9h441.54v-371.28c-36.85-41.42-73.68-82.86-110.57-124.25h-330.97v1.63z"/>
      <path id="path1543" d="m166.88 403.94v500.4h448.03v-375.78c-37.45-42.09-74.89-84.19-112.38-126.25h-335.65v1.63z"/>
    </g>
    <path id="rect900" d="m297.99 136.74v495.32h452.02v-371.49l-113-123.83h-339.02z" stroke-opacity=".36478" transform="matrix(.29669 0 0 .29669 -71.196 -34.058)" stroke="#000" stroke-width="1.4375" fill="url(#linearGradient1495)"/>
    <path id="path906" d="m750.01 260.57c-34.07-10.08-78.21-8.65-111.56-2.9 5.76-36.95 6.48-83.26-1.44-120.93l113 123.83z" stroke-width=".95407pt" fill="url(#linearGradient1497)" transform="matrix(.29669 0 0 .29669 -71.196 -34.058)"/>
    <path id="path1500" d="m301.31 174.91l-2.04 453.99h443.82l0.25-112.22c-9.92 3.82-110.19-138.19-236.41-132.08-126.34 6.11-93.65-191.37-205.62-209.69z" stroke-width="1pt" fill="url(#linearGradient1499)" transform="matrix(.29669 0 0 .29669 -71.196 -34.058)"/>
  </g>
  <metadata>
    <rdf:RDF>
      <cc:Work>
        <dc:format>image/svg+xml</dc:format>
        <dc:type rdf:resource="http://purl.org/dc/dcmitype/StillImage"/>
        <cc:license rdf:resource="http://creativecommons.org/licenses/publicdomain/"/>
        <dc:publisher>
          <cc:Agent rdf:about="http://openclipart.org/">
            <dc:title>Openclipart</dc:title>
          </cc:Agent>
        </dc:publisher>
        <dc:title>New Page </dc:title>
        <dc:date>2009-04-29T04:09:32</dc:date>
        <dc:description>A New Page icon by Andrew Fitzsimon. Etiquette Icon set. From 0.18 OCAL database.</dc:description>
        <dc:source>http://openclipart.org/detail/25430/new-page--by-anonymous-25430</dc:source>
        <dc:creator>
          <cc:Agent>
            <dc:title>Anonymous</dc:title>
          </cc:Agent>
        </dc:creator>
        <dc:subject>
          <rdf:Bag>
            <rdf:li>blank</rdf:li>
            <rdf:li>clip art</rdf:li>
            <rdf:li>clipart</rdf:li>
            <rdf:li>computer</rdf:li>
            <rdf:li>etiquette</rdf:li>
            <rdf:li>file</rdf:li>
            <rdf:li>gnome</rdf:li>
            <rdf:li>icon</rdf:li>
            <rdf:li>image</rdf:li>
            <rdf:li>media</rdf:li>
            <rdf:li>new</rdf:li>
            <rdf:li>paper</rdf:li>
            <rdf:li>png</rdf:li>
            <rdf:li>public domain</rdf:li>
            <rdf:li>svg</rdf:li>
          </rdf:Bag>
        </dc:subject>
      </cc:Work>
      <cc:License rdf:about="http://creativecommons.org/licenses/publicdomain/">
        <cc:permits rdf:resource="http://creativecommons.org/ns#Reproduction"/>
        <cc:permits rdf:resource="http://creativecommons.org/ns#Distribution"/>
        <cc:permits rdf:resource="http://creativecommons.org/ns#DerivativeWorks"/>
      </cc:License>
    </rdf:RDF>
  </metadata>
</svg>
