<?xml version="1.0"?>
<svg xmlns:rdf="http://www.w3.org/1999/02/22-rdf-syntax-ns#" xmlns="http://www.w3.org/2000/svg" xmlns:cc="http://creativecommons.org/ns#" xmlns:dc="http://purl.org/dc/elements/1.1/" xmlns:svg="http://www.w3.org/2000/svg" id="svg5875" viewBox="0 0 136.51 135" version="1.1">
  <g id="layer1" stroke-miterlimit="10" transform="translate(-480.31 -442)">
    <path id="path324" d="m566.19 493.26c35 0 45 10 48.325 30.112 3.3252 20.107 1.6748 39.888-48.325 39.888s-50-20-45-40 10-30 45-30" fill-rule="evenodd" stroke="#1e8523" stroke-width="2.5" fill="#2e993a"/>
    <path id="path326" d="m556.19 493.26h25l-15 55z" fill-rule="evenodd" stroke="#1e8523" stroke-width="2.5" fill="#fff"/>
    <path id="path328" d="m551.19 488.26 10 10-5 5z" fill-rule="evenodd" stroke="#1e8523" stroke-width="2.5" fill="#2e993a"/>
    <path id="path330" d="m576.19 498.26 10-10-5 15z" fill-rule="evenodd" stroke="#1e8523" stroke-width="2.5" fill="#2e993a"/>
    <path id="path332" stroke="#1e8523" stroke-width="1.25" fill="none" d="m541.19 523.26c-5.3369 9.0674-7.9443 19.487-7.5 30"/>
    <path id="path334" stroke="#1e8523" stroke-width="1.25" fill="none" d="m598.69 553.26c0.94238-10.264-0.78125-20.596-5-30"/>
    <path id="path336" d="m596.19 470.76c0 15.19-12.31 27.5-27.5 27.5-15.186 0-27.5-12.31-27.5-27.5 0-15.186 12.314-27.5 27.5-27.5 15.19 0 27.5 12.314 27.5 27.5" fill-rule="evenodd" stroke="#ffb068" stroke-width="2.5" fill="#ffd9b5"/>
    <path id="path338" d="m528.69 505.76c35 0 45 10 48.325 30.112 3.3252 20.107 1.6748 39.888-48.325 39.888s-50-20-45-40 10-30 45-30" fill-rule="evenodd" stroke="#1e4a85" stroke-width="2.5" fill="#2e5e99"/>
    <path id="path340" d="m518.69 505.76h25l-15 55z" fill-rule="evenodd" stroke="#1e4a85" stroke-width="2.5" fill="#fff"/>
    <path id="path342" d="m513.69 500.76 10 10-5 5z" fill-rule="evenodd" stroke="#1e4a85" stroke-width="2.5" fill="#6161ff"/>
    <path id="path344" d="m538.69 510.76 10-10-5 15z" fill-rule="evenodd" stroke="#1e4a85" stroke-width="2.5" fill="#6161ff"/>
    <path id="path346" stroke="#1e4a85" stroke-width="1.25" fill="none" d="m503.69 535.76c-5.3369 9.0674-7.9443 19.487-7.5 30"/>
    <path id="path348" stroke="#1e4a85" stroke-width="1.25" fill="none" d="m561.19 565.76c0.94237-10.264-0.78125-20.596-5-30"/>
    <path id="path350" d="m558.69 483.26c0 15.19-12.31 27.5-27.5 27.5-15.186 0-27.5-12.31-27.5-27.5 0-15.186 12.314-27.5 27.5-27.5 15.19 0 27.5 12.314 27.5 27.5" fill-rule="evenodd" stroke="#ffb068" stroke-width="2.5" fill="#ffd9b5"/>
  </g>
  <metadata>
    <rdf:RDF>
      <cc:Work>
        <dc:format>image/svg+xml</dc:format>
        <dc:type rdf:resource="http://purl.org/dc/dcmitype/StillImage"/>
        <cc:license rdf:resource="http://creativecommons.org/licenses/publicdomain/"/>
        <dc:publisher>
          <cc:Agent rdf:about="http://openclipart.org/">
            <dc:title>Openclipart</dc:title>
          </cc:Agent>
        </dc:publisher>
        <dc:title>Group</dc:title>
        <dc:date>2012-08-02T14:31:17</dc:date>
        <dc:description>clip art, clipart, computer, group, informatique, it, ordinateur, server, serveur, user, users, </dc:description>
        <dc:source>http://openclipart.org/detail/171431/group-by-cyberscooty-171431</dc:source>
        <dc:creator>
          <cc:Agent>
            <dc:title>cyberscooty</dc:title>
          </cc:Agent>
        </dc:creator>
        <dc:subject>
          <rdf:Bag>
            <rdf:li>clip art</rdf:li>
            <rdf:li>clipart</rdf:li>
            <rdf:li>computer</rdf:li>
            <rdf:li>group</rdf:li>
            <rdf:li>informatique</rdf:li>
            <rdf:li>it</rdf:li>
            <rdf:li>ordinateur</rdf:li>
            <rdf:li>server</rdf:li>
            <rdf:li>serveur</rdf:li>
            <rdf:li>user</rdf:li>
            <rdf:li>users</rdf:li>
          </rdf:Bag>
        </dc:subject>
      </cc:Work>
      <cc:License rdf:about="http://creativecommons.org/licenses/publicdomain/">
        <cc:permits rdf:resource="http://creativecommons.org/ns#Reproduction"/>
        <cc:permits rdf:resource="http://creativecommons.org/ns#Distribution"/>
        <cc:permits rdf:resource="http://creativecommons.org/ns#DerivativeWorks"/>
      </cc:License>
    </rdf:RDF>
  </metadata>
</svg>
