<?xml version="1.0"?>
<svg xmlns:rdf="http://www.w3.org/1999/02/22-rdf-syntax-ns#" xmlns="http://www.w3.org/2000/svg" xmlns:cc="http://creativecommons.org/ns#" xmlns:dc="http://purl.org/dc/elements/1.1/" xmlns:svg="http://www.w3.org/2000/svg" id="svg5711" viewBox="0 0 99.013 122.5" version="1.1">
  <g id="layer1" stroke-miterlimit="10" transform="translate(-719.06 -548.25)">
    <path id="path366" d="m767.44 599.51c35 0 45 10 48.325 30.107 3.3203 20.107 1.6748 39.893-48.325 39.893s-50-20-45-40 10-30 45-30" fill-rule="evenodd" stroke="#851e1e" stroke-width="2.5" fill="#da0e0e"/>
    <path id="path368" d="m757.44 599.51h25l-15 55z" fill-rule="evenodd" stroke="#851e1e" stroke-width="2.5" fill="#fff"/>
    <path id="path370" d="m752.44 594.51 10 10-5 5z" fill-rule="evenodd" stroke="#851e1e" stroke-width="2.5" fill="#ff2f2f"/>
    <path id="path372" d="m777.44 604.51 10-10-5 15z" fill-rule="evenodd" stroke="#851e1e" stroke-width="2.5" fill="#ff2f2f"/>
    <path id="path374" stroke="#851e1e" stroke-width="1.25" fill="none" d="m742.44 629.51c-5.3418 9.0674-7.9443 19.487-7.5 30"/>
    <path id="path376" stroke="#851e1e" stroke-width="1.25" fill="none" d="m799.94 659.51c0.9375-10.264-0.786-20.596-5-30"/>
    <path id="path378" d="m797.44 577.01c0 15.186-12.314 27.5-27.5 27.5-15.19 0-27.5-12.314-27.5-27.5 0-15.19 12.31-27.5 27.5-27.5 15.186 0 27.5 12.31 27.5 27.5" fill-rule="evenodd" stroke="#ffb068" stroke-width="2.5" fill="#ffd9b5"/>
  </g>
  <metadata>
    <rdf:RDF>
      <cc:Work>
        <dc:format>image/svg+xml</dc:format>
        <dc:type rdf:resource="http://purl.org/dc/dcmitype/StillImage"/>
        <cc:license rdf:resource="http://creativecommons.org/licenses/publicdomain/"/>
        <dc:publisher>
          <cc:Agent rdf:about="http://openclipart.org/">
            <dc:title>Openclipart</dc:title>
          </cc:Agent>
        </dc:publisher>
        <dc:title>User 3</dc:title>
        <dc:date>2012-09-26T12:14:53</dc:date>
        <dc:description>User #3 - special remix for a demand</dc:description>
        <dc:source>http://openclipart.org/detail/172502/user-3-by-cyberscooty-172502</dc:source>
        <dc:creator>
          <cc:Agent>
            <dc:title>cyberscooty</dc:title>
          </cc:Agent>
        </dc:creator>
        <dc:subject>
          <rdf:Bag>
            <rdf:li>clip art</rdf:li>
            <rdf:li>clipart</rdf:li>
            <rdf:li>computer</rdf:li>
            <rdf:li>group</rdf:li>
            <rdf:li>informatique</rdf:li>
            <rdf:li>it</rdf:li>
            <rdf:li>ordinateur</rdf:li>
            <rdf:li>server</rdf:li>
            <rdf:li>serveur</rdf:li>
            <rdf:li>user</rdf:li>
            <rdf:li>users</rdf:li>
          </rdf:Bag>
        </dc:subject>
      </cc:Work>
      <cc:License rdf:about="http://creativecommons.org/licenses/publicdomain/">
        <cc:permits rdf:resource="http://creativecommons.org/ns#Reproduction"/>
        <cc:permits rdf:resource="http://creativecommons.org/ns#Distribution"/>
        <cc:permits rdf:resource="http://creativecommons.org/ns#DerivativeWorks"/>
      </cc:License>
    </rdf:RDF>
  </metadata>
</svg>
