<?xml version="1.0"?>
<svg xmlns:rdf="http://www.w3.org/1999/02/22-rdf-syntax-ns#" xmlns="http://www.w3.org/2000/svg" xmlns:cc="http://creativecommons.org/ns#" xmlns:dc="http://purl.org/dc/elements/1.1/" xmlns:svg="http://www.w3.org/2000/svg" id="svg5757" viewBox="0 0 99.015 122.5" version="1.1">
  <g id="layer1" stroke-miterlimit="10" transform="translate(-293.35 -382.53)">
    <path id="path352" d="m341.72 433.79c35 0 45 10 48.325 30.107 3.3252 20.107 1.6748 39.893-48.325 39.893s-50-20-45-40 10-30 45-30" fill-rule="evenodd" stroke="#1e8523" stroke-width="2.5" fill="#2e993a"/>
    <path id="path354" d="m331.72 433.79h25l-15 55z" fill-rule="evenodd" stroke="#1e8523" stroke-width="2.5" fill="#fff"/>
    <path id="path356" d="m326.72 428.79 10 10-5 5z" fill-rule="evenodd" stroke="#1e8523" stroke-width="2.5" fill="#2e993a"/>
    <path id="path358" d="m351.72 438.79 10-10-5 15z" fill-rule="evenodd" stroke="#1e8523" stroke-width="2.5" fill="#2e993a"/>
    <path id="path360" stroke="#1e8523" stroke-width="1.25" fill="none" d="m316.72 463.79c-5.3369 9.0674-7.9443 19.482-7.5 30"/>
    <path id="path362" stroke="#1e8523" stroke-width="1.25" fill="none" d="m374.22 493.79c0.94238-10.264-0.78125-20.596-5-30"/>
    <path id="path364" d="m371.72 411.29c0 15.186-12.31 27.5-27.5 27.5-15.186 0-27.5-12.314-27.5-27.5 0-15.19 12.314-27.5 27.5-27.5 15.19 0 27.5 12.31 27.5 27.5" fill-rule="evenodd" stroke="#ffb068" stroke-width="2.5" fill="#ffd9b5"/>
  </g>
  <metadata>
    <rdf:RDF>
      <cc:Work>
        <dc:format>image/svg+xml</dc:format>
        <dc:type rdf:resource="http://purl.org/dc/dcmitype/StillImage"/>
        <cc:license rdf:resource="http://creativecommons.org/licenses/publicdomain/"/>
        <dc:publisher>
          <cc:Agent rdf:about="http://openclipart.org/">
            <dc:title>Openclipart</dc:title>
          </cc:Agent>
        </dc:publisher>
        <dc:title>User 2</dc:title>
        <dc:date>2012-08-02T14:32:09</dc:date>
        <dc:description>clip art, clipart, computer, group, informatique, it, ordinateur, server, serveur, user, users, </dc:description>
        <dc:source>http://openclipart.org/detail/171433/user-2-by-cyberscooty-171433</dc:source>
        <dc:creator>
          <cc:Agent>
            <dc:title>cyberscooty</dc:title>
          </cc:Agent>
        </dc:creator>
        <dc:subject>
          <rdf:Bag>
            <rdf:li>clip art</rdf:li>
            <rdf:li>clipart</rdf:li>
            <rdf:li>computer</rdf:li>
            <rdf:li>group</rdf:li>
            <rdf:li>informatique</rdf:li>
            <rdf:li>it</rdf:li>
            <rdf:li>ordinateur</rdf:li>
            <rdf:li>server</rdf:li>
            <rdf:li>serveur</rdf:li>
            <rdf:li>user</rdf:li>
            <rdf:li>users</rdf:li>
          </rdf:Bag>
        </dc:subject>
      </cc:Work>
      <cc:License rdf:about="http://creativecommons.org/licenses/publicdomain/">
        <cc:permits rdf:resource="http://creativecommons.org/ns#Reproduction"/>
        <cc:permits rdf:resource="http://creativecommons.org/ns#Distribution"/>
        <cc:permits rdf:resource="http://creativecommons.org/ns#DerivativeWorks"/>
      </cc:License>
    </rdf:RDF>
  </metadata>
</svg>
