<?xml version="1.0" encoding="UTF-8" standalone="no"?>
<!-- Created with Inkscape (http://www.inkscape.org/) -->
<svg
   xmlns:dc="http://purl.org/dc/elements/1.1/"
   xmlns:cc="http://creativecommons.org/ns#"
   xmlns:rdf="http://www.w3.org/1999/02/22-rdf-syntax-ns#"
   xmlns:svg="http://www.w3.org/2000/svg"
   xmlns="http://www.w3.org/2000/svg"
   xmlns:xlink="http://www.w3.org/1999/xlink"
   xmlns:sodipodi="http://sodipodi.sourceforge.net/DTD/sodipodi-0.dtd"
   xmlns:inkscape="http://www.inkscape.org/namespaces/inkscape"
   width="16"
   height="30"
   id="svg7594"
   sodipodi:version="0.32"
   inkscape:version="0.46"
   version="1.0"
   sodipodi:docname="hw_cluster.svg"
   inkscape:output_extension="org.inkscape.output.svg.inkscape">
  <defs
     id="defs7596">
    <radialGradient
       r="6.5"
       fy="665.75568"
       fx="255.39285"
       cy="665.75568"
       cx="255.39285"
       gradientTransform="matrix(3.543015,2.373681,-1.541928,2.30152,377.08,-1474.984)"
       gradientUnits="userSpaceOnUse"
       id="radialGradient13314"
       xlink:href="#linearGradient5628"
       inkscape:collect="always" />
    <radialGradient
       r="6.5"
       fy="665.75568"
       fx="255.39285"
       cy="665.75568"
       cx="255.39285"
       gradientTransform="matrix(3.543015,2.373681,-1.541928,2.30152,377.08,-1474.984)"
       gradientUnits="userSpaceOnUse"
       id="radialGradient13312"
       xlink:href="#linearGradient5628"
       inkscape:collect="always" />
    <radialGradient
       r="6.5"
       fy="665.75568"
       fx="255.39285"
       cy="665.75568"
       cx="255.39285"
       gradientTransform="matrix(3.543015,2.373681,-1.541928,2.30152,377.08,-1474.984)"
       gradientUnits="userSpaceOnUse"
       id="radialGradient13310"
       xlink:href="#linearGradient5628"
       inkscape:collect="always" />
    <linearGradient
       id="linearGradient5628">
      <stop
         id="stop5630"
         offset="0"
         style="stop-color:#eee6d2;stop-opacity:1;" />
      <stop
         id="stop5632"
         offset="1"
         style="stop-color:#dac388;stop-opacity:1;" />
    </linearGradient>
    <radialGradient
       r="6.5"
       fy="665.75568"
       fx="255.39285"
       cy="665.75568"
       cx="255.39285"
       gradientTransform="matrix(3.543015,2.373681,-1.541928,2.30152,377.08,-1474.984)"
       gradientUnits="userSpaceOnUse"
       id="radialGradient13308"
       xlink:href="#linearGradient5628"
       inkscape:collect="always" />
    <linearGradient
       id="linearGradient2202">
      <stop
         offset="0"
         style="stop-color:#797979;stop-opacity:1;"
         id="stop2204" />
      <stop
         offset="1"
         style="stop-color:#cbcbcb;stop-opacity:1;"
         id="stop2206" />
    </linearGradient>
    <radialGradient
       inkscape:collect="always"
       xlink:href="#linearGradient5628"
       id="radialGradient6996"
       gradientUnits="userSpaceOnUse"
       gradientTransform="matrix(3.543015,2.373681,-1.541928,2.30152,377.08,-1474.984)"
       cx="255.39285"
       cy="665.75568"
       fx="255.39285"
       fy="665.75568"
       r="6.5" />
    <radialGradient
       inkscape:collect="always"
       xlink:href="#linearGradient5628"
       id="radialGradient7005"
       gradientUnits="userSpaceOnUse"
       gradientTransform="matrix(1.7996284,1.2056804,-0.7832023,1.1690272,350.74148,-789.97298)"
       cx="255.39285"
       cy="665.75568"
       fx="255.39285"
       fy="665.75568"
       r="6.5" />
    <radialGradient
       inkscape:collect="always"
       xlink:href="#linearGradient5628"
       id="radialGradient7009"
       gradientUnits="userSpaceOnUse"
       gradientTransform="matrix(3.543015,2.373681,-1.541928,2.30152,377.08,-1474.984)"
       cx="255.39285"
       cy="665.75568"
       fx="255.39285"
       fy="665.75568"
       r="6.5" />
    <radialGradient
       inkscape:collect="always"
       xlink:href="#linearGradient5628"
       id="radialGradient7018"
       gradientUnits="userSpaceOnUse"
       gradientTransform="matrix(1.7996284,1.2056804,-0.7832023,1.1690272,346.99558,-791.97268)"
       cx="255.39285"
       cy="665.75568"
       fx="255.39285"
       fy="665.75568"
       r="6.5" />
    <radialGradient
       inkscape:collect="always"
       xlink:href="#linearGradient5628"
       id="radialGradient7022"
       gradientUnits="userSpaceOnUse"
       gradientTransform="matrix(3.543015,2.373681,-1.541928,2.30152,377.08,-1474.984)"
       cx="255.39285"
       cy="665.75568"
       fx="255.39285"
       fy="665.75568"
       r="6.5" />
    <radialGradient
       inkscape:collect="always"
       xlink:href="#linearGradient5628"
       id="radialGradient7031"
       gradientUnits="userSpaceOnUse"
       gradientTransform="matrix(1.7996284,1.2056804,-0.7832023,1.1690272,350.74138,-800.22718)"
       cx="255.39285"
       cy="665.75568"
       fx="255.39285"
       fy="665.75568"
       r="6.5" />
    <radialGradient
       inkscape:collect="always"
       xlink:href="#linearGradient5628"
       id="radialGradient7035"
       gradientUnits="userSpaceOnUse"
       gradientTransform="matrix(3.543015,2.373681,-1.541928,2.30152,377.08,-1474.984)"
       cx="255.39285"
       cy="665.75568"
       fx="255.39285"
       fy="665.75568"
       r="6.5" />
    <radialGradient
       inkscape:collect="always"
       xlink:href="#linearGradient5628"
       id="radialGradient7044"
       gradientUnits="userSpaceOnUse"
       gradientTransform="matrix(1.7996284,1.2056804,-0.7832023,1.1690272,346.99548,-802.22688)"
       cx="255.39285"
       cy="665.75568"
       fx="255.39285"
       fy="665.75568"
       r="6.5" />
    <radialGradient
       inkscape:collect="always"
       xlink:href="#linearGradient5628"
       id="radialGradient7155"
       gradientUnits="userSpaceOnUse"
       gradientTransform="matrix(1.7996284,1.2056804,-0.7832023,1.1690272,350.74138,-800.22718)"
       cx="255.39285"
       cy="665.75568"
       fx="255.39285"
       fy="665.75568"
       r="6.5" />
    <radialGradient
       inkscape:collect="always"
       xlink:href="#linearGradient5628"
       id="radialGradient7196"
       gradientUnits="userSpaceOnUse"
       gradientTransform="matrix(1.7996284,1.2056804,-0.7832023,1.1690272,346.99558,-791.97268)"
       cx="255.39285"
       cy="665.75568"
       fx="255.39285"
       fy="665.75568"
       r="6.5" />
    <radialGradient
       inkscape:collect="always"
       xlink:href="#linearGradient5628"
       id="radialGradient7198"
       gradientUnits="userSpaceOnUse"
       gradientTransform="matrix(1.7996284,1.2056804,-0.7832023,1.1690272,346.99548,-802.22688)"
       cx="255.39285"
       cy="665.75568"
       fx="255.39285"
       fy="665.75568"
       r="6.5" />
    <radialGradient
       inkscape:collect="always"
       xlink:href="#linearGradient5628"
       id="radialGradient7200"
       gradientUnits="userSpaceOnUse"
       gradientTransform="matrix(1.7996284,1.2056804,-0.7832023,1.1690272,350.74148,-789.97298)"
       cx="255.39285"
       cy="665.75568"
       fx="255.39285"
       fy="665.75568"
       r="6.5" />
    <radialGradient
       inkscape:collect="always"
       xlink:href="#linearGradient5628"
       id="radialGradient7202"
       gradientUnits="userSpaceOnUse"
       gradientTransform="matrix(1.7996284,1.2056804,-0.7832023,1.1690272,350.74138,-800.22718)"
       cx="255.39285"
       cy="665.75568"
       fx="255.39285"
       fy="665.75568"
       r="6.5" />
  </defs>
  <sodipodi:namedview
     id="base"
     pagecolor="#ffffff"
     bordercolor="#666666"
     borderopacity="1.0"
     inkscape:pageopacity="0.0"
     inkscape:pageshadow="2"
     inkscape:zoom="26.9"
     inkscape:cx="8"
     inkscape:cy="15"
     inkscape:document-units="px"
     inkscape:current-layer="g11262"
     showgrid="false"
     inkscape:window-width="1680"
     inkscape:window-height="1003"
     inkscape:window-x="0"
     inkscape:window-y="20"
     showguides="true"
     inkscape:guide-bbox="true" />
  <metadata
     id="metadata7599">
    <rdf:RDF>
      <cc:Work
         rdf:about="">
        <dc:format>image/svg+xml</dc:format>
        <dc:type
           rdf:resource="http://purl.org/dc/dcmitype/StillImage" />
        <dc:title>hw_cluster</dc:title>
        <dc:date>2008-05-23</dc:date>
        <dc:creator>
          <cc:Agent>
            <dc:title>Jean Cartier</dc:title>
          </cc:Agent>
        </dc:creator>
        <cc:license
           rdf:resource="http://creativecommons.org/licenses/publicdomain/" />
        <dc:language>fr-FR</dc:language>
        <dc:subject>
          <rdf:Bag>
            <rdf:li>hardware</rdf:li>
            <rdf:li>computer</rdf:li>
          </rdf:Bag>
        </dc:subject>
        <dc:contributor>
          <cc:Agent>
            <dc:title>Jean-Victor Balin (jean.victor.balin@gmail.com)</dc:title>
          </cc:Agent>
        </dc:contributor>
        <dc:description>http://www.jcartier.net</dc:description>
      </cc:Work>
      <cc:License
         rdf:about="http://creativecommons.org/licenses/publicdomain/">
        <cc:permits
           rdf:resource="http://creativecommons.org/ns#Reproduction" />
        <cc:permits
           rdf:resource="http://creativecommons.org/ns#Distribution" />
        <cc:permits
           rdf:resource="http://creativecommons.org/ns#DerivativeWorks" />
      </cc:License>
    </rdf:RDF>
  </metadata>
  <g
     inkscape:label="Calque 1"
     inkscape:groupmode="layer"
     id="layer1">
    <path
       style="opacity:1;fill:#888888;fill-opacity:1;stroke:none;stroke-width:0.69999999;stroke-linecap:round;stroke-linejoin:round;stroke-miterlimit:4;stroke-dasharray:none"
       d=""
       id="path8460" />
    <path
       style="opacity:1;fill:#888888;fill-opacity:1;stroke:none;stroke-width:0.69999999;stroke-linecap:round;stroke-linejoin:round;stroke-miterlimit:4;stroke-dasharray:none"
       d=""
       id="path8462" />
    <path
       style="opacity:1;fill:#888888;fill-opacity:1;stroke:none;stroke-width:0.69999999;stroke-linecap:round;stroke-linejoin:round;stroke-miterlimit:4;stroke-dasharray:none"
       d=""
       id="path8464" />
    <g
       id="g11262"
       transform="translate(-279.1135,-276.31506)">
      <g
         id="g7157"
         transform="translate(-1.3966881e-2,1.8185e-2)">
        <path
           style="fill:#eee6d2;fill-opacity:1;fill-rule:evenodd;stroke:none;stroke-width:1px;stroke-linecap:butt;stroke-linejoin:miter;stroke-opacity:1"
           d="M 279.90726,291.12484 L 287.01838,287.56928 L 290.57394,289.60103 L 283.97076,293.15659 L 279.90726,291.12484 z"
           id="path13224"
           sodipodi:nodetypes="ccccc" />
        <path
           style="fill:#eee6d2;fill-opacity:1;fill-rule:evenodd;stroke:none;stroke-width:1px;stroke-linecap:butt;stroke-linejoin:miter;stroke-opacity:1"
           d="M 279.90726,291.12484 L 279.90726,301.28358 C 279.90726,301.28358 279.93346,303.31533 283.97076,303.31533 L 283.97076,293.15659 L 279.90726,291.12484 z"
           id="path13226"
           sodipodi:nodetypes="ccccc" />
        <path
           style="fill:url(#radialGradient7196);fill-opacity:1;fill-rule:evenodd;stroke:none;stroke-width:1px;stroke-linecap:butt;stroke-linejoin:miter;stroke-opacity:1"
           d="M 290.57394,289.60103 L 290.57394,299.75977 L 283.97076,303.31533 L 283.97076,293.15659 L 290.57394,289.60103 z"
           id="path13228"
           sodipodi:nodetypes="ccccc" />
        <path
           id="path13230"
           d="M 287.03125,287.28125 L 286.90625,287.34375 L 279.78125,290.90625 L 279.65625,290.96875 L 279.65625,291.125 L 279.65625,301.28125 C 279.65625,301.28125 279.64234,301.46542 279.71875,301.6875 C 279.79516,301.90958 279.96475,302.18533 280.25,302.46875 C 280.8205,303.03559 281.9075,303.5625 283.96875,303.5625 L 284.03125,303.5625 L 284.09375,303.53125 L 290.6875,299.96875 L 290.8125,299.90625 L 290.8125,299.75 L 290.8125,289.59375 L 290.8125,289.46875 L 290.6875,289.375 L 287.15625,287.34375 L 287.03125,287.28125 z M 287,287.84375 L 290.3125,289.75 L 290.3125,299.625 L 283.90625,303.0625 C 281.98491,303.04935 281.03952,302.56792 280.59375,302.125 C 280.36778,301.90048 280.27341,301.69012 280.21875,301.53125 C 280.16409,301.37238 280.15625,301.28125 280.15625,301.28125 L 280.15625,291.28125 L 287,287.84375 z"
           style="fill:#000000;fill-opacity:1;fill-rule:evenodd;stroke:none;stroke-width:0.50793701px;stroke-linecap:butt;stroke-linejoin:miter;stroke-opacity:1" />
        <path
           id="path13232"
           d="M 280.40625,293 L 280.40625,293.40625 L 280.40625,294.4375 L 280.40625,294.59375 L 280.5625,294.65625 L 282.59375,295.65625 L 282.96875,295.84375 L 282.96875,295.4375 L 282.96875,294.4375 L 282.96875,294.28125 L 282.8125,294.1875 L 280.78125,293.1875 L 280.40625,293 z M 280.9375,293.8125 L 282.4375,294.5625 L 282.4375,295.03125 L 280.9375,294.28125 L 280.9375,293.8125 z"
           style="fill:#000000;fill-opacity:1;fill-rule:evenodd;stroke:none;stroke-width:0.50793701px;stroke-linecap:butt;stroke-linejoin:miter;stroke-opacity:1" />
        <path
           id="path13234"
           d="M 280.78125,296.5 L 280.5625,296.9375 L 282.59375,297.96875 L 282.8125,297.5 L 280.78125,296.5 z"
           style="fill:#000000;fill-opacity:1;fill-rule:evenodd;stroke:none;stroke-width:0.50793701px;stroke-linecap:butt;stroke-linejoin:miter;stroke-opacity:1" />
        <path
           id="path13236"
           d="M 280.78125,297.75 L 280.5625,298.21875 L 282.59375,299.21875 L 282.8125,298.78125 L 280.78125,297.75 z"
           style="fill:#000000;fill-opacity:1;fill-rule:evenodd;stroke:none;stroke-width:0.50793701px;stroke-linecap:butt;stroke-linejoin:miter;stroke-opacity:1" />
        <path
           id="path13238"
           d="M 280.78125,299.03125 L 280.5625,299.46875 L 282.59375,300.5 L 282.8125,300.03125 L 280.78125,299.03125 z"
           style="fill:#000000;fill-opacity:1;fill-rule:evenodd;stroke:none;stroke-width:0.50793701px;stroke-linecap:butt;stroke-linejoin:miter;stroke-opacity:1" />
        <path
           id="path13240"
           d="M 280.78125,300.28125 L 280.5625,300.75 L 282.59375,301.75 L 282.8125,301.3125 L 280.78125,300.28125 z"
           style="fill:#000000;fill-opacity:1;fill-rule:evenodd;stroke:none;stroke-width:0.50793701px;stroke-linecap:butt;stroke-linejoin:miter;stroke-opacity:1" />
        <path
           sodipodi:nodetypes="ccccc"
           id="path13202"
           d="M 279.90717,280.87064 L 287.01828,277.31508 L 290.57384,279.34683 L 283.97066,282.90239 L 279.90717,280.87064 z"
           style="fill:#eee6d2;fill-opacity:1;fill-rule:evenodd;stroke:none;stroke-width:1px;stroke-linecap:butt;stroke-linejoin:miter;stroke-opacity:1" />
        <path
           sodipodi:nodetypes="ccccc"
           id="path13204"
           d="M 279.90717,280.87064 L 279.90717,291.02938 C 279.90717,291.02938 279.93336,293.06113 283.97066,293.06113 L 283.97066,282.90239 L 279.90717,280.87064 z"
           style="fill:#eee6d2;fill-opacity:1;fill-rule:evenodd;stroke:none;stroke-width:1px;stroke-linecap:butt;stroke-linejoin:miter;stroke-opacity:1" />
        <path
           sodipodi:nodetypes="ccccc"
           id="path13206"
           d="M 290.57384,279.34683 L 290.57384,289.50557 L 283.97066,293.06113 L 283.97066,282.90239 L 290.57384,279.34683 z"
           style="fill:url(#radialGradient7198);fill-opacity:1;fill-rule:evenodd;stroke:none;stroke-width:1px;stroke-linecap:butt;stroke-linejoin:miter;stroke-opacity:1" />
        <path
           id="path13208"
           d="M 287.03125,277.03125 L 286.90625,277.09375 L 279.78125,280.65625 L 279.65625,280.71875 L 279.65625,280.875 L 279.65625,291.03125 C 279.65625,291.03125 279.64234,291.21542 279.71875,291.4375 C 279.79516,291.65958 279.96475,291.93533 280.25,292.21875 C 280.82049,292.78559 281.9075,293.3125 283.96875,293.3125 L 284.03125,293.3125 L 284.09375,293.28125 L 290.6875,289.71875 L 290.8125,289.65625 L 290.8125,289.5 L 290.8125,279.34375 L 290.8125,279.1875 L 290.6875,279.125 L 287.15625,277.09375 L 287.03125,277.03125 z M 287,277.59375 L 290.3125,279.5 L 290.3125,289.375 L 283.90625,292.8125 C 281.98491,292.79935 281.03952,292.31792 280.59375,291.875 C 280.36779,291.65048 280.27341,291.40887 280.21875,291.25 C 280.16409,291.09113 280.15625,291.03125 280.15625,291.03125 L 280.15625,281.03125 L 287,277.59375 z"
           style="fill:#000000;fill-opacity:1;fill-rule:evenodd;stroke:none;stroke-width:0.50793701px;stroke-linecap:butt;stroke-linejoin:miter;stroke-opacity:1" />
        <path
           id="path13210"
           d="M 280.40625,282.75 L 280.40625,283.15625 L 280.40625,284.1875 L 280.40625,284.34375 L 280.5625,284.40625 L 282.59375,285.40625 L 282.96875,285.59375 L 282.96875,285.1875 L 282.96875,284.1875 L 282.96875,284 L 282.8125,283.9375 L 280.78125,282.9375 L 280.40625,282.75 z M 280.9375,283.5625 L 282.4375,284.3125 L 282.4375,284.78125 L 280.9375,284.03125 L 280.9375,283.5625 z"
           style="fill:#000000;fill-opacity:1;fill-rule:evenodd;stroke:none;stroke-width:0.50793701px;stroke-linecap:butt;stroke-linejoin:miter;stroke-opacity:1" />
        <path
           id="path13212"
           d="M 280.78125,286.21875 L 280.5625,286.6875 L 282.59375,287.6875 L 282.8125,287.25 L 280.78125,286.21875 z"
           style="fill:#000000;fill-opacity:1;fill-rule:evenodd;stroke:none;stroke-width:0.50793701px;stroke-linecap:butt;stroke-linejoin:miter;stroke-opacity:1" />
        <path
           id="path13214"
           d="M 280.78125,287.5 L 280.5625,287.96875 L 282.59375,288.96875 L 282.8125,288.53125 L 280.78125,287.5 z"
           style="fill:#000000;fill-opacity:1;fill-rule:evenodd;stroke:none;stroke-width:0.50793701px;stroke-linecap:butt;stroke-linejoin:miter;stroke-opacity:1" />
        <path
           id="path13216"
           d="M 280.78125,288.78125 L 280.5625,289.21875 L 282.59375,290.25 L 282.8125,289.78125 L 280.78125,288.78125 z"
           style="fill:#000000;fill-opacity:1;fill-rule:evenodd;stroke:none;stroke-width:0.50793701px;stroke-linecap:butt;stroke-linejoin:miter;stroke-opacity:1" />
        <path
           id="path13218"
           d="M 280.78125,290.03125 L 280.5625,290.5 L 282.59375,291.5 L 282.8125,291.0625 L 280.78125,290.03125 z"
           style="fill:#000000;fill-opacity:1;fill-rule:evenodd;stroke:none;stroke-width:0.50793701px;stroke-linecap:butt;stroke-linejoin:miter;stroke-opacity:1" />
        <path
           sodipodi:nodetypes="ccccc"
           id="path13246"
           d="M 283.65317,293.12454 L 290.76428,289.56898 L 294.31984,291.60073 L 287.71666,295.15629 L 283.65317,293.12454 z"
           style="fill:#eee6d2;fill-opacity:1;fill-rule:evenodd;stroke:none;stroke-width:1px;stroke-linecap:butt;stroke-linejoin:miter;stroke-opacity:1" />
        <path
           sodipodi:nodetypes="ccccc"
           id="path13248"
           d="M 283.65317,293.12454 L 283.65317,303.28328 C 283.65317,303.28328 283.67936,305.31503 287.71666,305.31503 L 287.71666,295.15629 L 283.65317,293.12454 z"
           style="fill:#eee6d2;fill-opacity:1;fill-rule:evenodd;stroke:none;stroke-width:1px;stroke-linecap:butt;stroke-linejoin:miter;stroke-opacity:1" />
        <path
           sodipodi:nodetypes="ccccc"
           id="path13250"
           d="M 294.31984,291.60073 L 294.31984,301.75947 L 287.71666,305.31503 L 287.71666,295.15629 L 294.31984,291.60073 z"
           style="fill:url(#radialGradient7200);fill-opacity:1;fill-rule:evenodd;stroke:none;stroke-width:1px;stroke-linecap:butt;stroke-linejoin:miter;stroke-opacity:1" />
        <path
           id="path13252"
           d="M 290.81842,289.28125 L 290.69342,289.34375 L 283.56842,292.90625 L 283.44342,292.96875 L 283.44342,293.125 L 283.44342,303.28125 C 283.44342,303.28125 283.42951,303.46542 283.50592,303.6875 C 283.58233,303.90958 283.75192,304.18533 284.03717,304.46875 C 284.60766,305.03559 285.69467,305.5625 287.75592,305.5625 L 287.81842,305.5625 L 287.88092,305.53125 L 294.47467,301.96875 L 294.59967,301.90625 L 294.59967,301.75 L 294.59967,291.59375 L 294.59967,291.46875 L 294.47467,291.375 L 290.91217,289.34375 L 290.81842,289.28125 z M 290.78717,289.84375 L 294.09967,291.75 L 294.09967,301.59375 L 287.69342,305.0625 C 285.77208,305.04935 284.82669,304.56791 284.38092,304.125 C 284.15496,303.90048 284.06058,303.69012 284.00592,303.53125 C 283.95126,303.37238 283.94342,303.28125 283.94342,303.28125 L 283.94342,293.28125 L 290.78717,289.84375 z"
           style="fill:#000000;fill-opacity:1;fill-rule:evenodd;stroke:none;stroke-width:0.50793701px;stroke-linecap:butt;stroke-linejoin:miter;stroke-opacity:1" />
        <path
           id="path13254"
           d="M 284.15625,295 L 284.15625,295.40625 L 284.15625,296.4375 L 284.15625,296.59375 L 284.3125,296.65625 L 286.34375,297.65625 L 286.6875,297.84375 L 286.6875,297.4375 L 286.6875,296.4375 L 286.6875,296.28125 L 286.5625,296.1875 L 284.53125,295.1875 L 284.15625,295 z M 284.65625,295.8125 L 286.1875,296.5625 L 286.1875,297.03125 L 284.65625,296.25 L 284.65625,295.8125 z"
           style="fill:#000000;fill-opacity:1;fill-rule:evenodd;stroke:none;stroke-width:0.50793701px;stroke-linecap:butt;stroke-linejoin:miter;stroke-opacity:1" />
        <path
           id="path13256"
           d="M 284.53125,298.5 L 284.3125,298.9375 L 286.34375,299.96875 L 286.5625,299.5 L 284.53125,298.5 z"
           style="fill:#000000;fill-opacity:1;fill-rule:evenodd;stroke:none;stroke-width:0.50793701px;stroke-linecap:butt;stroke-linejoin:miter;stroke-opacity:1" />
        <path
           id="path13258"
           d="M 284.53125,299.75 L 284.3125,300.21875 L 286.34375,301.21875 L 286.5625,300.78125 L 284.53125,299.75 z"
           style="fill:#000000;fill-opacity:1;fill-rule:evenodd;stroke:none;stroke-width:0.50793701px;stroke-linecap:butt;stroke-linejoin:miter;stroke-opacity:1" />
        <path
           id="path13260"
           d="M 284.53125,301.03125 L 284.3125,301.46875 L 286.34375,302.5 L 286.5625,302.03125 L 284.53125,301.03125 z"
           style="fill:#000000;fill-opacity:1;fill-rule:evenodd;stroke:none;stroke-width:0.50793701px;stroke-linecap:butt;stroke-linejoin:miter;stroke-opacity:1" />
        <path
           id="path13262"
           d="M 284.53125,302.28125 L 284.3125,302.75 L 286.34375,303.75 L 286.5625,303.3125 L 284.53125,302.28125 z"
           style="fill:#000000;fill-opacity:1;fill-rule:evenodd;stroke:none;stroke-width:0.50793701px;stroke-linecap:butt;stroke-linejoin:miter;stroke-opacity:1" />
        <g
           transform="translate(3.7174721e-2,0.1579926)"
           id="g7144">
          <path
             sodipodi:nodetypes="ccccc"
             id="path6872"
             d="M 283.65306,282.87034 L 290.76418,279.31478 L 294.31974,281.34653 L 287.71656,284.90209 L 283.65306,282.87034 z"
             style="fill:#eee6d2;fill-opacity:1;fill-rule:evenodd;stroke:none;stroke-width:1px;stroke-linecap:butt;stroke-linejoin:miter;stroke-opacity:1" />
          <path
             sodipodi:nodetypes="ccccc"
             id="path6874"
             d="M 283.65306,282.87034 L 283.65306,293.02908 C 283.65306,293.02908 283.67926,295.06083 287.71656,295.06083 L 287.71656,284.90209 L 283.65306,282.87034 z"
             style="fill:#eee6d2;fill-opacity:1;fill-rule:evenodd;stroke:none;stroke-width:1px;stroke-linecap:butt;stroke-linejoin:miter;stroke-opacity:1" />
          <path
             sodipodi:nodetypes="ccccc"
             id="path6876"
             d="M 294.31974,281.34653 L 294.31974,291.50527 L 287.71656,295.06083 L 287.71656,284.90209 L 294.31974,281.34653 z"
             style="fill:url(#radialGradient7202);fill-opacity:1;fill-rule:evenodd;stroke:none;stroke-width:1px;stroke-linecap:butt;stroke-linejoin:miter;stroke-opacity:1" />
          <path
             style="fill:#000000;fill-opacity:1;fill-rule:evenodd;stroke:none;stroke-width:0.50793701px;stroke-linecap:butt;stroke-linejoin:miter;stroke-opacity:1"
             d="M 290.78125,279.03125 L 290.65625,279.09375 L 283.53125,282.65625 L 283.40625,282.71875 L 283.40625,282.875 L 283.40625,293.03125 C 283.40625,293.03125 283.39233,293.21542 283.46875,293.4375 C 283.54517,293.65958 283.71475,293.93533 284,294.21875 C 284.5705,294.78559 285.6575,295.3125 287.71875,295.3125 L 287.78125,295.3125 L 287.84375,295.28125 L 294.4375,291.71875 L 294.5625,291.65625 L 294.5625,291.5 L 294.5625,281.34375 L 294.5625,281.1875 L 294.4375,281.125 L 290.875,279.09375 L 290.78125,279.03125 z M 290.75,279.59375 L 294.0625,281.5 L 294.0625,291.34375 L 287.65625,294.8125 C 285.73491,294.79935 284.78952,294.31792 284.34375,293.875 C 284.11778,293.65048 284.02342,293.40887 283.96875,293.25 C 283.91408,293.09113 283.90625,293.03125 283.90625,293.03125 L 283.90625,283.03125 L 290.75,279.59375 z"
             id="path6878" />
          <path
             style="fill:#000000;fill-opacity:1;fill-rule:evenodd;stroke:none;stroke-width:0.50793701px;stroke-linecap:butt;stroke-linejoin:miter;stroke-opacity:1"
             d="M 284.15625,284.75 L 284.15625,285.15625 L 284.15625,286.1875 L 284.15625,286.34375 L 284.3125,286.40625 L 286.34375,287.40625 L 286.6875,287.59375 L 286.6875,287.1875 L 286.6875,286.1875 L 286.6875,286 L 286.5625,285.9375 L 284.53125,284.9375 L 284.15625,284.75 z M 284.65625,285.5625 L 286.1875,286.3125 L 286.1875,286.78125 L 284.65625,286 L 284.65625,285.5625 z"
             id="path6880" />
          <path
             style="fill:#000000;fill-opacity:1;fill-rule:evenodd;stroke:none;stroke-width:0.50793701px;stroke-linecap:butt;stroke-linejoin:miter;stroke-opacity:1"
             d="M 284.53125,288.21875 L 284.3125,288.6875 L 286.34375,289.6875 L 286.5625,289.25 L 284.53125,288.21875 z"
             id="path6882" />
          <path
             style="fill:#000000;fill-opacity:1;fill-rule:evenodd;stroke:none;stroke-width:0.50793701px;stroke-linecap:butt;stroke-linejoin:miter;stroke-opacity:1"
             d="M 284.53125,289.5 L 284.3125,289.96875 L 286.34375,290.96875 L 286.5625,290.53125 L 284.53125,289.5 z"
             id="path6884" />
          <path
             style="fill:#000000;fill-opacity:1;fill-rule:evenodd;stroke:none;stroke-width:0.50793701px;stroke-linecap:butt;stroke-linejoin:miter;stroke-opacity:1"
             d="M 284.53125,290.78125 L 284.3125,291.21875 L 286.34375,292.25 L 286.5625,291.78125 L 284.53125,290.78125 z"
             id="path6886" />
          <path
             style="fill:#000000;fill-opacity:1;fill-rule:evenodd;stroke:none;stroke-width:0.50793701px;stroke-linecap:butt;stroke-linejoin:miter;stroke-opacity:1"
             d="M 284.53125,292.03125 L 284.3125,292.5 L 286.34375,293.5 L 286.5625,293.0625 L 284.53125,292.03125 z"
             id="path6888" />
        </g>
      </g>
    </g>
  </g>
</svg>
