<?xml version="1.0" encoding="UTF-8" standalone="no"?>
<!DOCTYPE svg PUBLIC "-//W3C//DTD SVG 1.0//EN" "http://www.w3.org/TR/2001/PR-SVG-20010719/DTD/svg10.dtd">
<svg width="10cm" height="7cm" viewBox="105 5678 190 123" xmlns="http://www.w3.org/2000/svg" xmlns:xlink="http://www.w3.org/1999/xlink">
  <g>
    <path style="fill: #0096d4" d="M 276.288 5801.21 L 105.106,5801.21 L 105.106,5696.75 L 276.288,5696.75 L 276.288,5801.21z"/>
    <path style="fill: none; fill-opacity:0; stroke-width: 0.02; stroke: #aae6ff" d="M 276.288 5801.21 L 105.491,5801.21"/>
    <path style="fill: none; fill-opacity:0; stroke-width: 0.02; stroke: #aae6ff" d="M 105.491 5696.75 L 276.288,5696.75 L 276.288,5801.21"/>
    <path style="fill: #005a80" d="M 276.288 5801.21 L 295,5784.04 L 295,5678.28 L 276.288,5696.75 L 276.288,5801.21z"/>
    <path style="fill: none; fill-opacity:0; stroke-width: 0.02; stroke: #aae6ff" d="M 276.288 5801.21 L 295,5784.04 L 295,5679.02"/>
    <path style="fill: none; fill-opacity:0; stroke-width: 0.02; stroke: #aae6ff" d="M 294.205 5679.02 L 276.288,5696.75 L 276.288,5801.21"/>
    <path style="fill: #00b4ff" d="M 276.288 5696.75 L 295,5678.28 L 123.794,5678.28 L 105.106,5696.75 L 276.288,5696.75z"/>
    <path style="fill: none; fill-opacity:0; stroke-width: 0.02; stroke: #aae6ff" d="M 276.288 5696.75 L 294.205,5679.02"/>
    <path style="fill: none; fill-opacity:0; stroke-width: 0.02; stroke: #aae6ff" d="M 123.022 5679.02 L 105.491,5696.36"/>
    <path style="fill: none; fill-opacity:0; stroke-width: 0.02; stroke: #aae6ff" d="M 105.491 5696.75 L 276.288,5696.75"/>
    <path style="fill: #000000" d="M 121.165 5745.72 L 121.165,5753.61 L 175.927,5753.61 L 175.927,5758.91 L 185.332,5749.68 L 175.927,5740.42 L 175.927,5745.72 L 121.165,5745.72z"/>
    <path style="fill: #000000" d="M 195.99 5745.72 L 195.99,5753.61 L 252.199,5753.61 L 252.199,5758.91 L 261.579,5749.68 L 252.199,5740.42 L 252.199,5745.72 L 195.99,5745.72z"/>
    <path style="fill: #000000" d="M 192.035 5732.48 L 195.99,5740.42 L 246.821,5716.57 L 248.172,5721.87 L 252.199,5709.96 L 240.166,5704.68 L 242.867,5709.96 L 192.035,5732.48z"/>
    <path style="fill: #000000" d="M 192.035 5765.54 L 195.99,5757.63 L 246.821,5781.36 L 248.172,5776.08 L 252.199,5787.99 L 240.166,5793.27 L 242.867,5787.99 L 192.035,5765.54z"/>
    <path style="fill: #ffffff" d="M 122.467 5747 L 122.467,5754.96 L 177.302,5754.96 L 177.302,5760.26 L 186.658,5750.95 L 177.302,5741.72 L 177.302,5747 L 122.467,5747z"/>
    <path style="fill: #ffffff" d="M 197.364 5747 L 197.364,5754.96 L 253.549,5754.96 L 253.549,5760.26 L 262.881,5750.95 L 253.549,5741.72 L 253.549,5747 L 197.364,5747z"/>
    <path style="fill: #ffffff" d="M 193.313 5733.76 L 197.364,5741.72 L 248.172,5717.92 L 249.57,5723.22 L 253.549,5711.31 L 241.492,5706.03 L 244.169,5711.31 L 193.313,5733.76z"/>
    <path style="fill: #ffffff" d="M 193.313 5766.87 L 197.364,5758.91 L 248.172,5782.71 L 249.57,5777.45 L 253.549,5789.34 L 241.492,5794.62 L 244.169,5789.34 L 193.313,5766.87z"/>
  </g>
</svg>
