<?xml version="1.0" encoding="UTF-8" standalone="no"?>
<!-- Created with Inkscape (http://www.inkscape.org/) -->

<svg
   xmlns:dc="http://purl.org/dc/elements/1.1/"
   xmlns:cc="http://creativecommons.org/ns#"
   xmlns:rdf="http://www.w3.org/1999/02/22-rdf-syntax-ns#"
   xmlns:svg="http://www.w3.org/2000/svg"
   xmlns="http://www.w3.org/2000/svg"
   xmlns:xlink="http://www.w3.org/1999/xlink"
   xmlns:sodipodi="http://sodipodi.sourceforge.net/DTD/sodipodi-0.dtd"
   xmlns:inkscape="http://www.inkscape.org/namespaces/inkscape"
   width="950"
   height="87.5"
   id="svg2"
   sodipodi:version="0.32"
   inkscape:version="0.48.1 "
   sodipodi:docname="Black 1U mini-server.svg"
   inkscape:output_extension="org.inkscape.output.svg.inkscape"
   version="1.0">
  <title
     id="title3152">Black 1U mini-server</title>
  <defs
     id="defs4">
    <linearGradient
       id="linearGradient6105">
      <stop
         style="stop-color:#009200;stop-opacity:1;"
         offset="0"
         id="stop6107" />
      <stop
         style="stop-color:#005d00;stop-opacity:1;"
         offset="1"
         id="stop6109" />
    </linearGradient>
    <linearGradient
       id="linearGradient6091">
      <stop
         style="stop-color:#7eff7e;stop-opacity:1;"
         offset="0"
         id="stop6093" />
      <stop
         style="stop-color:#00b600;stop-opacity:1;"
         offset="1"
         id="stop6095" />
    </linearGradient>
    <linearGradient
       id="linearGradient6022">
      <stop
         style="stop-color:#5d5d5d;stop-opacity:1;"
         offset="0"
         id="stop6024" />
      <stop
         id="stop6030"
         offset="0.5"
         style="stop-color:#3c3c3c;stop-opacity:0.99607843;" />
      <stop
         style="stop-color:#1f1f1f;stop-opacity:0.99215686;"
         offset="1"
         id="stop6026" />
    </linearGradient>
    <linearGradient
       id="linearGradient5854">
      <stop
         style="stop-color:#4d4d4d;stop-opacity:1;"
         offset="0"
         id="stop5856" />
      <stop
         id="stop5862"
         offset="0.14024836"
         style="stop-color:#232323;stop-opacity:0.99607843;" />
      <stop
         style="stop-color:#232323;stop-opacity:0.99607843;"
         offset="0.86486489"
         id="stop5864" />
      <stop
         style="stop-color:#000000;stop-opacity:1;"
         offset="1"
         id="stop5858" />
    </linearGradient>
    <linearGradient
       id="linearGradient5840">
      <stop
         style="stop-color:#535353;stop-opacity:1;"
         offset="0"
         id="stop5842" />
      <stop
         id="stop5848"
         offset="0.14837472"
         style="stop-color:#0f0f0f;stop-opacity:0.98431373;" />
      <stop
         style="stop-color:#1a1a1a;stop-opacity:0.97647059;"
         offset="0.8445946"
         id="stop5850" />
      <stop
         style="stop-color:#535353;stop-opacity:0.96521741;"
         offset="1"
         id="stop5844" />
    </linearGradient>
    <linearGradient
       id="linearGradient5815">
      <stop
         style="stop-color:#00ba00;stop-opacity:1;"
         offset="0"
         id="stop5817" />
      <stop
         style="stop-color:#008000;stop-opacity:1;"
         offset="1"
         id="stop5819" />
    </linearGradient>
    <linearGradient
       id="linearGradient5776">
      <stop
         style="stop-color:#1c1c1c;stop-opacity:1;"
         offset="0"
         id="stop5778" />
      <stop
         id="stop5794"
         offset="0.3918919"
         style="stop-color:#6d6d6d;stop-opacity:1;" />
      <stop
         style="stop-color:#252525;stop-opacity:1;"
         offset="1"
         id="stop5780" />
    </linearGradient>
    <linearGradient
       id="linearGradient5751">
      <stop
         style="stop-color:#333333;stop-opacity:1;"
         offset="0"
         id="stop5753" />
      <stop
         id="stop5759"
         offset="0.5"
         style="stop-color:#0f0f0f;stop-opacity:1;" />
      <stop
         style="stop-color:#111111;stop-opacity:1;"
         offset="1"
         id="stop5755" />
    </linearGradient>
    <linearGradient
       id="linearGradient5723">
      <stop
         style="stop-color:#1c1c1c;stop-opacity:1;"
         offset="0"
         id="stop5725" />
      <stop
         id="stop5731"
         offset="0.04054054"
         style="stop-color:#353535;stop-opacity:1;" />
      <stop
         style="stop-color:#5f5f5f;stop-opacity:1;"
         offset="0.49433893"
         id="stop5737" />
      <stop
         style="stop-color:#333333;stop-opacity:1;"
         offset="0.94813734"
         id="stop5733" />
      <stop
         style="stop-color:#1c1c1c;stop-opacity:1;"
         offset="1"
         id="stop5727" />
    </linearGradient>
    <linearGradient
       id="linearGradient5706">
      <stop
         style="stop-color:#1c1c1c;stop-opacity:1;"
         offset="0"
         id="stop5708" />
      <stop
         id="stop5714"
         offset="0.5"
         style="stop-color:#737373;stop-opacity:1;" />
      <stop
         style="stop-color:#1c1c1c;stop-opacity:1;"
         offset="1"
         id="stop5710" />
    </linearGradient>
    <linearGradient
       id="linearGradient5672">
      <stop
         style="stop-color:#1c1c1c;stop-opacity:1;"
         offset="0"
         id="stop5674" />
      <stop
         id="stop5680"
         offset="0.5"
         style="stop-color:#666666;stop-opacity:1;" />
      <stop
         style="stop-color:#1c1c1c;stop-opacity:1;"
         offset="1"
         id="stop5676" />
    </linearGradient>
    <linearGradient
       id="linearGradient5535">
      <stop
         style="stop-color:#3c3c3c;stop-opacity:1;"
         offset="0"
         id="stop5537" />
      <stop
         id="stop5559"
         offset="0.0472973"
         style="stop-color:#212121;stop-opacity:1;" />
      <stop
         id="stop5543"
         offset="0.5"
         style="stop-color:#1a1a1a;stop-opacity:1;" />
      <stop
         style="stop-color:#181818;stop-opacity:1;"
         offset="0.91891891"
         id="stop5545" />
      <stop
         style="stop-color:#282828;stop-opacity:1;"
         offset="1"
         id="stop5539" />
    </linearGradient>
    <linearGradient
       id="linearGradient5525">
      <stop
         style="stop-color:#1a1a1a;stop-opacity:1;"
         offset="0"
         id="stop5527" />
      <stop
         style="stop-color:#3c3c3c;stop-opacity:0.98260868;"
         offset="1"
         id="stop5529" />
    </linearGradient>
    <linearGradient
       id="linearGradient5215">
      <stop
         style="stop-color:#1a1a1a;stop-opacity:1;"
         offset="0"
         id="stop5217" />
      <stop
         id="stop5233"
         offset="0.27702704"
         style="stop-color:#1a1a1a;stop-opacity:0.99215686;" />
      <stop
         id="stop5223"
         offset="0.5"
         style="stop-color:#525252;stop-opacity:0.98823529;" />
      <stop
         style="stop-color:#1a1a1a;stop-opacity:0.98039216;"
         offset="0.6891892"
         id="stop5225" />
      <stop
         style="stop-color:#1a1a1a;stop-opacity:0.97391301;"
         offset="1"
         id="stop5219" />
    </linearGradient>
    <linearGradient
       id="linearGradient5189">
      <stop
         style="stop-color:#282828;stop-opacity:1;"
         offset="0"
         id="stop5191" />
      <stop
         id="stop5203"
         offset="0.44594595"
         style="stop-color:#1a1a1a;stop-opacity:1;" />
      <stop
         id="stop5197"
         offset="0.57697225"
         style="stop-color:#545454;stop-opacity:1;" />
      <stop
         style="stop-color:#1a1a1a;stop-opacity:1;"
         offset="0.72297299"
         id="stop5199" />
      <stop
         style="stop-color:#1a1a1a;stop-opacity:1;"
         offset="1"
         id="stop5193" />
    </linearGradient>
    <linearGradient
       id="linearGradient4771">
      <stop
         style="stop-color:#232323;stop-opacity:1;"
         offset="0"
         id="stop4773" />
      <stop
         style="stop-color:#424242;stop-opacity:0.98260868;"
         offset="1"
         id="stop4775" />
    </linearGradient>
    <linearGradient
       id="linearGradient4650"
       inkscape:collect="always">
      <stop
         id="stop4652"
         offset="0"
         style="stop-color:#000000;stop-opacity:1;" />
      <stop
         id="stop4654"
         offset="1"
         style="stop-color:#000000;stop-opacity:0;" />
    </linearGradient>
    <linearGradient
       id="linearGradient4624">
      <stop
         id="stop4626"
         offset="0"
         style="stop-color:#bfbfbf;stop-opacity:1;" />
      <stop
         id="stop4628"
         offset="1"
         style="stop-color:#f4f4f4;stop-opacity:1;" />
    </linearGradient>
    <linearGradient
       id="linearGradient4632">
      <stop
         id="stop4634"
         offset="0"
         style="stop-color:#eeeeee;stop-opacity:0.95652175;" />
      <stop
         id="stop4636"
         offset="1"
         style="stop-color:#333333;stop-opacity:1;" />
    </linearGradient>
    <linearGradient
       inkscape:collect="always"
       xlink:href="#linearGradient4771"
       id="linearGradient6215"
       gradientUnits="userSpaceOnUse"
       gradientTransform="matrix(1.0017795,0,0,1.0200364,1.9258303,-50.127272)"
       x1="-1030.3704"
       y1="70.88343"
       x2="-337.84854"
       y2="149.12688" />
    <linearGradient
       inkscape:collect="always"
       xlink:href="#linearGradient5189"
       id="linearGradient6217"
       gradientUnits="userSpaceOnUse"
       gradientTransform="matrix(1.5823741,0,0,1,601.4796,0)"
       x1="-1064.0472"
       y1="165.12775"
       x2="-1032.8062"
       y2="165.12775" />
    <linearGradient
       inkscape:collect="always"
       xlink:href="#linearGradient5215"
       id="linearGradient6219"
       gradientUnits="userSpaceOnUse"
       gradientTransform="translate(-29.905457,-0.1179234)"
       x1="-1013.741"
       y1="165.24567"
       x2="-994.21167"
       y2="165.24567" />
    <linearGradient
       inkscape:collect="always"
       xlink:href="#linearGradient4650"
       id="linearGradient6221"
       gradientUnits="userSpaceOnUse"
       x1="-689.67322"
       y1="448.50641"
       x2="-697.50458"
       y2="437.2793" />
    <linearGradient
       inkscape:collect="always"
       xlink:href="#linearGradient4624"
       id="linearGradient6223"
       gradientUnits="userSpaceOnUse"
       x1="-681.93805"
       y1="457.1796"
       x2="-695.31689"
       y2="441.57166" />
    <linearGradient
       inkscape:collect="always"
       xlink:href="#linearGradient4632"
       id="linearGradient6225"
       gradientUnits="userSpaceOnUse"
       gradientTransform="translate(-27.398846,-21.132933)"
       x1="-663.11151"
       y1="473.92581"
       x2="-680.20764"
       y2="458.37943" />
    <linearGradient
       inkscape:collect="always"
       xlink:href="#linearGradient5189"
       id="linearGradient6227"
       gradientUnits="userSpaceOnUse"
       gradientTransform="matrix(1.5823741,0,0,1,601.4796,0)"
       x1="-1064.0472"
       y1="165.12775"
       x2="-1032.8062"
       y2="165.12775" />
    <linearGradient
       inkscape:collect="always"
       xlink:href="#linearGradient5215"
       id="linearGradient6229"
       gradientUnits="userSpaceOnUse"
       gradientTransform="translate(-29.905457,-0.1179234)"
       x1="-1013.741"
       y1="165.24567"
       x2="-994.21167"
       y2="165.24567" />
    <linearGradient
       inkscape:collect="always"
       xlink:href="#linearGradient4650"
       id="linearGradient6231"
       gradientUnits="userSpaceOnUse"
       x1="-689.67322"
       y1="448.50641"
       x2="-697.50458"
       y2="437.2793" />
    <linearGradient
       inkscape:collect="always"
       xlink:href="#linearGradient4624"
       id="linearGradient6233"
       gradientUnits="userSpaceOnUse"
       x1="-681.93805"
       y1="457.1796"
       x2="-695.31689"
       y2="441.57166" />
    <linearGradient
       inkscape:collect="always"
       xlink:href="#linearGradient4632"
       id="linearGradient6235"
       gradientUnits="userSpaceOnUse"
       gradientTransform="translate(-27.398846,-21.132933)"
       x1="-663.11151"
       y1="473.92581"
       x2="-680.20764"
       y2="458.37943" />
    <linearGradient
       inkscape:collect="always"
       xlink:href="#linearGradient5525"
       id="linearGradient6237"
       gradientUnits="userSpaceOnUse"
       gradientTransform="translate(2.7597656e-5,7.2456405)"
       x1="-486.41757"
       y1="26.555626"
       x2="-96.480209"
       y2="101.52225" />
    <linearGradient
       inkscape:collect="always"
       xlink:href="#linearGradient5535"
       id="linearGradient6239"
       gradientUnits="userSpaceOnUse"
       gradientTransform="matrix(0.6481174,0,0,0.6190476,-129.98698,58.692816)"
       x1="-359.71414"
       y1="-32.017235"
       x2="-359.71414"
       y2="-22.466728" />
    <linearGradient
       inkscape:collect="always"
       xlink:href="#linearGradient5723"
       id="linearGradient6241"
       gradientUnits="userSpaceOnUse"
       gradientTransform="translate(14.665349,-178.89255)"
       x1="-470.47372"
       y1="300.75507"
       x2="-470.47372"
       y2="323.73615" />
    <linearGradient
       inkscape:collect="always"
       xlink:href="#linearGradient5723"
       id="linearGradient6243"
       gradientUnits="userSpaceOnUse"
       gradientTransform="matrix(-1,0,0,1,-754.07159,-178.89255)"
       x1="-470.47372"
       y1="300.75507"
       x2="-470.47372"
       y2="323.73615" />
    <linearGradient
       inkscape:collect="always"
       xlink:href="#linearGradient5672"
       id="linearGradient6245"
       gradientUnits="userSpaceOnUse"
       gradientTransform="translate(-1.451149,-3.7533159)"
       x1="-373.59213"
       y1="131.19017"
       x2="-373.59213"
       y2="125.11498" />
    <linearGradient
       inkscape:collect="always"
       xlink:href="#linearGradient5706"
       id="linearGradient6247"
       gradientUnits="userSpaceOnUse"
       gradientTransform="matrix(0.9948504,0,0,1,6.9070026,-158.79305)"
       x1="-383.47842"
       y1="297.90738"
       x2="-383.47842"
       y2="304.32761" />
    <linearGradient
       inkscape:collect="always"
       xlink:href="#linearGradient5776"
       id="linearGradient6249"
       gradientUnits="userSpaceOnUse"
       gradientTransform="translate(-0.518675,-20.31884)"
       x1="-369.18442"
       y1="167.06216"
       x2="-369.18442"
       y2="158.55563" />
    <linearGradient
       inkscape:collect="always"
       xlink:href="#linearGradient5751"
       id="linearGradient6251"
       gradientUnits="userSpaceOnUse"
       gradientTransform="matrix(1.0044311,0,0,1,2.0055026,0)"
       x1="-368.22568"
       y1="127.87754"
       x2="-368.22565"
       y2="136.1198" />
    <radialGradient
       inkscape:collect="always"
       xlink:href="#linearGradient5815"
       id="radialGradient6253"
       gradientUnits="userSpaceOnUse"
       gradientTransform="matrix(0.1586787,1.3808112,-0.8626669,0.09913505,-232.23164,705.44195)"
       cx="-419.05225"
       cy="139.48135"
       fx="-419.05225"
       fy="139.48135"
       r="3.7794306" />
    <linearGradient
       inkscape:collect="always"
       xlink:href="#linearGradient5840"
       id="linearGradient6255"
       gradientUnits="userSpaceOnUse"
       x1="-334.97208"
       y1="116.08986"
       x2="-316.22205"
       y2="116.08986" />
    <linearGradient
       inkscape:collect="always"
       xlink:href="#linearGradient5854"
       id="linearGradient6257"
       gradientUnits="userSpaceOnUse"
       gradientTransform="translate(0.04987479,0.03079907)"
       x1="-326.12881"
       y1="114.55989"
       x2="-326.12881"
       y2="117.69123" />
    <radialGradient
       inkscape:collect="always"
       xlink:href="#linearGradient6022"
       id="radialGradient6259"
       gradientUnits="userSpaceOnUse"
       gradientTransform="matrix(0.0572507,1.365961,-1.3321036,0.05583166,-964.06881,-197.67833)"
       cx="-240.27415"
       cy="-553.91229"
       fx="-240.27415"
       fy="-553.91229"
       r="9.103282" />
    <radialGradient
       inkscape:collect="always"
       xlink:href="#linearGradient6022"
       id="radialGradient6261"
       gradientUnits="userSpaceOnUse"
       gradientTransform="matrix(0.0572507,1.365961,-1.3321036,0.05583166,-987.60808,-161.06757)"
       cx="-240.27415"
       cy="-553.91229"
       fx="-240.27415"
       fy="-553.91229"
       r="9.103282" />
    <radialGradient
       inkscape:collect="always"
       xlink:href="#linearGradient6105"
       id="radialGradient6263"
       gradientUnits="userSpaceOnUse"
       gradientTransform="matrix(0.2709087,1.0015632,-0.965311,0.261103,-1314.6729,225.53766)"
       cx="-789.82904"
       cy="-765.36517"
       fx="-789.82904"
       fy="-765.36517"
       r="15.725936" />
    <radialGradient
       inkscape:collect="always"
       xlink:href="#linearGradient6091"
       id="radialGradient6265"
       gradientUnits="userSpaceOnUse"
       gradientTransform="matrix(0.01878949,0.7880054,-0.5468803,0.01304001,-1191.0206,-134.15185)"
       cx="-785.02863"
       cy="-770.26117"
       fx="-785.02863"
       fy="-770.26117"
       r="15.725936" />
    <radialGradient
       inkscape:collect="always"
       xlink:href="#linearGradient6105"
       id="radialGradient6267"
       gradientUnits="userSpaceOnUse"
       gradientTransform="matrix(0.2709087,1.0015632,-0.965311,0.261103,-1314.6729,225.53766)"
       cx="-789.82904"
       cy="-765.36517"
       fx="-789.82904"
       fy="-765.36517"
       r="15.725936" />
    <radialGradient
       inkscape:collect="always"
       xlink:href="#linearGradient6105"
       id="radialGradient6269"
       gradientUnits="userSpaceOnUse"
       gradientTransform="matrix(0.2709087,1.0015632,-0.965311,0.261103,-1314.6729,225.53766)"
       cx="-789.82904"
       cy="-765.36517"
       fx="-789.82904"
       fy="-765.36517"
       r="15.725936" />
  </defs>
  <sodipodi:namedview
     id="base"
     pagecolor="#ffffff"
     bordercolor="#666666"
     borderopacity="1.0"
     gridtolerance="10000"
     guidetolerance="10"
     objecttolerance="10"
     inkscape:pageopacity="0.0"
     inkscape:pageshadow="2"
     inkscape:zoom="1.2084211"
     inkscape:cx="475.00002"
     inkscape:cy="43.750003"
     inkscape:document-units="px"
     inkscape:current-layer="layer1"
     showgrid="false"
     inkscape:showpageshadow="false"
     showborder="false"
     showguides="true"
     inkscape:guide-bbox="true"
     inkscape:window-width="1280"
     inkscape:window-height="977"
     inkscape:window-x="-4"
     inkscape:window-y="-4"
     inkscape:window-maximized="1"
     fit-margin-top="0"
     fit-margin-left="0"
     fit-margin-right="0"
     fit-margin-bottom="0">
    <sodipodi:guide
       orientation="0,1"
       position="-361.73272,628.87403"
       id="guide4559" />
  </sodipodi:namedview>
  <metadata
     id="metadata7">
    <rdf:RDF>
      <cc:Work
         rdf:about="">
        <dc:format>image/svg+xml</dc:format>
        <dc:type
           rdf:resource="http://purl.org/dc/dcmitype/StillImage" />
        <dc:title>Black 1U mini-server</dc:title>
        <dc:date>01-AUG-11</dc:date>
        <dc:creator>
          <cc:Agent>
            <dc:title>Steve Burton</dc:title>
          </cc:Agent>
        </dc:creator>
        <cc:license
           rdf:resource="http://creativecommons.org/licenses/by/3.0/" />
      </cc:Work>
      <cc:License
         rdf:about="http://creativecommons.org/licenses/by/3.0/">
        <cc:permits
           rdf:resource="http://creativecommons.org/ns#Reproduction" />
        <cc:permits
           rdf:resource="http://creativecommons.org/ns#Distribution" />
        <cc:requires
           rdf:resource="http://creativecommons.org/ns#Notice" />
        <cc:requires
           rdf:resource="http://creativecommons.org/ns#Attribution" />
        <cc:permits
           rdf:resource="http://creativecommons.org/ns#DerivativeWorks" />
      </cc:License>
    </rdf:RDF>
  </metadata>
  <g
     inkscape:label="Layer 1"
     inkscape:groupmode="layer"
     id="layer1"
     transform="translate(1082.2412,-17.182255)">
    <g
       id="g6151">
      <g
         id="g5959">
        <g
           id="g5492"
           transform="translate(0,2.6959949)">
          <g
             transform="translate(0.0088,0)"
             id="g5171">
            <g
               id="g4829"
               transform="matrix(1,0,0,1.0057471,0,-0.5861232)">
              <g
                 transform="matrix(1,0,0,0.9942857,77.27018,-181.3259)"
                 id="g4030"
                 style="stroke:none">
                <path
                   style="fill:#000000;fill-opacity:1;fill-rule:evenodd;stroke:none"
                   d="m -1063.3636,197.44039 0,87.5 483.96875,0 0,-87.5 -483.96875,0 z"
                   id="path3996"
                   inkscape:connector-curvature="0" />
                <g
                   id="g4026"
                   style="stroke:none">
                  <rect
                     ry="8.500001"
                     rx="8.5"
                     y="249.94038"
                     x="-1034.4242"
                     height="35"
                     width="180"
                     id="rect4004"
                     style="fill:#999999;fill-opacity:1;fill-rule:evenodd;stroke:none" />
                  <path
                     id="rect4012"
                     d="m -854.42419,263.81539 0,12.625 c 0,4.709 -3.791,8.5 -8.5,8.5 l -163.00001,0 c -4.709,0 -8.5,-3.791 -8.5,-8.5 l 0,-12.625"
                     style="fill:#666666;fill-opacity:1;fill-rule:evenodd;stroke:none"
                     inkscape:connector-curvature="0" />
                </g>
              </g>
              <path
                 id="path4409"
                 d="m -986.09342,14.986256 0,87.000004 483.96873,0 0,-87.000004 -483.96873,0 z m 22.0937,9.228214 c 2.9309,-0.284027 6.5067,3.859917 4.4063,6.3075 l -2.1875,2.485714 -4.375,5.0025 -2.1563,2.454643 c -2.5691,2.862966 -8.774,-1.806617 -6.5312,-5.033571 0.0723,-0.104102 0.1597,-0.209954 0.25,-0.310715 l 2.1875,-2.454642 4.375,-5.0025 2.1875,-2.485715 c 0.529,-0.615492 1.1674,-0.89767 1.8437,-0.963214 z m 19.3438,0 c 2.9309,-0.284027 6.5066,3.859917 4.4062,6.3075 l -2.1562,2.485714 -4.375,5.0025 -2.1875,2.454643 c -2.5691,2.862966 -8.7427,-1.806617 -6.5,-5.033571 0.0723,-0.104102 0.1597,-0.209954 0.25,-0.310715 l 2.1562,-2.454642 4.4063,-5.0025 2.1562,-2.485715 c 0.529,-0.615492 1.1674,-0.89767 1.8438,-0.963214 z m 19.375,0 c 2.9309,-0.284027 6.5066,3.859917 4.4062,6.3075 l -2.1875,2.485714 -4.375,5.0025 -2.1562,2.454643 c -2.5691,2.862966 -8.774,-1.806617 -6.5313,-5.033571 0.0724,-0.104102 0.1597,-0.209954 0.25,-0.310715 l 2.1875,-2.454642 4.375,-5.0025 2.1875,-2.485715 c 0.529,-0.615492 1.1674,-0.89767 1.8438,-0.963214 z m 19.34373,0 c 2.93089,-0.284027 6.50666,3.859917 4.40625,6.3075 l -2.15625,2.485714 -4.375,5.0025 -2.1875,2.454643 c -2.56908,2.862966 -8.74273,-1.806617 -6.50003,-5.033571 0.0724,-0.104102 0.1597,-0.209954 0.25,-0.310715 l 2.15628,-2.454642 4.40625,-5.0025 2.15625,-2.485715 c 0.52899,-0.615492 1.16739,-0.89767 1.84375,-0.963214 z m 19.375,0 c 2.93089,-0.284027 6.50665,3.859917 4.40625,6.3075 l -2.1875,2.485714 -4.375,5.0025 -2.15625,2.454643 c -2.56908,2.862966 -8.77399,-1.806617 -6.53125,-5.033571 0.0724,-0.104102 0.1597,-0.209954 0.25,-0.310715 l 2.1875,-2.454642 4.375,-5.0025 2.1875,-2.485715 c 0.52899,-0.615492 1.16739,-0.89767 1.84375,-0.963214 z m 19.34375,0 c 2.93089,-0.284027 6.50665,3.859917 4.40625,6.3075 l -2.15625,2.485714 -4.375,5.0025 -2.1875,2.454643 c -2.56908,2.862966 -8.74268,-1.806617 -6.5,-5.033571 0.0724,-0.104102 0.1597,-0.209954 0.25,-0.310715 l 2.15625,-2.454642 4.40625,-5.0025 2.15625,-2.485715 c 0.52899,-0.615492 1.16739,-0.89767 1.84375,-0.963214 z m 19.375,0 c 2.93089,-0.284027 6.50665,3.859917 4.40625,6.3075 l -2.1875,2.485714 -4.375,5.0025 -2.15625,2.454643 c -2.56908,2.862966 -8.77393,-1.806617 -6.53125,-5.033571 0.0724,-0.104102 0.1597,-0.209954 0.25,-0.310715 l 2.1875,-2.454642 4.375,-5.0025 2.1875,-2.485715 c 0.52899,-0.615492 1.16739,-0.89767 1.84375,-0.963214 z m 19.34375,0 c 2.93089,-0.284027 6.50665,3.859917 4.40625,6.3075 l -2.15625,2.485714 -4.375,5.0025 -2.1875,2.454643 c -2.56908,2.862966 -8.74268,-1.806617 -6.5,-5.033571 0.0724,-0.104102 0.15969,-0.209954 0.25,-0.310715 l 2.15625,-2.454642 4.40625,-5.0025 2.15625,-2.485715 c 0.52899,-0.615492 1.16739,-0.89767 1.84375,-0.963214 z m 19.375,0 c 2.93089,-0.284027 6.50665,3.859917 4.40625,6.3075 l -2.1875,2.485714 -4.375,5.0025 -2.15625,2.454643 c -2.56908,2.862966 -8.77393,-1.806617 -6.53125,-5.033571 0.0724,-0.104102 0.15969,-0.209954 0.25,-0.310715 l 2.1875,-2.454642 4.375,-5.0025 2.1875,-2.485715 c 0.52899,-0.615492 1.16739,-0.89767 1.84375,-0.963214 z m 19.34375,0 c 2.93089,-0.284027 6.50665,3.859917 4.40625,6.3075 l -2.15625,2.485714 -4.375,5.0025 -2.1875,2.454643 c -2.56908,2.862966 -8.74268,-1.806617 -6.5,-5.033571 0.0724,-0.104102 0.15969,-0.209954 0.25,-0.310715 l 2.15625,-2.454642 4.40625,-5.0025 2.15625,-2.485715 c 0.52899,-0.615492 1.16739,-0.89767 1.84375,-0.963214 z m 19.375,0 c 2.93089,-0.284027 6.50665,3.859917 4.40625,6.3075 l -2.1875,2.485714 -4.375,5.0025 -2.15625,2.454643 c -2.56908,2.862966 -8.77393,-1.806617 -6.53125,-5.033571 0.0724,-0.104102 0.15969,-0.209954 0.25,-0.310715 l 2.1875,-2.454642 4.375,-5.0025 2.1875,-2.485715 c 0.52899,-0.615492 1.16739,-0.89767 1.84375,-0.963214 z m 19.34375,0 c 2.93089,-0.284027 6.50665,3.859917 4.40625,6.3075 l -2.15625,2.485714 -4.375,5.0025 -2.1875,2.454643 c -2.56908,2.862966 -8.74268,-1.806617 -6.5,-5.033571 0.0724,-0.104102 0.15969,-0.209954 0.25,-0.310715 l 2.15625,-2.454642 4.40625,-5.0025 2.15625,-2.485715 c 0.52899,-0.615492 1.16739,-0.89767 1.84375,-0.963214 z m 19.375,0 c 2.93089,-0.284027 6.50665,3.859917 4.40625,6.3075 l -2.1875,2.485714 -4.375,5.0025 -2.15625,2.454643 c -2.56908,2.862966 -8.77394,-1.806617 -6.53125,-5.033571 0.0724,-0.104102 0.15969,-0.209954 0.25,-0.310715 l 2.1875,-2.454642 4.375,-5.0025 2.1875,-2.485715 c 0.52899,-0.615492 1.16739,-0.89767 1.84375,-0.963214 z m 19.34375,0 c 2.93089,-0.284027 6.50665,3.859917 4.40625,6.3075 l -2.15625,2.485714 -4.375,5.0025 -2.1875,2.454643 c -2.56908,2.862966 -8.74269,-1.806617 -6.5,-5.033571 0.0724,-0.104102 0.15975,-0.209954 0.25,-0.310715 l 2.15625,-2.454642 4.40625,-5.0025 2.15625,-2.485715 c 0.52899,-0.615492 1.16739,-0.89767 1.84375,-0.963214 z m 19.375,0 c 2.93089,-0.284027 6.50666,3.859917 4.40625,6.3075 l -2.1875,2.485714 -4.375,5.0025 -2.15625,2.454643 c -2.56908,2.862966 -8.77399,-1.806617 -6.53125,-5.033571 0.0724,-0.104102 0.1597,-0.209954 0.25,-0.310715 l 2.1875,-2.454642 4.375,-5.0025 2.1875,-2.485715 c 0.52899,-0.615492 1.16739,-0.89767 1.84375,-0.963214 z m 19.34375,0 c 2.93089,-0.284027 6.50665,3.859917 4.40625,6.3075 l -2.15625,2.485714 -4.375,5.0025 -2.1875,2.454643 c -2.56908,2.862966 -8.74274,-1.806617 -6.5,-5.033571 0.0724,-0.104102 0.1597,-0.209954 0.25,-0.310715 l 2.15625,-2.454642 4.40625,-5.0025 2.15625,-2.485715 c 0.52899,-0.615492 1.16739,-0.89767 1.84375,-0.963214 z m 19.375,0 c 2.93089,-0.284027 6.50665,3.859917 4.40625,6.3075 l -2.1875,2.485714 -4.375,5.0025 -2.15625,2.454643 c -2.56908,2.862966 -8.77399,-1.806617 -6.53125,-5.033571 0.0724,-0.104102 0.1597,-0.209954 0.25,-0.310715 l 2.1875,-2.454642 4.375,-5.0025 2.15625,-2.485715 c 0.52899,-0.615492 1.19864,-0.89767 1.875,-0.963214 z m 19.34375,0 c 2.93089,-0.284027 6.50665,3.859917 4.40625,6.3075 l -2.15625,2.485714 -4.375,5.0025 -2.1875,2.454643 c -2.56908,2.862966 -8.74268,-1.806617 -6.5,-5.033571 0.0724,-0.104102 0.1597,-0.209954 0.25,-0.310715 l 2.15625,-2.454642 4.375,-5.0025 2.1875,-2.485715 c 0.52899,-0.615492 1.16739,-0.89767 1.84375,-0.963214 z m 19.375,0 c 2.93089,-0.284027 6.50665,3.859917 4.40625,6.3075 l -2.1875,2.485714 -4.375,5.0025 -2.15625,2.454643 c -2.56908,2.862966 -8.77393,-1.806617 -6.53125,-5.033571 0.0724,-0.104102 0.1597,-0.209954 0.25,-0.310715 l 2.1875,-2.454642 4.375,-5.0025 2.15625,-2.485715 c 0.52899,-0.615492 1.19864,-0.89767 1.875,-0.963214 z m 19.34375,0 c 2.93089,-0.284027 6.50665,3.859917 4.40625,6.3075 l -2.15625,2.485714 -4.375,5.0025 -2.1875,2.454643 c -2.56908,2.862966 -8.74268,-1.806617 -6.5,-5.033571 0.0724,-0.104102 0.15969,-0.209954 0.25,-0.310715 l 2.15625,-2.454642 4.375,-5.0025 2.1875,-2.485715 c 0.52899,-0.615492 1.16739,-0.89767 1.84375,-0.963214 z m 19.375,0 c 2.93089,-0.284027 6.50665,3.859917 4.40625,6.3075 l -2.1875,2.485714 -4.375,5.0025 -2.15625,2.454643 c -2.56908,2.862966 -8.77393,-1.806617 -6.53125,-5.033571 0.0724,-0.104102 0.15969,-0.209954 0.25,-0.310715 l 2.1875,-2.454642 4.375,-5.0025 2.15625,-2.485715 c 0.52899,-0.615492 1.19864,-0.89767 1.875,-0.963214 z m 19.34375,0 c 2.93089,-0.284027 6.50665,3.859917 4.40625,6.3075 l -2.15625,2.485714 -4.375,5.0025 -2.1875,2.454643 c -2.56908,2.862966 -8.74268,-1.806617 -6.5,-5.033571 0.0724,-0.104102 0.15969,-0.209954 0.25,-0.310715 l 2.15625,-2.454642 4.375,-5.0025 2.1875,-2.485715 c 0.52899,-0.615492 1.16739,-0.89767 1.84375,-0.963214 z m 19.375,0 c 2.93089,-0.284027 6.50665,3.859917 4.40625,6.3075 l -2.1875,2.485714 -4.375,5.0025 -2.15625,2.454643 c -2.56908,2.862966 -8.77393,-1.806617 -6.53125,-5.033571 0.0724,-0.104102 0.15969,-0.209954 0.25,-0.310715 l 2.1875,-2.454642 4.375,-5.0025 2.15625,-2.485715 c 0.52899,-0.615492 1.19864,-0.89767 1.875,-0.963214 z m 19.34375,0 c 2.93089,-0.284027 6.50665,3.859917 4.40625,6.3075 l -2.15625,2.485714 -4.375,5.0025 -2.1875,2.454643 c -2.56908,2.862966 -8.74269,-1.806617 -6.5,-5.033571 0.0724,-0.104102 0.15969,-0.209954 0.25,-0.310715 l 2.15625,-2.454642 4.375,-5.0025 2.1875,-2.485715 c 0.52899,-0.615492 1.16739,-0.89767 1.84375,-0.963214 z m -445.25003,24.608571 c 2.9309,-0.284037 6.5067,3.890988 4.4063,6.338572 l -2.1875,2.454642 -4.375,5.0025 -2.1563,2.485715 c -2.5691,2.862966 -8.774,-1.837679 -6.5312,-5.064643 0.0723,-0.104102 0.1597,-0.178882 0.25,-0.279643 l 2.1875,-2.485714 4.375,-5.0025 2.1875,-2.454643 c 0.529,-0.615503 1.1674,-0.928742 1.8437,-0.994286 z m 19.3438,0 c 2.9309,-0.284037 6.5066,3.890988 4.4062,6.338572 l -2.1562,2.454642 -4.375,5.0025 -2.1875,2.485715 c -2.5691,2.862966 -8.7427,-1.837679 -6.5,-5.064643 0.0723,-0.104102 0.1597,-0.178882 0.25,-0.279643 l 2.1562,-2.485714 4.4063,-5.0025 2.1562,-2.454643 c 0.529,-0.615503 1.1674,-0.928742 1.8438,-0.994286 z m 19.375,0 c 2.9309,-0.284037 6.5066,3.890988 4.4062,6.338572 l -2.1875,2.454642 -4.375,5.0025 -2.1562,2.485715 c -2.5691,2.862966 -8.774,-1.837679 -6.5313,-5.064643 0.0724,-0.104102 0.1597,-0.178882 0.25,-0.279643 l 2.1875,-2.485714 4.375,-5.0025 2.1875,-2.454643 c 0.529,-0.615503 1.1674,-0.928742 1.8438,-0.994286 z m 19.34373,0 c 2.93089,-0.284037 6.50666,3.890988 4.40625,6.338572 l -2.15625,2.454642 -4.375,5.0025 -2.1875,2.485715 c -2.56908,2.862966 -8.74273,-1.837679 -6.50003,-5.064643 0.0724,-0.104102 0.1597,-0.178882 0.25,-0.279643 l 2.15628,-2.485714 4.40625,-5.0025 2.15625,-2.454643 c 0.52899,-0.615503 1.16739,-0.928742 1.84375,-0.994286 z m 19.375,0 c 2.93089,-0.284037 6.50665,3.890988 4.40625,6.338572 l -2.1875,2.454642 -4.375,5.0025 -2.15625,2.485715 c -2.56908,2.862966 -8.77399,-1.837679 -6.53125,-5.064643 0.0724,-0.104102 0.1597,-0.178882 0.25,-0.279643 l 2.1875,-2.485714 4.375,-5.0025 2.1875,-2.454643 c 0.52899,-0.615503 1.16739,-0.928742 1.84375,-0.994286 z m 19.34375,0 c 2.93089,-0.284037 6.50665,3.890988 4.40625,6.338572 l -2.15625,2.454642 -4.375,5.0025 -2.1875,2.485715 c -2.56908,2.862966 -8.74268,-1.837679 -6.5,-5.064643 0.0724,-0.104102 0.1597,-0.178882 0.25,-0.279643 l 2.15625,-2.485714 4.40625,-5.0025 2.15625,-2.454643 c 0.52899,-0.615503 1.16739,-0.928742 1.84375,-0.994286 z m 19.375,0 c 2.93089,-0.284037 6.50665,3.890988 4.40625,6.338572 l -2.1875,2.454642 -4.375,5.0025 -2.15625,2.485715 c -2.56908,2.862966 -8.77393,-1.837679 -6.53125,-5.064643 0.0724,-0.104102 0.1597,-0.178882 0.25,-0.279643 l 2.1875,-2.485714 4.375,-5.0025 2.1875,-2.454643 c 0.52899,-0.615503 1.16739,-0.928742 1.84375,-0.994286 z m 19.34375,0 c 2.93089,-0.284037 6.50665,3.890988 4.40625,6.338572 l -2.15625,2.454642 -4.375,5.0025 -2.1875,2.485715 c -2.56908,2.862966 -8.74268,-1.837679 -6.5,-5.064643 0.0724,-0.104102 0.15969,-0.178882 0.25,-0.279643 l 2.15625,-2.485714 4.40625,-5.0025 2.15625,-2.454643 c 0.52899,-0.615503 1.16739,-0.928742 1.84375,-0.994286 z m 19.375,0 c 2.93089,-0.284037 6.50665,3.890988 4.40625,6.338572 l -2.1875,2.454642 -4.375,5.0025 -2.15625,2.485715 c -2.56908,2.862966 -8.77393,-1.837679 -6.53125,-5.064643 0.0724,-0.104102 0.15969,-0.178882 0.25,-0.279643 l 2.1875,-2.485714 4.375,-5.0025 2.1875,-2.454643 c 0.52899,-0.615503 1.16739,-0.928742 1.84375,-0.994286 z m 19.34375,0 c 2.93089,-0.284037 6.50665,3.890988 4.40625,6.338572 l -2.15625,2.454642 -4.375,5.0025 -2.1875,2.485715 c -2.56908,2.862966 -8.74268,-1.837679 -6.5,-5.064643 0.0724,-0.104102 0.15969,-0.178882 0.25,-0.279643 l 2.15625,-2.485714 4.40625,-5.0025 2.15625,-2.454643 c 0.52899,-0.615503 1.16739,-0.928742 1.84375,-0.994286 z m 19.375,0 c 2.93089,-0.284037 6.50665,3.890988 4.40625,6.338572 l -2.1875,2.454642 -4.375,5.0025 -2.15625,2.485715 c -2.56908,2.862966 -8.77393,-1.837679 -6.53125,-5.064643 0.0724,-0.104102 0.15969,-0.178882 0.25,-0.279643 l 2.1875,-2.485714 4.375,-5.0025 2.1875,-2.454643 c 0.52899,-0.615503 1.16739,-0.928742 1.84375,-0.994286 z m 19.34375,0 c 2.93089,-0.284037 6.50665,3.890988 4.40625,6.338572 l -2.15625,2.454642 -4.375,5.0025 -2.1875,2.485715 c -2.56908,2.862966 -8.74268,-1.837679 -6.5,-5.064643 0.0724,-0.104102 0.15969,-0.178882 0.25,-0.279643 l 2.15625,-2.485714 4.40625,-5.0025 2.15625,-2.454643 c 0.52899,-0.615503 1.16739,-0.928742 1.84375,-0.994286 z m 19.375,0 c 2.93089,-0.284037 6.50665,3.890988 4.40625,6.338572 l -2.1875,2.454642 -4.375,5.0025 -2.15625,2.485715 c -2.56908,2.862966 -8.77394,-1.837679 -6.53125,-5.064643 0.0724,-0.104102 0.15969,-0.178882 0.25,-0.279643 l 2.1875,-2.485714 4.375,-5.0025 2.1875,-2.454643 c 0.52899,-0.615503 1.16739,-0.928742 1.84375,-0.994286 z m 19.34375,0 c 2.93089,-0.284037 6.50665,3.890988 4.40625,6.338572 l -2.15625,2.454642 -4.375,5.0025 -2.1875,2.485715 c -2.56908,2.862966 -8.74269,-1.837679 -6.5,-5.064643 0.0724,-0.104102 0.15975,-0.178882 0.25,-0.279643 l 2.15625,-2.485714 4.40625,-5.0025 2.15625,-2.454643 c 0.52899,-0.615503 1.16739,-0.928742 1.84375,-0.994286 z m 19.375,0 c 2.93089,-0.284037 6.50666,3.890988 4.40625,6.338572 l -2.1875,2.454642 -4.375,5.0025 -2.15625,2.485715 c -2.56908,2.862966 -8.77399,-1.837679 -6.53125,-5.064643 0.0724,-0.104102 0.1597,-0.178882 0.25,-0.279643 l 2.1875,-2.485714 4.375,-5.0025 2.1875,-2.454643 c 0.52899,-0.615503 1.16739,-0.928742 1.84375,-0.994286 z m 19.34375,0 c 2.93089,-0.284037 6.50665,3.890988 4.40625,6.338572 l -2.15625,2.454642 -4.375,5.0025 -2.1875,2.485715 c -2.56908,2.862966 -8.74274,-1.837679 -6.5,-5.064643 0.0724,-0.104102 0.1597,-0.178882 0.25,-0.279643 l 2.15625,-2.485714 4.40625,-5.0025 2.15625,-2.454643 c 0.52899,-0.615503 1.16739,-0.928742 1.84375,-0.994286 z m 19.375,0 c 2.93089,-0.284037 6.50665,3.890988 4.40625,6.338572 l -2.1875,2.454642 -4.375,5.0025 -2.15625,2.485715 c -2.56908,2.862966 -8.77399,-1.837679 -6.53125,-5.064643 0.0724,-0.104102 0.1597,-0.178882 0.25,-0.279643 l 2.1875,-2.485714 4.375,-5.0025 2.15625,-2.454643 c 0.52899,-0.615503 1.19864,-0.928742 1.875,-0.994286 z m 19.34375,0 c 2.93089,-0.284037 6.50665,3.890988 4.40625,6.338572 l -2.15625,2.454642 -4.375,5.0025 -2.1875,2.485715 c -2.56908,2.862966 -8.74268,-1.837679 -6.5,-5.064643 0.0724,-0.104102 0.1597,-0.178882 0.25,-0.279643 l 2.15625,-2.485714 4.375,-5.0025 2.1875,-2.454643 c 0.52899,-0.615503 1.16739,-0.928742 1.84375,-0.994286 z m 19.375,0 c 2.93089,-0.284037 6.50665,3.890988 4.40625,6.338572 l -2.1875,2.454642 -4.375,5.0025 -2.15625,2.485715 c -2.56908,2.862966 -8.77393,-1.837679 -6.53125,-5.064643 0.0724,-0.104102 0.1597,-0.178882 0.25,-0.279643 l 2.1875,-2.485714 4.375,-5.0025 2.15625,-2.454643 c 0.52899,-0.615503 1.19864,-0.928742 1.875,-0.994286 z m 19.34375,0 c 2.93089,-0.284037 6.50665,3.890988 4.40625,6.338572 l -2.15625,2.454642 -4.375,5.0025 -2.1875,2.485715 c -2.56908,2.862966 -8.74268,-1.837679 -6.5,-5.064643 0.0724,-0.104102 0.15969,-0.178882 0.25,-0.279643 l 2.15625,-2.485714 4.375,-5.0025 2.1875,-2.454643 c 0.52899,-0.615503 1.16739,-0.928742 1.84375,-0.994286 z m 19.375,0 c 2.93089,-0.284037 6.50665,3.890988 4.40625,6.338572 l -2.1875,2.454642 -4.375,5.0025 -2.15625,2.485715 c -2.56908,2.862966 -8.77393,-1.837679 -6.53125,-5.064643 0.0724,-0.104102 0.15969,-0.178882 0.25,-0.279643 l 2.1875,-2.485714 4.375,-5.0025 2.15625,-2.454643 c 0.52899,-0.615503 1.19864,-0.928742 1.875,-0.994286 z m 19.34375,0 c 2.93089,-0.284037 6.50665,3.890988 4.40625,6.338572 l -2.15625,2.454642 -4.375,5.0025 -2.1875,2.485715 c -2.56908,2.862966 -8.74268,-1.837679 -6.5,-5.064643 0.0724,-0.104102 0.15969,-0.178882 0.25,-0.279643 l 2.15625,-2.485714 4.375,-5.0025 2.1875,-2.454643 c 0.52899,-0.615503 1.16739,-0.928742 1.84375,-0.994286 z m 19.375,0 c 2.93089,-0.284037 6.50665,3.890988 4.40625,6.338572 l -2.1875,2.454642 -4.375,5.0025 -2.15625,2.485715 c -2.56908,2.862966 -8.77393,-1.837679 -6.53125,-5.064643 0.0724,-0.104102 0.15969,-0.178882 0.25,-0.279643 l 2.1875,-2.485714 4.375,-5.0025 2.15625,-2.454643 c 0.52899,-0.615503 1.19864,-0.928742 1.875,-0.994286 z m 19.34375,0 c 2.93089,-0.284037 6.50665,3.890988 4.40625,6.338572 l -2.15625,2.454642 -4.375,5.0025 -2.1875,2.485715 c -2.56908,2.862966 -8.74269,-1.837679 -6.5,-5.064643 0.0724,-0.104102 0.15969,-0.178882 0.25,-0.279643 l 2.15625,-2.485714 4.375,-5.0025 2.1875,-2.454643 c 0.52899,-0.615503 1.16739,-0.928742 1.84375,-0.994286 z m -445.25003,24.639643 c 2.9309,-0.284038 6.5067,3.859926 4.4063,6.3075 l -2.1875,2.485714 -4.375,5.0025 -2.1563,2.454643 c -2.5691,2.862966 -8.774,-1.806617 -6.5312,-5.033572 0.0723,-0.104101 0.1597,-0.209943 0.25,-0.310714 l 2.1875,-2.454643 4.375,-5.0025 2.1875,-2.485714 c 0.529,-0.615503 1.1674,-0.897671 1.8437,-0.963214 z m 19.3438,0 c 2.9309,-0.284038 6.5066,3.859926 4.4062,6.3075 l -2.1562,2.485714 -4.375,5.0025 -2.1875,2.454643 c -2.5691,2.862966 -8.7427,-1.806617 -6.5,-5.033572 0.0723,-0.104101 0.1597,-0.209943 0.25,-0.310714 l 2.1562,-2.454643 4.4063,-5.0025 2.1562,-2.485714 c 0.529,-0.615503 1.1674,-0.897671 1.8438,-0.963214 z m 19.375,0 c 2.9309,-0.284038 6.5066,3.859926 4.4062,6.3075 l -2.1875,2.485714 -4.375,5.0025 -2.1562,2.454643 c -2.5691,2.862966 -8.774,-1.806617 -6.5313,-5.033572 0.0724,-0.104101 0.1597,-0.209943 0.25,-0.310714 l 2.1875,-2.454643 4.375,-5.0025 2.1875,-2.485714 c 0.529,-0.615503 1.1674,-0.897671 1.8438,-0.963214 z m 19.34373,0 c 2.93089,-0.284038 6.50666,3.859926 4.40625,6.3075 l -2.15625,2.485714 -4.375,5.0025 -2.1875,2.454643 c -2.56908,2.862966 -8.74273,-1.806617 -6.50003,-5.033572 0.0724,-0.104101 0.1597,-0.209943 0.25,-0.310714 l 2.15628,-2.454643 4.40625,-5.0025 2.15625,-2.485714 c 0.52899,-0.615503 1.16739,-0.897671 1.84375,-0.963214 z m 19.375,0 c 2.93089,-0.284038 6.50665,3.859926 4.40625,6.3075 l -2.1875,2.485714 -4.375,5.0025 -2.15625,2.454643 c -2.56908,2.862966 -8.77399,-1.806617 -6.53125,-5.033572 0.0724,-0.104101 0.1597,-0.209943 0.25,-0.310714 l 2.1875,-2.454643 4.375,-5.0025 2.1875,-2.485714 c 0.52899,-0.615503 1.16739,-0.897671 1.84375,-0.963214 z m 19.34375,0 c 2.93089,-0.284038 6.50665,3.859926 4.40625,6.3075 l -2.15625,2.485714 -4.375,5.0025 -2.1875,2.454643 c -2.56908,2.862966 -8.74268,-1.806617 -6.5,-5.033572 0.0724,-0.104101 0.1597,-0.209943 0.25,-0.310714 l 2.15625,-2.454643 4.40625,-5.0025 2.15625,-2.485714 c 0.52899,-0.615503 1.16739,-0.897671 1.84375,-0.963214 z m 19.375,0 c 2.93089,-0.284038 6.50665,3.859926 4.40625,6.3075 l -2.1875,2.485714 -4.375,5.0025 -2.15625,2.454643 c -2.56908,2.862966 -8.77393,-1.806617 -6.53125,-5.033572 0.0724,-0.104101 0.1597,-0.209943 0.25,-0.310714 l 2.1875,-2.454643 4.375,-5.0025 2.1875,-2.485714 c 0.52899,-0.615503 1.16739,-0.897671 1.84375,-0.963214 z m 19.34375,0 c 2.93089,-0.284038 6.50665,3.859926 4.40625,6.3075 l -2.15625,2.485714 -4.375,5.0025 -2.1875,2.454643 c -2.56908,2.862966 -8.74268,-1.806617 -6.5,-5.033572 0.0724,-0.104101 0.15969,-0.209943 0.25,-0.310714 l 2.15625,-2.454643 4.40625,-5.0025 2.15625,-2.485714 c 0.52899,-0.615503 1.16739,-0.897671 1.84375,-0.963214 z m 19.375,0 c 2.93089,-0.284038 6.50665,3.859926 4.40625,6.3075 l -2.1875,2.485714 -4.375,5.0025 -2.15625,2.454643 c -2.56908,2.862966 -8.77393,-1.806617 -6.53125,-5.033572 0.0724,-0.104101 0.15969,-0.209943 0.25,-0.310714 l 2.1875,-2.454643 4.375,-5.0025 2.1875,-2.485714 c 0.52899,-0.615503 1.16739,-0.897671 1.84375,-0.963214 z m 19.34375,0 c 2.93089,-0.284038 6.50665,3.859926 4.40625,6.3075 l -2.15625,2.485714 -4.375,5.0025 -2.1875,2.454643 c -2.56908,2.862966 -8.74268,-1.806617 -6.5,-5.033572 0.0724,-0.104101 0.15969,-0.209943 0.25,-0.310714 l 2.15625,-2.454643 4.40625,-5.0025 2.15625,-2.485714 c 0.52899,-0.615503 1.16739,-0.897671 1.84375,-0.963214 z m 19.375,0 c 2.93089,-0.284038 6.50665,3.859926 4.40625,6.3075 l -2.1875,2.485714 -4.375,5.0025 -2.15625,2.454643 c -2.56908,2.862966 -8.77393,-1.806617 -6.53125,-5.033572 0.0724,-0.104101 0.15969,-0.209943 0.25,-0.310714 l 2.1875,-2.454643 4.375,-5.0025 2.1875,-2.485714 c 0.52899,-0.615503 1.16739,-0.897671 1.84375,-0.963214 z m 19.34375,0 c 2.93089,-0.284038 6.50665,3.859926 4.40625,6.3075 l -2.15625,2.485714 -4.375,5.0025 -2.1875,2.454643 c -2.56908,2.862966 -8.74268,-1.806617 -6.5,-5.033572 0.0724,-0.104101 0.15969,-0.209943 0.25,-0.310714 l 2.15625,-2.454643 4.40625,-5.0025 2.15625,-2.485714 c 0.52899,-0.615503 1.16739,-0.897671 1.84375,-0.963214 z m 19.375,0 c 2.93089,-0.284038 6.50665,3.859926 4.40625,6.3075 l -2.1875,2.485714 -4.375,5.0025 -2.15625,2.454643 c -2.56908,2.862966 -8.77394,-1.806617 -6.53125,-5.033572 0.0724,-0.104101 0.15969,-0.209943 0.25,-0.310714 l 2.1875,-2.454643 4.375,-5.0025 2.1875,-2.485714 c 0.52899,-0.615503 1.16739,-0.897671 1.84375,-0.963214 z m 19.34375,0 c 2.93089,-0.284038 6.50665,3.859926 4.40625,6.3075 l -2.15625,2.485714 -4.375,5.0025 -2.1875,2.454643 c -2.56908,2.862966 -8.74269,-1.806617 -6.5,-5.033572 0.0724,-0.104101 0.15975,-0.209943 0.25,-0.310714 l 2.15625,-2.454643 4.40625,-5.0025 2.15625,-2.485714 c 0.52899,-0.615503 1.16739,-0.897671 1.84375,-0.963214 z m 19.375,0 c 2.93089,-0.284038 6.50666,3.859926 4.40625,6.3075 l -2.1875,2.485714 -4.375,5.0025 -2.15625,2.454643 c -2.56908,2.862966 -8.77399,-1.806617 -6.53125,-5.033572 0.0724,-0.104101 0.1597,-0.209943 0.25,-0.310714 l 2.1875,-2.454643 4.375,-5.0025 2.1875,-2.485714 c 0.52899,-0.615503 1.16739,-0.897671 1.84375,-0.963214 z m 19.34375,0 c 2.93089,-0.284038 6.50665,3.859926 4.40625,6.3075 l -2.15625,2.485714 -4.375,5.0025 -2.1875,2.454643 c -2.56908,2.862966 -8.74274,-1.806617 -6.5,-5.033572 0.0724,-0.104101 0.1597,-0.209943 0.25,-0.310714 l 2.15625,-2.454643 4.40625,-5.0025 2.15625,-2.485714 c 0.52899,-0.615503 1.16739,-0.897671 1.84375,-0.963214 z m 19.375,0 c 2.93089,-0.284038 6.50665,3.859926 4.40625,6.3075 l -2.1875,2.485714 -4.375,5.0025 -2.15625,2.454643 c -2.56908,2.862966 -8.77399,-1.806617 -6.53125,-5.033572 0.0724,-0.104101 0.1597,-0.209943 0.25,-0.310714 l 2.1875,-2.454643 4.375,-5.0025 2.15625,-2.485714 c 0.52899,-0.615503 1.19864,-0.897671 1.875,-0.963214 z m 19.34375,0 c 2.93089,-0.284038 6.50665,3.859926 4.40625,6.3075 l -2.15625,2.485714 -4.375,5.0025 -2.1875,2.454643 c -2.56908,2.862966 -8.74268,-1.806617 -6.5,-5.033572 0.0724,-0.104101 0.1597,-0.209943 0.25,-0.310714 l 2.15625,-2.454643 4.375,-5.0025 2.1875,-2.485714 c 0.52899,-0.615503 1.16739,-0.897671 1.84375,-0.963214 z m 19.375,0 c 2.93089,-0.284038 6.50665,3.859926 4.40625,6.3075 l -2.1875,2.485714 -4.375,5.0025 -2.15625,2.454643 c -2.56908,2.862966 -8.77393,-1.806617 -6.53125,-5.033572 0.0724,-0.104101 0.1597,-0.209943 0.25,-0.310714 l 2.1875,-2.454643 4.375,-5.0025 2.15625,-2.485714 c 0.52899,-0.615503 1.19864,-0.897671 1.875,-0.963214 z m 19.34375,0 c 2.93089,-0.284038 6.50665,3.859926 4.40625,6.3075 l -2.15625,2.485714 -4.375,5.0025 -2.1875,2.454643 c -2.56908,2.862966 -8.74268,-1.806617 -6.5,-5.033572 0.0724,-0.104101 0.15969,-0.209943 0.25,-0.310714 l 2.15625,-2.454643 4.375,-5.0025 2.1875,-2.485714 c 0.52899,-0.615503 1.16739,-0.897671 1.84375,-0.963214 z m 19.375,0 c 2.93089,-0.284038 6.50665,3.859926 4.40625,6.3075 l -2.1875,2.485714 -4.375,5.0025 -2.15625,2.454643 c -2.56908,2.862966 -8.77393,-1.806617 -6.53125,-5.033572 0.0724,-0.104101 0.15969,-0.209943 0.25,-0.310714 l 2.1875,-2.454643 4.375,-5.0025 2.15625,-2.485714 c 0.52899,-0.615503 1.19864,-0.897671 1.875,-0.963214 z m 19.34375,0 c 2.93089,-0.284038 6.50665,3.859926 4.40625,6.3075 l -2.15625,2.485714 -4.375,5.0025 -2.1875,2.454643 c -2.56908,2.862966 -8.74268,-1.806617 -6.5,-5.033572 0.0724,-0.104101 0.15969,-0.209943 0.25,-0.310714 l 2.15625,-2.454643 4.375,-5.0025 2.1875,-2.485714 c 0.52899,-0.615503 1.16739,-0.897671 1.84375,-0.963214 z m 19.375,0 c 2.93089,-0.284038 6.50665,3.859926 4.40625,6.3075 l -2.1875,2.485714 -4.375,5.0025 -2.15625,2.454643 c -2.56908,2.862966 -8.77393,-1.806617 -6.53125,-5.033572 0.0724,-0.104101 0.15969,-0.209943 0.25,-0.310714 l 2.1875,-2.454643 4.375,-5.0025 2.15625,-2.485714 c 0.52899,-0.615503 1.19864,-0.897671 1.875,-0.963214 z m 19.34375,0 c 2.93089,-0.284038 6.50665,3.859926 4.40625,6.3075 l -2.15625,2.485714 -4.375,5.0025 -2.1875,2.454643 c -2.56908,2.862966 -8.74269,-1.806617 -6.5,-5.033572 0.0724,-0.104101 0.15969,-0.209943 0.25,-0.310714 l 2.15625,-2.454643 4.375,-5.0025 2.1875,-2.485714 c 0.52899,-0.615503 1.16739,-0.897671 1.84375,-0.963214 z"
                 style="fill:#999999;fill-opacity:1;fill-rule:evenodd;stroke:none"
                 inkscape:connector-curvature="0" />
            </g>
            <path
               style="fill:url(#linearGradient6215);fill-opacity:1;fill-rule:evenodd;stroke:none"
               d="m -1082.25,14.486261 0,87.499999 950,0 0,-87.499999 -950,0 z m 118.65625,10.375 c 2.9309,-0.28565 6.50667,3.8821 4.40625,6.34375 l -2.1875,2.5 -4.375,5.03125 -2.15625,2.46875 c -2.56907,2.87943 -8.77398,-1.817 -6.53125,-5.0625 0.0724,-0.10469 0.15971,-0.21116 0.25,-0.3125 l 2.1875,-2.46875 4.375,-5.03125 2.1875,-2.5 c 0.529,-0.61902 1.16739,-0.90283 1.84375,-0.96875 z m 19.34375,0 c 2.9309,-0.28565 6.50665,3.8821 4.40625,6.34375 l -2.15625,2.5 -4.375,5.03125 -2.1875,2.46875 c -2.56907,2.87943 -8.74269,-1.817 -6.5,-5.0625 0.0724,-0.10469 0.15969,-0.21116 0.25,-0.3125 l 2.15625,-2.46875 4.40625,-5.03125 2.15625,-2.5 c 0.529,-0.61902 1.16739,-0.90283 1.84375,-0.96875 z m 19.375,0 c 2.9309,-0.28565 6.50666,3.8821 4.40625,6.34375 l -2.1875,2.5 -4.375,5.03125 -2.15625,2.46875 c -2.56907,2.87943 -8.77399,-1.817 -6.53125,-5.0625 0.0724,-0.10469 0.1597,-0.21116 0.25,-0.3125 l 2.1875,-2.46875 4.375,-5.03125 2.1875,-2.5 c 0.529,-0.61902 1.16739,-0.90283 1.84375,-0.96875 z m 19.34375,0 c 2.9309,-0.28565 6.50666,3.8821 4.40625,6.34375 l -2.15625,2.5 -4.375,5.03125 -2.1875,2.46875 c -2.56907,2.87943 -8.74274,-1.817 -6.5,-5.0625 0.0724,-0.10469 0.1597,-0.21116 0.25,-0.3125 l 2.15625,-2.46875 4.40625,-5.03125 2.15625,-2.5 c 0.529,-0.61902 1.16739,-0.90283 1.84375,-0.96875 z m 19.375,0 c 2.9309,-0.28565 6.50665,3.8821 4.40625,6.34375 l -2.1875,2.5 -4.375,5.03125 -2.15625,2.46875 c -2.56907,2.87943 -8.77399,-1.817 -6.53125,-5.0625 0.0724,-0.10469 0.1597,-0.21116 0.25,-0.3125 l 2.1875,-2.46875 4.375,-5.03125 2.1875,-2.5 c 0.529,-0.61902 1.16739,-0.90283 1.84375,-0.96875 z m 19.34375,0 c 2.9309,-0.28565 6.50665,3.8821 4.40625,6.34375 l -2.15625,2.5 -4.375,5.03125 -2.1875,2.46875 c -2.56907,2.87943 -8.74268,-1.817 -6.5,-5.0625 0.0724,-0.10469 0.1597,-0.21116 0.25,-0.3125 l 2.15625,-2.46875 4.40625,-5.03125 2.15625,-2.5 c 0.529,-0.61902 1.16739,-0.90283 1.84375,-0.96875 z m 19.375,0 c 2.9309,-0.28565 6.50665,3.8821 4.40625,6.34375 l -2.1875,2.5 -4.375,5.03125 -2.15625,2.46875 c -2.56907,2.87943 -8.77393,-1.817 -6.53125,-5.0625 0.0724,-0.10469 0.1597,-0.21116 0.25,-0.3125 l 2.1875,-2.46875 4.375,-5.03125 2.1875,-2.5 c 0.529,-0.61902 1.16739,-0.90283 1.84375,-0.96875 z m 19.34375,0 c 2.9309,-0.28565 6.50665,3.8821 4.40625,6.34375 l -2.15625,2.5 -4.375,5.03125 -2.1875,2.46875 c -2.56907,2.87943 -8.74268,-1.817 -6.5,-5.0625 0.0724,-0.10469 0.15969,-0.21116 0.25,-0.3125 l 2.15625,-2.46875 4.40625,-5.03125 2.15625,-2.5 c 0.529,-0.61902 1.16739,-0.90283 1.84375,-0.96875 z m 19.375,0 c 2.9309,-0.28565 6.50665,3.8821 4.40625,6.34375 l -2.1875,2.5 -4.375,5.03125 -2.15625,2.46875 c -2.56907,2.87943 -8.77393,-1.817 -6.53125,-5.0625 0.0724,-0.10469 0.15969,-0.21116 0.25,-0.3125 l 2.1875,-2.46875 4.375,-5.03125 2.1875,-2.5 c 0.529,-0.61902 1.16739,-0.90283 1.84375,-0.96875 z m 19.34375,0 c 2.9309,-0.28565 6.50665,3.8821 4.40625,6.34375 l -2.15625,2.5 -4.375,5.03125 -2.1875,2.46875 c -2.56907,2.87943 -8.74268,-1.817 -6.5,-5.0625 0.0724,-0.10469 0.15969,-0.21116 0.25,-0.3125 l 2.15625,-2.46875 4.40625,-5.03125 2.15625,-2.5 c 0.529,-0.61902 1.16739,-0.90283 1.84375,-0.96875 z m 19.375,0 c 2.9309,-0.28565 6.50665,3.8821 4.40625,6.34375 l -2.1875,2.5 -4.375,5.03125 -2.15625,2.46875 c -2.56907,2.87943 -8.77393,-1.817 -6.53125,-5.0625 0.0724,-0.10469 0.15969,-0.21116 0.25,-0.3125 l 2.1875,-2.46875 4.375,-5.03125 2.1875,-2.5 c 0.529,-0.61902 1.16739,-0.90283 1.84375,-0.96875 z m 19.34375,0 c 2.9309,-0.28565 6.50665,3.8821 4.40625,6.34375 l -2.15625,2.5 -4.375,5.03125 -2.1875,2.46875 c -2.56907,2.87943 -8.74268,-1.817 -6.5,-5.0625 0.0724,-0.10469 0.15969,-0.21116 0.25,-0.3125 l 2.15625,-2.46875 4.40625,-5.03125 2.15625,-2.5 c 0.529,-0.61902 1.16739,-0.90283 1.84375,-0.96875 z m 19.375,0 c 2.9309,-0.28565 6.50665,3.8821 4.40625,6.34375 l -2.1875,2.5 -4.375,5.03125 -2.15625,2.46875 c -2.56907,2.87943 -8.77394,-1.817 -6.53125,-5.0625 0.0724,-0.10469 0.15969,-0.21116 0.25,-0.3125 l 2.1875,-2.46875 4.375,-5.03125 2.1875,-2.5 c 0.529,-0.61902 1.16739,-0.90283 1.84375,-0.96875 z m 19.34375,0 c 2.9309,-0.28565 6.50665,3.8821 4.40625,6.34375 l -2.15625,2.5 -4.375,5.03125 -2.1875,2.46875 c -2.56906,2.87943 -8.74269,-1.817 -6.5,-5.0625 0.0724,-0.10469 0.15976,-0.21116 0.25,-0.3125 l 2.15625,-2.46875 4.40625,-5.03125 2.15625,-2.5 c 0.52901,-0.61902 1.16739,-0.90283 1.84375,-0.96875 z m 19.375,0 c 2.9309,-0.28565 6.50667,3.8821 4.40625,6.34375 l -2.1875,2.5 -4.375,5.03125 -2.15625,2.46875 c -2.56906,2.87943 -8.77399,-1.817 -6.53125,-5.0625 0.0724,-0.10469 0.15971,-0.21116 0.25,-0.3125 l 2.1875,-2.46875 4.375,-5.03125 2.1875,-2.5 c 0.52901,-0.61902 1.16739,-0.90283 1.84375,-0.96875 z m 19.34375,0 c 2.9309,-0.28565 6.50666,3.8821 4.40625,6.34375 l -2.15625,2.5 -4.375,5.03125 -2.1875,2.46875 c -2.56906,2.87943 -8.74274,-1.817 -6.5,-5.0625 0.0724,-0.10469 0.15971,-0.21116 0.25,-0.3125 l 2.15625,-2.46875 4.40625,-5.03125 2.15625,-2.5 c 0.52901,-0.61902 1.16739,-0.90283 1.84375,-0.96875 z m 19.375,0 c 2.93091,-0.28565 6.50665,3.8821 4.40625,6.34375 l -2.1875,2.5 -4.375,5.03125 -2.15625,2.46875 c -2.56906,2.87943 -8.77399,-1.817 -6.53125,-5.0625 0.0724,-0.10469 0.15971,-0.21116 0.25,-0.3125 l 2.1875,-2.46875 4.375,-5.03125 2.15625,-2.5 c 0.52901,-0.61902 1.19864,-0.90283 1.875,-0.96875 z m 19.34375,0 c 2.93091,-0.28565 6.50665,3.8821 4.40625,6.34375 l -2.15625,2.5 -4.375,5.03125 -2.1875,2.46875 c -2.56906,2.87943 -8.74268,-1.817 -6.5,-5.0625 0.0724,-0.10469 0.1597,-0.21116 0.25,-0.3125 l 2.15625,-2.46875 4.375,-5.03125 2.1875,-2.5 c 0.52901,-0.61902 1.16739,-0.90283 1.84375,-0.96875 z m 19.375,0 c 2.93091,-0.28565 6.50665,3.8821 4.40625,6.34375 l -2.1875,2.5 -4.375,5.03125 -2.15625,2.46875 c -2.56906,2.87943 -8.77393,-1.817 -6.53125,-5.0625 0.0724,-0.10469 0.1597,-0.21116 0.25,-0.3125 l 2.1875,-2.46875 4.375,-5.03125 2.15625,-2.5 c 0.52901,-0.61902 1.19864,-0.90283 1.875,-0.96875 z m 19.34375,0 c 2.93091,-0.28565 6.50665,3.8821 4.40625,6.34375 l -2.15625,2.5 -4.375,5.03125 -2.1875,2.46875 c -2.56906,2.87943 -8.74268,-1.817 -6.5,-5.0625 0.0724,-0.10469 0.15969,-0.21116 0.25,-0.3125 l 2.15625,-2.46875 4.375,-5.03125 2.1875,-2.5 c 0.52901,-0.61902 1.16739,-0.90283 1.84375,-0.96875 z m 19.375,0 c 2.93091,-0.28565 6.50665,3.8821 4.40625,6.34375 l -2.1875,2.5 -4.375,5.03125 -2.15625,2.46875 c -2.56906,2.87943 -8.77393,-1.817 -6.53125,-5.0625 0.0724,-0.10469 0.15969,-0.21116 0.25,-0.3125 l 2.1875,-2.46875 4.375,-5.03125 2.15625,-2.5 c 0.52901,-0.61902 1.19864,-0.90283 1.875,-0.96875 z m 19.34375,0 c 2.93091,-0.28565 6.50665,3.8821 4.40625,6.34375 l -2.15625,2.5 -4.375,5.03125 -2.1875,2.46875 c -2.56906,2.87943 -8.74268,-1.817 -6.5,-5.0625 0.0724,-0.10469 0.15969,-0.21116 0.25,-0.3125 l 2.15625,-2.46875 4.375,-5.03125 2.1875,-2.5 c 0.52901,-0.61902 1.16739,-0.90283 1.84375,-0.96875 z m 19.375,0 c 2.93091,-0.28565 6.50665,3.8821 4.40625,6.34375 l -2.1875,2.5 -4.375,5.03125 -2.15625,2.46875 c -2.56906,2.87943 -8.77393,-1.817 -6.53125,-5.0625 0.0724,-0.10469 0.15969,-0.21116 0.25,-0.3125 l 2.1875,-2.46875 4.375,-5.03125 2.15625,-2.5 c 0.52901,-0.61902 1.19864,-0.90283 1.875,-0.96875 z m 19.34375,0 c 2.93091,-0.28565 6.50665,3.8821 4.40625,6.34375 l -2.15625,2.5 -4.375,5.03125 -2.1875,2.46875 c -2.56906,2.87943 -8.74269,-1.817 -6.5,-5.0625 0.0724,-0.10469 0.15969,-0.21116 0.25,-0.3125 l 2.15625,-2.46875 4.375,-5.03125 2.1875,-2.5 c 0.52901,-0.61902 1.16739,-0.90283 1.84375,-0.96875 z m -445.25,24.75 c 2.9309,-0.28566 6.50667,3.91335 4.40625,6.375 l -2.1875,2.46875 -4.375,5.03125 -2.15625,2.5 c -2.56907,2.87943 -8.77398,-1.84824 -6.53125,-5.09375 0.0724,-0.10469 0.15971,-0.17991 0.25,-0.28125 l 2.1875,-2.5 4.375,-5.03125 2.1875,-2.46875 c 0.529,-0.61903 1.16739,-0.93408 1.84375,-1 z m 19.34375,0 c 2.9309,-0.28566 6.50665,3.91335 4.40625,6.375 l -2.15625,2.46875 -4.375,5.03125 -2.1875,2.5 c -2.56907,2.87943 -8.74269,-1.84824 -6.5,-5.09375 0.0724,-0.10469 0.15969,-0.17991 0.25,-0.28125 l 2.15625,-2.5 4.40625,-5.03125 2.15625,-2.46875 c 0.529,-0.61903 1.16739,-0.93408 1.84375,-1 z m 19.375,0 c 2.9309,-0.28566 6.50666,3.91335 4.40625,6.375 l -2.1875,2.46875 -4.375,5.03125 -2.15625,2.5 c -2.56907,2.87943 -8.77399,-1.84824 -6.53125,-5.09375 0.0724,-0.10469 0.1597,-0.17991 0.25,-0.28125 l 2.1875,-2.5 4.375,-5.03125 2.1875,-2.46875 c 0.529,-0.61903 1.16739,-0.93408 1.84375,-1 z m 19.34375,0 c 2.9309,-0.28566 6.50666,3.91335 4.40625,6.375 l -2.15625,2.46875 -4.375,5.03125 -2.1875,2.5 c -2.56907,2.87943 -8.74274,-1.84824 -6.5,-5.09375 0.0724,-0.10469 0.1597,-0.17991 0.25,-0.28125 l 2.15625,-2.5 4.40625,-5.03125 2.15625,-2.46875 c 0.529,-0.61903 1.16739,-0.93408 1.84375,-1 z m 19.375,0 c 2.9309,-0.28566 6.50665,3.91335 4.40625,6.375 l -2.1875,2.46875 -4.375,5.03125 -2.15625,2.5 c -2.56907,2.87943 -8.77399,-1.84824 -6.53125,-5.09375 0.0724,-0.10469 0.1597,-0.17991 0.25,-0.28125 l 2.1875,-2.5 4.375,-5.03125 2.1875,-2.46875 c 0.529,-0.61903 1.16739,-0.93408 1.84375,-1 z m 19.34375,0 c 2.9309,-0.28566 6.50665,3.91335 4.40625,6.375 l -2.15625,2.46875 -4.375,5.03125 -2.1875,2.5 c -2.56907,2.87943 -8.74268,-1.84824 -6.5,-5.09375 0.0724,-0.10469 0.1597,-0.17991 0.25,-0.28125 l 2.15625,-2.5 4.40625,-5.03125 2.15625,-2.46875 c 0.529,-0.61903 1.16739,-0.93408 1.84375,-1 z m 19.375,0 c 2.9309,-0.28566 6.50665,3.91335 4.40625,6.375 l -2.1875,2.46875 -4.375,5.03125 -2.15625,2.5 c -2.56907,2.87943 -8.77393,-1.84824 -6.53125,-5.09375 0.0724,-0.10469 0.1597,-0.17991 0.25,-0.28125 l 2.1875,-2.5 4.375,-5.03125 2.1875,-2.46875 c 0.529,-0.61903 1.16739,-0.93408 1.84375,-1 z m 19.34375,0 c 2.9309,-0.28566 6.50665,3.91335 4.40625,6.375 l -2.15625,2.46875 -4.375,5.03125 -2.1875,2.5 c -2.56907,2.87943 -8.74268,-1.84824 -6.5,-5.09375 0.0724,-0.10469 0.15969,-0.17991 0.25,-0.28125 l 2.15625,-2.5 4.40625,-5.03125 2.15625,-2.46875 c 0.529,-0.61903 1.16739,-0.93408 1.84375,-1 z m 19.375,0 c 2.9309,-0.28566 6.50665,3.91335 4.40625,6.375 l -2.1875,2.46875 -4.375,5.03125 -2.15625,2.5 c -2.56907,2.87943 -8.77393,-1.84824 -6.53125,-5.09375 0.0724,-0.10469 0.15969,-0.17991 0.25,-0.28125 l 2.1875,-2.5 4.375,-5.03125 2.1875,-2.46875 c 0.529,-0.61903 1.16739,-0.93408 1.84375,-1 z m 19.34375,0 c 2.9309,-0.28566 6.50665,3.91335 4.40625,6.375 l -2.15625,2.46875 -4.375,5.03125 -2.1875,2.5 c -2.56907,2.87943 -8.74268,-1.84824 -6.5,-5.09375 0.0724,-0.10469 0.15969,-0.17991 0.25,-0.28125 l 2.15625,-2.5 4.40625,-5.03125 2.15625,-2.46875 c 0.529,-0.61903 1.16739,-0.93408 1.84375,-1 z m 19.375,0 c 2.9309,-0.28566 6.50665,3.91335 4.40625,6.375 l -2.1875,2.46875 -4.375,5.03125 -2.15625,2.5 c -2.56907,2.87943 -8.77393,-1.84824 -6.53125,-5.09375 0.0724,-0.10469 0.15969,-0.17991 0.25,-0.28125 l 2.1875,-2.5 4.375,-5.03125 2.1875,-2.46875 c 0.529,-0.61903 1.16739,-0.93408 1.84375,-1 z m 19.34375,0 c 2.9309,-0.28566 6.50665,3.91335 4.40625,6.375 l -2.15625,2.46875 -4.375,5.03125 -2.1875,2.5 c -2.56907,2.87943 -8.74268,-1.84824 -6.5,-5.09375 0.0724,-0.10469 0.15969,-0.17991 0.25,-0.28125 l 2.15625,-2.5 4.40625,-5.03125 2.15625,-2.46875 c 0.529,-0.61903 1.16739,-0.93408 1.84375,-1 z m 19.375,0 c 2.9309,-0.28566 6.50665,3.91335 4.40625,6.375 l -2.1875,2.46875 -4.375,5.03125 -2.15625,2.5 c -2.56907,2.87943 -8.77394,-1.84824 -6.53125,-5.09375 0.0724,-0.10469 0.15969,-0.17991 0.25,-0.28125 l 2.1875,-2.5 4.375,-5.03125 2.1875,-2.46875 c 0.529,-0.61903 1.16739,-0.93408 1.84375,-1 z m 19.34375,0 c 2.9309,-0.28566 6.50665,3.91335 4.40625,6.375 l -2.15625,2.46875 -4.375,5.03125 -2.1875,2.5 c -2.56906,2.87943 -8.74269,-1.84824 -6.5,-5.09375 0.0724,-0.10469 0.15976,-0.17991 0.25,-0.28125 l 2.15625,-2.5 4.40625,-5.03125 2.15625,-2.46875 c 0.52901,-0.61903 1.16739,-0.93408 1.84375,-1 z m 19.375,0 c 2.9309,-0.28566 6.50667,3.91335 4.40625,6.375 l -2.1875,2.46875 -4.375,5.03125 -2.15625,2.5 c -2.56906,2.87943 -8.77399,-1.84824 -6.53125,-5.09375 0.0724,-0.10469 0.15971,-0.17991 0.25,-0.28125 l 2.1875,-2.5 4.375,-5.03125 2.1875,-2.46875 c 0.52901,-0.61903 1.16739,-0.93408 1.84375,-1 z m 19.34375,0 c 2.9309,-0.28566 6.50666,3.91335 4.40625,6.375 l -2.15625,2.46875 -4.375,5.03125 -2.1875,2.5 c -2.56906,2.87943 -8.74274,-1.84824 -6.5,-5.09375 0.0724,-0.10469 0.15971,-0.17991 0.25,-0.28125 l 2.15625,-2.5 4.40625,-5.03125 2.15625,-2.46875 c 0.52901,-0.61903 1.16739,-0.93408 1.84375,-1 z m 19.375,0 c 2.93091,-0.28566 6.50665,3.91335 4.40625,6.375 l -2.1875,2.46875 -4.375,5.03125 -2.15625,2.5 c -2.56906,2.87943 -8.77399,-1.84824 -6.53125,-5.09375 0.0724,-0.10469 0.15971,-0.17991 0.25,-0.28125 l 2.1875,-2.5 4.375,-5.03125 2.15625,-2.46875 c 0.52901,-0.61903 1.19864,-0.93408 1.875,-1 z m 19.34375,0 c 2.93091,-0.28566 6.50665,3.91335 4.40625,6.375 l -2.15625,2.46875 -4.375,5.03125 -2.1875,2.5 c -2.56906,2.87943 -8.74268,-1.84824 -6.5,-5.09375 0.0724,-0.10469 0.1597,-0.17991 0.25,-0.28125 l 2.15625,-2.5 4.375,-5.03125 2.1875,-2.46875 c 0.52901,-0.61903 1.16739,-0.93408 1.84375,-1 z m 19.375,0 c 2.93091,-0.28566 6.50665,3.91335 4.40625,6.375 l -2.1875,2.46875 -4.375,5.03125 -2.15625,2.5 c -2.56906,2.87943 -8.77393,-1.84824 -6.53125,-5.09375 0.0724,-0.10469 0.1597,-0.17991 0.25,-0.28125 l 2.1875,-2.5 4.375,-5.03125 2.15625,-2.46875 c 0.52901,-0.61903 1.19864,-0.93408 1.875,-1 z m 19.34375,0 c 2.93091,-0.28566 6.50665,3.91335 4.40625,6.375 l -2.15625,2.46875 -4.375,5.03125 -2.1875,2.5 c -2.56906,2.87943 -8.74268,-1.84824 -6.5,-5.09375 0.0724,-0.10469 0.15969,-0.17991 0.25,-0.28125 l 2.15625,-2.5 4.375,-5.03125 2.1875,-2.46875 c 0.52901,-0.61903 1.16739,-0.93408 1.84375,-1 z m 19.375,0 c 2.93091,-0.28566 6.50665,3.91335 4.40625,6.375 l -2.1875,2.46875 -4.375,5.03125 -2.15625,2.5 c -2.56906,2.87943 -8.77393,-1.84824 -6.53125,-5.09375 0.0724,-0.10469 0.15969,-0.17991 0.25,-0.28125 l 2.1875,-2.5 4.375,-5.03125 2.15625,-2.46875 c 0.52901,-0.61903 1.19864,-0.93408 1.875,-1 z m 19.34375,0 c 2.93091,-0.28566 6.50665,3.91335 4.40625,6.375 l -2.15625,2.46875 -4.375,5.03125 -2.1875,2.5 c -2.56906,2.87943 -8.74268,-1.84824 -6.5,-5.09375 0.0724,-0.10469 0.15969,-0.17991 0.25,-0.28125 l 2.15625,-2.5 4.375,-5.03125 2.1875,-2.46875 c 0.52901,-0.61903 1.16739,-0.93408 1.84375,-1 z m 19.375,0 c 2.93091,-0.28566 6.50665,3.91335 4.40625,6.375 l -2.1875,2.46875 -4.375,5.03125 -2.15625,2.5 c -2.56906,2.87943 -8.77393,-1.84824 -6.53125,-5.09375 0.0724,-0.10469 0.15969,-0.17991 0.25,-0.28125 l 2.1875,-2.5 4.375,-5.03125 2.15625,-2.46875 c 0.52901,-0.61903 1.19864,-0.93408 1.875,-1 z m 19.34375,0 c 2.93091,-0.28566 6.50665,3.91335 4.40625,6.375 l -2.15625,2.46875 -4.375,5.03125 -2.1875,2.5 c -2.56906,2.87943 -8.74269,-1.84824 -6.5,-5.09375 0.0724,-0.10469 0.15969,-0.17991 0.25,-0.28125 l 2.15625,-2.5 4.375,-5.03125 2.1875,-2.46875 c 0.52901,-0.61903 1.16739,-0.93408 1.84375,-1 z m -445.25,24.78125 c 2.9309,-0.28566 6.50667,3.88211 4.40625,6.34375 l -2.1875,2.5 -4.375,5.03125 -2.15625,2.46875 c -2.56907,2.87943 -8.77398,-1.817 -6.53125,-5.0625 0.0724,-0.10469 0.15971,-0.21115 0.25,-0.3125 l 2.1875,-2.46875 4.375,-5.03125 2.1875,-2.5 c 0.529,-0.61903 1.16739,-0.90283 1.84375,-0.96875 z m 19.34375,0 c 2.9309,-0.28566 6.50665,3.88211 4.40625,6.34375 l -2.15625,2.5 -4.375,5.03125 -2.1875,2.46875 c -2.56907,2.87943 -8.74269,-1.817 -6.5,-5.0625 0.0724,-0.10469 0.15969,-0.21115 0.25,-0.3125 l 2.15625,-2.46875 4.40625,-5.03125 2.15625,-2.5 c 0.529,-0.61903 1.16739,-0.90283 1.84375,-0.96875 z m 19.375,0 c 2.9309,-0.28566 6.50666,3.88211 4.40625,6.34375 l -2.1875,2.5 -4.375,5.03125 -2.15625,2.46875 c -2.56907,2.87943 -8.77399,-1.817 -6.53125,-5.0625 0.0724,-0.10469 0.1597,-0.21115 0.25,-0.3125 l 2.1875,-2.46875 4.375,-5.03125 2.1875,-2.5 c 0.529,-0.61903 1.16739,-0.90283 1.84375,-0.96875 z m 19.34375,0 c 2.9309,-0.28566 6.50666,3.88211 4.40625,6.34375 l -2.15625,2.5 -4.375,5.03125 -2.1875,2.46875 c -2.56907,2.87943 -8.74274,-1.817 -6.5,-5.0625 0.0724,-0.10469 0.1597,-0.21115 0.25,-0.3125 l 2.15625,-2.46875 4.40625,-5.03125 2.15625,-2.5 c 0.529,-0.61903 1.16739,-0.90283 1.84375,-0.96875 z m 19.375,0 c 2.9309,-0.28566 6.50665,3.88211 4.40625,6.34375 l -2.1875,2.5 -4.375,5.03125 -2.15625,2.46875 c -2.56907,2.87943 -8.77399,-1.817 -6.53125,-5.0625 0.0724,-0.10469 0.1597,-0.21115 0.25,-0.3125 l 2.1875,-2.46875 4.375,-5.03125 2.1875,-2.5 c 0.529,-0.61903 1.16739,-0.90283 1.84375,-0.96875 z m 19.34375,0 c 2.9309,-0.28566 6.50665,3.88211 4.40625,6.34375 l -2.15625,2.5 -4.375,5.03125 -2.1875,2.46875 c -2.56907,2.87943 -8.74268,-1.817 -6.5,-5.0625 0.0724,-0.10469 0.1597,-0.21115 0.25,-0.3125 l 2.15625,-2.46875 4.40625,-5.03125 2.15625,-2.5 c 0.529,-0.61903 1.16739,-0.90283 1.84375,-0.96875 z m 19.375,0 c 2.9309,-0.28566 6.50665,3.88211 4.40625,6.34375 l -2.1875,2.5 -4.375,5.03125 -2.15625,2.46875 c -2.56907,2.87943 -8.77393,-1.817 -6.53125,-5.0625 0.0724,-0.10469 0.1597,-0.21115 0.25,-0.3125 l 2.1875,-2.46875 4.375,-5.03125 2.1875,-2.5 c 0.529,-0.61903 1.16739,-0.90283 1.84375,-0.96875 z m 19.34375,0 c 2.9309,-0.28566 6.50665,3.88211 4.40625,6.34375 l -2.15625,2.5 -4.375,5.03125 -2.1875,2.46875 c -2.56907,2.87943 -8.74268,-1.817 -6.5,-5.0625 0.0724,-0.10469 0.15969,-0.21115 0.25,-0.3125 l 2.15625,-2.46875 4.40625,-5.03125 2.15625,-2.5 c 0.529,-0.61903 1.16739,-0.90283 1.84375,-0.96875 z m 19.375,0 c 2.9309,-0.28566 6.50665,3.88211 4.40625,6.34375 l -2.1875,2.5 -4.375,5.03125 -2.15625,2.46875 c -2.56907,2.87943 -8.77393,-1.817 -6.53125,-5.0625 0.0724,-0.10469 0.15969,-0.21115 0.25,-0.3125 l 2.1875,-2.46875 4.375,-5.03125 2.1875,-2.5 c 0.529,-0.61903 1.16739,-0.90283 1.84375,-0.96875 z m 19.34375,0 c 2.9309,-0.28566 6.50665,3.88211 4.40625,6.34375 l -2.15625,2.5 -4.375,5.03125 -2.1875,2.46875 c -2.56907,2.87943 -8.74268,-1.817 -6.5,-5.0625 0.0724,-0.10469 0.15969,-0.21115 0.25,-0.3125 l 2.15625,-2.46875 4.40625,-5.03125 2.15625,-2.5 c 0.529,-0.61903 1.16739,-0.90283 1.84375,-0.96875 z m 19.375,0 c 2.9309,-0.28566 6.50665,3.88211 4.40625,6.34375 l -2.1875,2.5 -4.375,5.03125 -2.15625,2.46875 c -2.56907,2.87943 -8.77393,-1.817 -6.53125,-5.0625 0.0724,-0.10469 0.15969,-0.21115 0.25,-0.3125 l 2.1875,-2.46875 4.375,-5.03125 2.1875,-2.5 c 0.529,-0.61903 1.16739,-0.90283 1.84375,-0.96875 z m 19.34375,0 c 2.9309,-0.28566 6.50665,3.88211 4.40625,6.34375 l -2.15625,2.5 -4.375,5.03125 -2.1875,2.46875 c -2.56907,2.87943 -8.74268,-1.817 -6.5,-5.0625 0.0724,-0.10469 0.15969,-0.21115 0.25,-0.3125 l 2.15625,-2.46875 4.40625,-5.03125 2.15625,-2.5 c 0.529,-0.61903 1.16739,-0.90283 1.84375,-0.96875 z m 19.375,0 c 2.9309,-0.28566 6.50665,3.88211 4.40625,6.34375 l -2.1875,2.5 -4.375,5.03125 -2.15625,2.46875 c -2.56907,2.87943 -8.77394,-1.817 -6.53125,-5.0625 0.0724,-0.10469 0.15969,-0.21115 0.25,-0.3125 l 2.1875,-2.46875 4.375,-5.03125 2.1875,-2.5 c 0.529,-0.61903 1.16739,-0.90283 1.84375,-0.96875 z m 19.34375,0 c 2.9309,-0.28566 6.50665,3.88211 4.40625,6.34375 l -2.15625,2.5 -4.375,5.03125 -2.1875,2.46875 c -2.56906,2.87943 -8.74269,-1.817 -6.5,-5.0625 0.0724,-0.10469 0.15976,-0.21115 0.25,-0.3125 l 2.15625,-2.46875 4.40625,-5.03125 2.15625,-2.5 c 0.52901,-0.61903 1.16739,-0.90283 1.84375,-0.96875 z m 19.375,0 c 2.9309,-0.28566 6.50667,3.88211 4.40625,6.34375 l -2.1875,2.5 -4.375,5.03125 -2.15625,2.46875 c -2.56906,2.87943 -8.77399,-1.817 -6.53125,-5.0625 0.0724,-0.10469 0.15971,-0.21115 0.25,-0.3125 l 2.1875,-2.46875 4.375,-5.03125 2.1875,-2.5 c 0.52901,-0.61903 1.16739,-0.90283 1.84375,-0.96875 z m 19.34375,0 c 2.9309,-0.28566 6.50666,3.88211 4.40625,6.34375 l -2.15625,2.5 -4.375,5.03125 -2.1875,2.46875 c -2.56906,2.87943 -8.74274,-1.817 -6.5,-5.0625 0.0724,-0.10469 0.15971,-0.21115 0.25,-0.3125 l 2.15625,-2.46875 4.40625,-5.03125 2.15625,-2.5 c 0.52901,-0.61903 1.16739,-0.90283 1.84375,-0.96875 z m 19.375,0 c 2.93091,-0.28566 6.50665,3.88211 4.40625,6.34375 l -2.1875,2.5 -4.375,5.03125 -2.15625,2.46875 c -2.56906,2.87943 -8.77399,-1.817 -6.53125,-5.0625 0.0724,-0.10469 0.15971,-0.21115 0.25,-0.3125 l 2.1875,-2.46875 4.375,-5.03125 2.15625,-2.5 c 0.52901,-0.61903 1.19864,-0.90283 1.875,-0.96875 z m 19.34375,0 c 2.93091,-0.28566 6.50665,3.88211 4.40625,6.34375 l -2.15625,2.5 -4.375,5.03125 -2.1875,2.46875 c -2.56906,2.87943 -8.74268,-1.817 -6.5,-5.0625 0.0724,-0.10469 0.1597,-0.21115 0.25,-0.3125 l 2.15625,-2.46875 4.375,-5.03125 2.1875,-2.5 c 0.52901,-0.61903 1.16739,-0.90283 1.84375,-0.96875 z m 19.375,0 c 2.93091,-0.28566 6.50665,3.88211 4.40625,6.34375 l -2.1875,2.5 -4.375,5.03125 -2.15625,2.46875 c -2.56906,2.87943 -8.77393,-1.817 -6.53125,-5.0625 0.0724,-0.10469 0.1597,-0.21115 0.25,-0.3125 l 2.1875,-2.46875 4.375,-5.03125 2.15625,-2.5 c 0.52901,-0.61903 1.19864,-0.90283 1.875,-0.96875 z m 19.34375,0 c 2.93091,-0.28566 6.50665,3.88211 4.40625,6.34375 l -2.15625,2.5 -4.375,5.03125 -2.1875,2.46875 c -2.56906,2.87943 -8.74268,-1.817 -6.5,-5.0625 0.0724,-0.10469 0.15969,-0.21115 0.25,-0.3125 l 2.15625,-2.46875 4.375,-5.03125 2.1875,-2.5 c 0.52901,-0.61903 1.16739,-0.90283 1.84375,-0.96875 z m 19.375,0 c 2.93091,-0.28566 6.50665,3.88211 4.40625,6.34375 l -2.1875,2.5 -4.375,5.03125 -2.15625,2.46875 c -2.56906,2.87943 -8.77393,-1.817 -6.53125,-5.0625 0.0724,-0.10469 0.15969,-0.21115 0.25,-0.3125 l 2.1875,-2.46875 4.375,-5.03125 2.15625,-2.5 c 0.52901,-0.61903 1.19864,-0.90283 1.875,-0.96875 z m 19.34375,0 c 2.93091,-0.28566 6.50665,3.88211 4.40625,6.34375 l -2.15625,2.5 -4.375,5.03125 -2.1875,2.46875 c -2.56906,2.87943 -8.74268,-1.817 -6.5,-5.0625 0.0724,-0.10469 0.15969,-0.21115 0.25,-0.3125 l 2.15625,-2.46875 4.375,-5.03125 2.1875,-2.5 c 0.52901,-0.61903 1.16739,-0.90283 1.84375,-0.96875 z m 19.375,0 c 2.93091,-0.28566 6.50665,3.88211 4.40625,6.34375 l -2.1875,2.5 -4.375,5.03125 -2.15625,2.46875 c -2.56906,2.87943 -8.77393,-1.817 -6.53125,-5.0625 0.0724,-0.10469 0.15969,-0.21115 0.25,-0.3125 l 2.1875,-2.46875 4.375,-5.03125 2.15625,-2.5 c 0.52901,-0.61903 1.19864,-0.90283 1.875,-0.96875 z m 19.34375,0 c 2.93091,-0.28566 6.50665,3.88211 4.40625,6.34375 l -2.15625,2.5 -4.375,5.03125 -2.1875,2.46875 c -2.56906,2.87943 -8.74269,-1.817 -6.5,-5.0625 0.0724,-0.10469 0.15969,-0.21115 0.25,-0.3125 l 2.15625,-2.46875 4.375,-5.03125 2.1875,-2.5 c 0.52901,-0.61903 1.16739,-0.90283 1.84375,-0.96875 z"
               id="path4993"
               inkscape:connector-curvature="0" />
          </g>
          <g
             transform="translate(-94.045802,-120.80458)"
             id="g5441">
            <g
               id="g5235"
               transform="translate(94.045813,13.913082)">
              <rect
                 ry="7.9016766e-017"
                 rx="7.9016772e-017"
                 y="122.5435"
                 x="-1082.2412"
                 height="85.168503"
                 width="49.434975"
                 id="rect5187"
                 style="fill:url(#linearGradient6217);fill-opacity:1;fill-rule:evenodd;stroke:none" />
              <rect
                 style="fill:url(#linearGradient6219);fill-opacity:1;fill-rule:evenodd;stroke:none"
                 id="rect5205"
                 width="19.529385"
                 height="85.168503"
                 x="-1043.6465"
                 y="122.5435"
                 rx="7.9016779e-017"
                 ry="7.9016766e-017" />
            </g>
            <g
               id="g5428"
               transform="translate(143.40312,23.257974)">
              <path
                 transform="matrix(0.9408109,0,0,0.9408109,-69.344088,-33.480495)"
                 d="m -1105.5882,201.17046 c 0,6.21483 -5.0382,11.25295 -11.253,11.25295 -6.2148,0 -11.2529,-5.03812 -11.2529,-11.25295 0,-6.21484 5.0381,-11.25296 11.2529,-11.25296 6.2148,0 11.253,5.03812 11.253,11.25296 z"
                 sodipodi:ry="11.252952"
                 sodipodi:rx="11.252952"
                 sodipodi:cy="201.17046"
                 sodipodi:cx="-1116.8412"
                 id="path5426"
                 style="fill:#000000;fill-opacity:1;fill-rule:evenodd;stroke:#666666;stroke-width:0.6377477;stroke-linecap:round;stroke-linejoin:miter;stroke-miterlimit:4;stroke-opacity:1;stroke-dasharray:none;stroke-dashoffset:0"
                 sodipodi:type="arc" />
              <g
                 transform="matrix(0.6351834,0,0,0.6351834,-676.47849,-127.49728)"
                 id="g4692">
                <path
                   transform="matrix(1.0403669,0,0,1.040366,17.277305,-21.778108)"
                   d="m -673.90167,449.61078 c 0,7.732 -6.26424,14.00003 -13.99158,14.00003 -7.72734,0 -13.99158,-6.26803 -13.99158,-14.00003 0,-7.73201 6.26424,-14.00004 13.99158,-14.00004 7.72734,0 13.99158,6.26803 13.99158,14.00004 z"
                   sodipodi:ry="14.000035"
                   sodipodi:rx="13.991584"
                   sodipodi:cy="449.61078"
                   sodipodi:cx="-687.89325"
                   id="path4694"
                   style="fill:url(#linearGradient6221);fill-opacity:1;fill-rule:evenodd;stroke:none"
                   sodipodi:type="arc" />
                <path
                   sodipodi:type="arc"
                   style="fill:url(#linearGradient6223);fill-opacity:1;fill-rule:evenodd;stroke:none"
                   id="path4696"
                   sodipodi:cx="-687.89325"
                   sodipodi:cy="449.61078"
                   sodipodi:rx="13.991584"
                   sodipodi:ry="14.000035"
                   d="m -673.90167,449.61078 c 0,7.732 -6.26424,14.00003 -13.99158,14.00003 -7.72734,0 -13.99158,-6.26803 -13.99158,-14.00003 0,-7.73201 6.26424,-14.00004 13.99158,-14.00004 7.72734,0 13.99158,6.26803 13.99158,14.00004 z"
                   transform="translate(-10.490813,-3.6291193)" />
                <path
                   style="fill:url(#linearGradient6225);fill-opacity:1;fill-rule:evenodd;stroke:#1a1a1a;stroke-width:0.31486967;stroke-linecap:square;stroke-linejoin:miter;stroke-miterlimit:4;stroke-opacity:1;stroke-dasharray:none;stroke-dashoffset:0"
                   d="m -700.05594,435.54416 0,7.25 c -0.57031,0.35803 -1.01353,0.88787 -1.3125,1.53125 l -7.4375,0 0,3.34375 7.4375,0 c 0.29937,0.63202 0.74974,1.14671 1.3125,1.5 l 0,7.25 3.34375,0 0,-7.25 c 0.56275,-0.35329 1.01314,-0.86798 1.3125,-1.5 l 7.4375,0 0,-3.34375 -7.40625,0 c -0.29872,-0.64908 -0.76967,-1.17085 -1.34375,-1.53125 l 0,-7.25 -3.34375,0 z"
                   id="path4698"
                   inkscape:connector-curvature="0" />
              </g>
            </g>
          </g>
          <g
             transform="matrix(-1,0,0,1,-1120.4366,-120.80458)"
             id="g5452">
            <g
               transform="translate(94.045813,13.913082)"
               id="g5454">
              <rect
                 style="fill:url(#linearGradient6227);fill-opacity:1;fill-rule:evenodd;stroke:none"
                 id="rect5456"
                 width="49.434975"
                 height="85.168503"
                 x="-1082.2412"
                 y="122.5435"
                 rx="7.9016772e-017"
                 ry="7.9016766e-017" />
              <rect
                 ry="7.9016766e-017"
                 rx="7.9016779e-017"
                 y="122.5435"
                 x="-1043.6465"
                 height="85.168503"
                 width="19.529385"
                 id="rect5458"
                 style="fill:url(#linearGradient6229);fill-opacity:1;fill-rule:evenodd;stroke:none" />
            </g>
            <g
               transform="translate(143.40312,23.257974)"
               id="g5460">
              <path
                 sodipodi:type="arc"
                 style="fill:#000000;fill-opacity:1;fill-rule:evenodd;stroke:#666666;stroke-width:0.6377477;stroke-linecap:round;stroke-linejoin:miter;stroke-miterlimit:4;stroke-opacity:1;stroke-dasharray:none;stroke-dashoffset:0"
                 id="path5462"
                 sodipodi:cx="-1116.8412"
                 sodipodi:cy="201.17046"
                 sodipodi:rx="11.252952"
                 sodipodi:ry="11.252952"
                 d="m -1105.5882,201.17046 c 0,6.21483 -5.0382,11.25295 -11.253,11.25295 -6.2148,0 -11.2529,-5.03812 -11.2529,-11.25295 0,-6.21484 5.0381,-11.25296 11.2529,-11.25296 6.2148,0 11.253,5.03812 11.253,11.25296 z"
                 transform="matrix(0.9408109,0,0,0.9408109,-69.344088,-33.480495)" />
              <g
                 id="g5464"
                 transform="matrix(0.6351834,0,0,0.6351834,-676.47849,-127.49728)">
                <path
                   sodipodi:type="arc"
                   style="fill:url(#linearGradient6231);fill-opacity:1;fill-rule:evenodd;stroke:none"
                   id="path5466"
                   sodipodi:cx="-687.89325"
                   sodipodi:cy="449.61078"
                   sodipodi:rx="13.991584"
                   sodipodi:ry="14.000035"
                   d="m -673.90167,449.61078 c 0,7.732 -6.26424,14.00003 -13.99158,14.00003 -7.72734,0 -13.99158,-6.26803 -13.99158,-14.00003 0,-7.73201 6.26424,-14.00004 13.99158,-14.00004 7.72734,0 13.99158,6.26803 13.99158,14.00004 z"
                   transform="matrix(1.0403669,0,0,1.040366,17.277305,-21.778108)" />
                <path
                   transform="translate(-10.490813,-3.6291193)"
                   d="m -673.90167,449.61078 c 0,7.732 -6.26424,14.00003 -13.99158,14.00003 -7.72734,0 -13.99158,-6.26803 -13.99158,-14.00003 0,-7.73201 6.26424,-14.00004 13.99158,-14.00004 7.72734,0 13.99158,6.26803 13.99158,14.00004 z"
                   sodipodi:ry="14.000035"
                   sodipodi:rx="13.991584"
                   sodipodi:cy="449.61078"
                   sodipodi:cx="-687.89325"
                   id="path5468"
                   style="fill:url(#linearGradient6233);fill-opacity:1;fill-rule:evenodd;stroke:none"
                   sodipodi:type="arc" />
                <path
                   id="path5470"
                   d="m -700.05594,435.54416 0,7.25 c -0.57031,0.35803 -1.01353,0.88787 -1.3125,1.53125 l -7.4375,0 0,3.34375 7.4375,0 c 0.29937,0.63202 0.74974,1.14671 1.3125,1.5 l 0,7.25 3.34375,0 0,-7.25 c 0.56275,-0.35329 1.01314,-0.86798 1.3125,-1.5 l 7.4375,0 0,-3.34375 -7.40625,0 c -0.29872,-0.64908 -0.76967,-1.17085 -1.34375,-1.53125 l 0,-7.25 -3.34375,0 z"
                   style="fill:url(#linearGradient6235);fill-opacity:1;fill-rule:evenodd;stroke:#1a1a1a;stroke-width:0.31486967;stroke-linecap:square;stroke-linejoin:miter;stroke-miterlimit:4;stroke-opacity:1;stroke-dasharray:none;stroke-dashoffset:0"
                   inkscape:connector-curvature="0" />
              </g>
            </g>
          </g>
        </g>
        <g
           id="g5563"
           transform="translate(1.3798828e-5,0.6383687)">
          <rect
             ry="7.9016766e-017"
             rx="7.9016772e-017"
             y="28.974909"
             x="-491.48489"
             height="25.714254"
             width="242.17226"
             id="rect5523"
             style="fill:url(#linearGradient6237);fill-opacity:1;fill-rule:evenodd;stroke:#000000;stroke-width:1.70000005;stroke-linecap:round;stroke-linejoin:miter;stroke-miterlimit:4;stroke-opacity:1;stroke-dasharray:none;stroke-dashoffset:0" />
          <rect
             ry="7.9016772e-017"
             rx="7.9016766e-017"
             y="38.299786"
             x="-371.19733"
             height="7.0644984"
             width="17.976238"
             id="rect5533"
             style="fill:url(#linearGradient6239);fill-opacity:1;fill-rule:evenodd;stroke:#000000;stroke-width:1.70000005;stroke-linecap:round;stroke-linejoin:miter;stroke-miterlimit:4;stroke-opacity:1;stroke-dasharray:none;stroke-dashoffset:0" />
          <path
             transform="matrix(0.7374594,0,0,0.7374594,-53.093687,50.354837)"
             d="m -386.07209,-7.725965 c 0,1.1660647 -0.94529,2.1113469 -2.11135,2.1113469 -1.16607,0 -2.11135,-0.9452822 -2.11135,-2.1113469 0,-1.1660648 0.94528,-2.111347 2.11135,-2.111347 1.16606,0 2.11135,0.9452822 2.11135,2.111347 z"
             sodipodi:ry="2.111347"
             sodipodi:rx="2.111347"
             sodipodi:cy="-7.725965"
             sodipodi:cx="-388.18344"
             id="path5561"
             style="fill:#000000;fill-opacity:1;fill-rule:evenodd;stroke:none"
             sodipodi:type="arc" />
        </g>
        <g
           id="g5874"
           transform="translate(-31.274495,-63.19365)">
          <g
             id="g5827">
            <g
               id="g5804">
              <g
                 id="g5743">
                <path
                   style="fill:url(#linearGradient6241);fill-opacity:1;fill-rule:evenodd;stroke:#000000;stroke-width:1.70000005;stroke-linecap:round;stroke-linejoin:miter;stroke-miterlimit:4;stroke-opacity:1;stroke-dasharray:none;stroke-dashoffset:0"
                   d="m -452.94008,145.89332 -6.21852,0 c 0,-10e-6 0,-10e-6 0,-10e-6 l 0,-24.99618 c 0,0 0,0 0,0 l 0,0 6.21852,0"
                   id="path5721"
                   inkscape:connector-curvature="0" />
                <path
                   id="path5739"
                   d="m -286.46616,145.89332 6.21852,0 c 0,-10e-6 0,-10e-6 0,-10e-6 l 0,-24.99618 c 0,0 0,0 0,0 l 0,0 -6.21852,0"
                   style="fill:url(#linearGradient6243);fill-opacity:1;fill-rule:evenodd;stroke:#000000;stroke-width:1.70000005;stroke-linecap:round;stroke-linejoin:miter;stroke-miterlimit:4;stroke-opacity:1;stroke-dasharray:none;stroke-dashoffset:0"
                   inkscape:connector-curvature="0" />
                <path
                   style="fill:url(#linearGradient6245);fill-opacity:1;fill-rule:evenodd;stroke:#000000;stroke-width:1.70000005;stroke-linecap:round;stroke-linejoin:miter;stroke-miterlimit:4;stroke-opacity:1;stroke-dasharray:none;stroke-dashoffset:0"
                   d="m -459.1586,126.5843 0,-5.68717 c 0,0 0,0 0,0 l 0,0 178.91096,0 c 0,0 0,0 0,0 l 0,5.68717"
                   id="path5662"
                   inkscape:connector-curvature="0" />
                <path
                   style="fill:url(#linearGradient6247);fill-opacity:1;fill-rule:evenodd;stroke:#000000;stroke-width:1.70000017;stroke-linecap:round;stroke-linejoin:miter;stroke-miterlimit:4;stroke-opacity:1;stroke-dasharray:none;stroke-dashoffset:0"
                   d="m -280.24759,138.67566 0,7.21765 c 0,10e-6 0,10e-6 0,10e-6 l -178.91101,-10e-6 c 0,10e-6 0,10e-6 0,10e-6 l 0,-7.21765"
                   id="rect5684"
                   inkscape:connector-curvature="0" />
              </g>
              <path
                 id="rect5769"
                 d="m -341.24647,138.58681 0,7.80651 c 0,-10e-6 0,-10e-6 0,-10e-6 l -56.91324,10e-6 c 0,-10e-6 0,-10e-6 0,-10e-6 l 0,-7.80651"
                 style="fill:url(#linearGradient6249);fill-opacity:1;fill-rule:evenodd;stroke:#000000;stroke-width:0.69999999;stroke-linecap:round;stroke-linejoin:miter;stroke-miterlimit:4;stroke-opacity:1;stroke-dasharray:none;stroke-dashoffset:0"
                 inkscape:connector-curvature="0" />
              <rect
                 ry="7.9016766e-017"
                 rx="7.9016772e-017"
                 y="126.85103"
                 x="-452.59665"
                 height="11.41236"
                 width="165.73949"
                 id="rect5749"
                 style="fill:url(#linearGradient6251);fill-opacity:1;fill-rule:evenodd;stroke:#000000;stroke-width:0.69999999;stroke-linecap:round;stroke-linejoin:miter;stroke-miterlimit:4;stroke-opacity:1;stroke-dasharray:none;stroke-dashoffset:0" />
            </g>
            <rect
               style="fill:url(#radialGradient6253);fill-opacity:1;fill-rule:evenodd;stroke:#000000;stroke-width:0.2;stroke-linecap:round;stroke-linejoin:miter;stroke-miterlimit:4;stroke-opacity:1;stroke-dasharray:none;stroke-dashoffset:0"
               id="rect5813"
               width="7.3588614"
               height="4.3173742"
               x="-419.69403"
               y="140.19565"
               rx="7.9016772e-017"
               ry="7.9016766e-017" />
          </g>
          <g
             transform="translate(0.7938145,8.0390686)"
             id="g5866">
            <rect
               style="fill:url(#linearGradient6255);fill-opacity:1;fill-rule:evenodd;stroke:none"
               id="rect5838"
               width="18.550009"
               height="3.7714386"
               x="-334.87207"
               y="114.20414"
               rx="7.9016772e-017"
               ry="7.9016772e-017" />
            <rect
               style="fill:url(#linearGradient6257);fill-opacity:1;fill-rule:evenodd;stroke:#000000;stroke-width:0.2;stroke-linecap:round;stroke-linejoin:miter;stroke-miterlimit:4;stroke-opacity:1;stroke-dasharray:none;stroke-dashoffset:0"
               id="rect5852"
               width="11.123441"
               height="3.487143"
               x="-331.15878"
               y="114.34629"
               rx="7.9016772e-017"
               ry="7.9016772e-017" />
          </g>
        </g>
      </g>
      <g
         transform="translate(-8.7890626e-7,586.93572)"
         id="g6073">
        <g
           id="g6051">
          <rect
             ry="6.9000001"
             rx="6.5"
             y="-560.01843"
             x="-243.29535"
             height="18.378914"
             width="17.706564"
             id="rect6009"
             style="fill:url(#radialGradient6259);fill-opacity:1;fill-rule:evenodd;stroke:#cccccc;stroke-width:0.5;stroke-linecap:round;stroke-linejoin:miter;stroke-miterlimit:4;stroke-opacity:1;stroke-dasharray:none;stroke-dashoffset:0" />
          <path
             d="m -231.12677,-550.82897 c 0,1.83004 -1.48526,3.3153 -3.31531,3.3153 -1.83004,0 -3.31529,-1.48526 -3.31529,-3.3153 0,-1.83005 1.48525,-3.31531 3.31529,-3.31531 1.83005,0 3.31531,1.48526 3.31531,3.31531 z m -3.3153,-4.83588 0,2.92491"
             style="fill:none;stroke:#cccccc;stroke-width:1;stroke-linecap:round;stroke-linejoin:miter;stroke-miterlimit:4;stroke-opacity:1;stroke-dasharray:none;stroke-dashoffset:0"
             id="path6048"
             inkscape:connector-curvature="0" />
        </g>
        <g
           id="g6067"
           transform="translate(23.539275,-8.744111)">
          <rect
             style="fill:url(#radialGradient6261);fill-opacity:1;fill-rule:evenodd;stroke:#cccccc;stroke-width:0.5;stroke-linecap:round;stroke-linejoin:miter;stroke-miterlimit:4;stroke-opacity:1;stroke-dasharray:none;stroke-dashoffset:0"
             id="rect6032"
             width="17.706564"
             height="18.378914"
             x="-266.83463"
             y="-523.40771"
             rx="6.5"
             ry="6.9000001" />
          <path
             d="m -260.40423,-512.35477 3.03822,-4.71033 m -1.23066,5.69368 3.03822,-4.71033"
             style="fill:none;stroke:#cccccc;stroke-width:1;stroke-linecap:butt;stroke-linejoin:miter;stroke-miterlimit:4;stroke-opacity:1;stroke-dasharray:none"
             id="path6064"
             inkscape:connector-curvature="0" />
        </g>
      </g>
      <g
         transform="translate(1.502319e-7,580.65223)"
         id="g6136">
        <path
           transform="matrix(0.2906219,0,0,0.2906219,-6.2613786,-278.14154)"
           d="m -770.7238,-759.80725 c 0,7.62517 -6.18142,13.8066 -13.8066,13.8066 -7.62517,0 -13.80659,-6.18143 -13.80659,-13.8066 0,-7.62517 6.18142,-13.8066 13.80659,-13.8066 7.62518,0 13.8066,6.18143 13.8066,13.8066 z"
           sodipodi:ry="13.806598"
           sodipodi:rx="13.806598"
           sodipodi:cy="-759.80725"
           sodipodi:cx="-784.5304"
           id="path6119"
           style="fill:url(#radialGradient6263);fill-opacity:1;fill-rule:evenodd;stroke:#000000;stroke-width:5.50543499;stroke-linecap:round;stroke-linejoin:miter;stroke-miterlimit:4;stroke-opacity:1;stroke-dasharray:none;stroke-dashoffset:0"
           sodipodi:type="arc" />
        <g
           id="g6131">
          <path
             sodipodi:type="arc"
             style="fill:url(#radialGradient6265);fill-opacity:1;fill-rule:evenodd;stroke:#000000;stroke-width:5.50543547;stroke-linecap:round;stroke-linejoin:miter;stroke-miterlimit:4;stroke-opacity:1;stroke-dasharray:none;stroke-dashoffset:0"
             id="path6087"
             sodipodi:cx="-784.5304"
             sodipodi:cy="-759.80725"
             sodipodi:rx="13.806598"
             sodipodi:ry="13.806598"
             d="m -770.7238,-759.80725 c 0,7.62517 -6.18142,13.8066 -13.8066,13.8066 -7.62517,0 -13.80659,-6.18143 -13.80659,-13.8066 0,-7.62517 6.18142,-13.8066 13.80659,-13.8066 7.62518,0 13.8066,6.18143 13.8066,13.8066 z"
             transform="matrix(0.2906219,0,0,0.2906219,18.564454,-328.90582)" />
          <path
             transform="matrix(0.2906123,0,0,0.2906123,18.556923,-300.91368)"
             d="m -770.7238,-759.80725 c 0,7.62517 -6.18142,13.8066 -13.8066,13.8066 -7.62517,0 -13.80659,-6.18143 -13.80659,-13.8066 0,-7.62517 6.18142,-13.8066 13.80659,-13.8066 7.62518,0 13.8066,6.18143 13.8066,13.8066 z"
             sodipodi:ry="13.806598"
             sodipodi:rx="13.806598"
             sodipodi:cy="-759.80725"
             sodipodi:cx="-784.5304"
             id="path6121"
             style="fill:url(#radialGradient6267);fill-opacity:1;fill-rule:evenodd;stroke:#000000;stroke-width:5.50561666;stroke-linecap:round;stroke-linejoin:miter;stroke-miterlimit:4;stroke-opacity:1;stroke-dasharray:none;stroke-dashoffset:0"
             sodipodi:type="arc" />
          <path
             transform="matrix(0.2906219,0,0,0.2906219,18.564454,-314.90612)"
             d="m -770.7238,-759.80725 c 0,7.62517 -6.18142,13.8066 -13.8066,13.8066 -7.62517,0 -13.80659,-6.18143 -13.80659,-13.8066 0,-7.62517 6.18142,-13.8066 13.80659,-13.8066 7.62518,0 13.8066,6.18143 13.8066,13.8066 z"
             sodipodi:ry="13.806598"
             sodipodi:rx="13.806598"
             sodipodi:cy="-759.80725"
             sodipodi:cx="-784.5304"
             id="path6127"
             style="fill:url(#radialGradient6269);fill-opacity:1;fill-rule:evenodd;stroke:#000000;stroke-width:5.50543499;stroke-linecap:round;stroke-linejoin:miter;stroke-miterlimit:4;stroke-opacity:1;stroke-dasharray:none;stroke-dashoffset:0"
             sodipodi:type="arc" />
        </g>
      </g>
    </g>
  </g>
</svg>
