<?xml version="1.0" encoding="UTF-8" standalone="no"?>
<!-- Created with Inkscape (http://www.inkscape.org/) -->

<svg
   xmlns:dc="http://purl.org/dc/elements/1.1/"
   xmlns:cc="http://creativecommons.org/ns#"
   xmlns:rdf="http://www.w3.org/1999/02/22-rdf-syntax-ns#"
   xmlns:svg="http://www.w3.org/2000/svg"
   xmlns="http://www.w3.org/2000/svg"
   xmlns:sodipodi="http://sodipodi.sourceforge.net/DTD/sodipodi-0.dtd"
   xmlns:inkscape="http://www.inkscape.org/namespaces/inkscape"
   width="165.68938"
   height="256.00003"
   id="svg3072"
   version="1.1"
   inkscape:version="0.47 r22583"
   sodipodi:docname="Server.svg">
  <defs
     id="defs3074">
    <inkscape:perspective
       sodipodi:type="inkscape:persp3d"
       inkscape:vp_x="0 : 526.18109 : 1"
       inkscape:vp_y="0 : 1000 : 0"
       inkscape:vp_z="744.09448 : 526.18109 : 1"
       inkscape:persp3d-origin="372.04724 : 350.78739 : 1"
       id="perspective3080" />
    <inkscape:perspective
       id="perspective3009"
       inkscape:persp3d-origin="0.5 : 0.33333333 : 1"
       inkscape:vp_z="1 : 0.5 : 1"
       inkscape:vp_y="0 : 1000 : 0"
       inkscape:vp_x="0 : 0.5 : 1"
       sodipodi:type="inkscape:persp3d" />
  </defs>
  <sodipodi:namedview
     id="base"
     pagecolor="#ffffff"
     bordercolor="#666666"
     borderopacity="1.0"
     inkscape:pageopacity="0.0"
     inkscape:pageshadow="2"
     inkscape:zoom="0.93749989"
     inkscape:cx="82.844688"
     inkscape:cy="128.00002"
     inkscape:document-units="px"
     inkscape:current-layer="layer1"
     showgrid="false"
     inkscape:window-width="741"
     inkscape:window-height="479"
     inkscape:window-x="1777"
     inkscape:window-y="65"
     inkscape:window-maximized="0" />
  <metadata
     id="metadata3077">
    <rdf:RDF>
      <cc:Work
         rdf:about="">
        <dc:format>image/svg+xml</dc:format>
        <dc:type
           rdf:resource="http://purl.org/dc/dcmitype/StillImage" />
        <dc:title />
        <cc:license
           rdf:resource="http://creativecommons.org/licenses/publicdomain/" />
      </cc:Work>
      <cc:License
         rdf:about="http://creativecommons.org/licenses/publicdomain/">
        <cc:permits
           rdf:resource="http://creativecommons.org/ns#Reproduction" />
        <cc:permits
           rdf:resource="http://creativecommons.org/ns#Distribution" />
        <cc:permits
           rdf:resource="http://creativecommons.org/ns#DerivativeWorks" />
      </cc:License>
    </rdf:RDF>
  </metadata>
  <g
     inkscape:label="Capa 1"
     inkscape:groupmode="layer"
     id="layer1"
     transform="translate(-405.72673,-144.36221)">
    <g
       transform="matrix(0.04230007,0,0,0.04230007,319.39229,59.127567)"
       style="visibility:visible"
       id="g10"
       class="Graphic">
      <g
         id="g12">
        <g
           id="g14"
           style="fill:#c7c7c7;stroke:none">
          <path
             id="path16"
             d="m 5903,2361 c 50,82 34,3995 -31,4149 -51,122 -1703,1495 -1789,1531 -1117,-7 -1870,-414 -1995,-629 -48,-270 -7,-4433 38,-4520 40,-76 2153,-833 2227,-851 67,-15 1493,229 1550,320 z" />
        </g>
        <g
           id="g18"
           style="fill:#000000;stroke:none">
          <path
             id="path20"
             d="m 5881,2374 2,-1 -2,2 c 0,-1 -1,-1 -1,-1 0,-1 0,-1 0,-2 0,0 0,0 0,0 l 7,-3 -2,2 -5,1 5,-1 -2,2 -2,1 z m 2,-1 0,0 0,0 2,-2 0,0 0,0 2,-2 5,-2 -5,4 5,-4 1,0 -6,3 0,1 0,-1 -4,3 0,0 z m 10,-6 -1,0 1,0 -1,0 11,-6 -10,5 0,1 z m 11,-4 -11,4 0,-1 11,-3 z m 20,-15 c -2,-3 -4,-6 -7,-9 -2,-3 -5,-5 -8,-7 -5,-4 -12,-8 -20,-12 -7,-4 -15,-7 -24,-11 -9,-4 -19,-7 -30,-11 -21,-8 -47,-16 -75,-24 -29,-8 -61,-16 -95,-25 -136,-34 -313,-72 -494,-106 -181,-35 -364,-66 -511,-90 -73,-11 -138,-21 -189,-27 -25,-3 -47,-6 -65,-8 -9,-1 -17,-1 -24,-2 -4,0 -7,0 -10,-1 l -9,0 c -3,0 -5,0 -7,1 -2,0 -3,0 -4,0 -2,0 -3,0 -4,1 -2,0 -4,1 -7,2 -2,0 -5,1 -8,2 -3,1 -7,2 -11,3 -4,2 -8,3 -13,5 -10,3 -22,7 -35,12 -13,4 -28,9 -44,15 -33,11 -71,25 -115,40 -43,15 -91,32 -144,51 -209,75 -481,173 -753,274 -271,101 -542,203 -747,285 -51,21 -98,40 -140,57 -43,18 -80,34 -111,48 -16,7 -30,14 -42,20 -13,6 -24,12 -33,17 -5,2 -9,5 -13,7 -4,3 -8,5 -10,7 -4,3 -7,5 -9,7 -5,4 -7,8 -9,11 -1,2 -2,5 -4,9 0,3 -1,6 -1,9 -1,3 -1,7 -2,11 -1,4 -1,8 -2,13 0,9 -1,20 -3,32 0,13 -1,27 -2,42 -2,31 -4,69 -6,111 -2,43 -4,91 -5,144 -7,213 -14,504 -19,835 -11,662 -19,1482 -19,2144 0,308 2,583 5,791 1,52 2,100 3,143 1,43 3,82 4,115 1,34 3,62 4,85 1,12 2,22 3,30 1,5 1,9 1,13 1,3 2,7 2,10 l 1,4 2,4 c 9,15 20,30 33,46 14,16 30,32 48,49 35,32 80,66 135,101 107,70 249,142 423,207 173,65 377,124 608,167 231,43 489,70 769,72 l 6,0 5,-2 c 2,-1 4,-2 8,-4 2,-2 5,-3 8,-6 3,-2 6,-4 10,-6 4,-3 8,-6 12,-9 9,-6 19,-13 30,-22 11,-8 23,-17 37,-28 27,-20 58,-45 93,-73 35,-28 74,-59 116,-93 169,-136 385,-315 600,-497 215,-181 430,-366 593,-512 41,-37 79,-71 113,-103 34,-31 64,-59 89,-84 13,-13 24,-24 34,-35 11,-11 20,-20 28,-29 8,-9 14,-17 19,-23 3,-4 5,-8 7,-10 2,-4 4,-8 6,-11 0,-2 1,-5 2,-8 1,-3 2,-5 3,-9 1,-6 2,-13 3,-22 2,-8 3,-17 4,-28 1,-11 2,-22 3,-35 2,-25 4,-55 7,-89 1,-34 3,-72 5,-113 8,-166 14,-391 19,-648 10,-516 16,-1164 16,-1743 0,-389 -3,-747 -8,-1012 -1,-66 -2,-127 -4,-181 -1,-53 -3,-100 -5,-139 -1,-20 -2,-38 -3,-53 -1,-16 -2,-30 -3,-41 -1,-6 -1,-11 -2,-16 -1,-5 -1,-10 -2,-13 -1,-4 -1,-8 -2,-11 -1,-2 -1,-4 -2,-5 -1,-3 -2,-5 -3,-6 z m -37,21 12,-12 -12,12 0,0 z m -6,9 c 1,3 1,7 2,11 0,4 1,9 1,15 1,11 3,24 4,39 0,15 1,33 2,52 2,39 4,86 6,139 1,53 2,114 4,180 5,264 7,622 7,1011 0,578 -5,1227 -15,1742 -6,257 -12,481 -19,646 -2,42 -4,79 -6,113 -2,33 -4,63 -6,88 -1,12 -2,24 -4,34 0,10 -2,18 -3,26 -1,7 -2,14 -3,18 0,3 -1,4 -1,6 0,1 -1,2 -1,2 0,1 -1,2 -2,4 -1,1 -3,4 -4,6 -5,6 -10,13 -17,21 -7,7 -16,17 -26,27 -10,10 -21,21 -34,34 -25,24 -54,52 -88,83 -33,31 -71,66 -112,102 -163,146 -377,330 -592,512 -215,181 -431,360 -598,495 -42,34 -81,65 -116,93 -35,28 -66,52 -93,73 -13,10 -26,20 -37,28 -10,8 -20,15 -28,21 -4,3 -8,6 -12,8 -3,2 -6,4 -8,6 -2,1 -4,2 -5,3 -276,-2 -528,-29 -755,-71 -228,-42 -429,-100 -600,-164 -169,-64 -308,-134 -413,-202 -51,-33 -94,-66 -128,-97 -17,-15 -31,-30 -43,-44 -10,-12 -19,-23 -26,-34 0,-1 0,-3 0,-4 -1,-3 -1,-7 -1,-11 -1,-8 -2,-18 -3,-28 -2,-23 -3,-51 -5,-84 -1,-33 -2,-71 -3,-115 -1,-42 -2,-90 -3,-142 -3,-208 -5,-482 -5,-790 0,-662 7,-1481 18,-2143 6,-330 12,-622 19,-834 2,-53 4,-101 6,-144 2,-42 3,-79 5,-109 1,-16 2,-30 3,-42 1,-12 2,-22 3,-31 0,-4 1,-8 1,-11 1,-4 1,-6 2,-9 0,-1 0,-2 0,-2 0,-1 1,-1 2,-2 2,-1 4,-3 7,-5 4,-1 7,-4 11,-6 9,-5 19,-10 31,-16 12,-6 26,-12 41,-19 31,-14 67,-29 109,-47 42,-17 89,-37 140,-57 205,-82 475,-184 746,-284 271,-101 543,-200 752,-274 52,-19 101,-36 144,-51 43,-16 82,-29 114,-40 17,-6 31,-11 44,-16 13,-4 25,-8 35,-11 4,-2 9,-3 13,-4 4,-2 7,-3 10,-4 3,-1 5,-1 8,-2 l 3,-1 0,0 0,0 0,0 0,0 0,0 0,0 -2,-8 1,8 1,0 c 1,0 3,0 4,0 2,0 4,0 7,0 2,0 5,0 8,1 7,0 14,1 23,2 17,1 39,4 64,7 50,6 114,16 187,27 147,23 329,55 509,89 180,35 357,72 492,106 34,9 65,17 92,25 28,8 53,15 73,23 10,3 20,7 28,10 7,3 15,6 20,9 5,3 10,5 13,8 0,0 1,0 1,1 0,1 1,3 1,4 z M 4075,8017 c 1,0 1,-1 2,-1 2,0 4,0 6,0 l 0,14 -8,-13 8,13 0,11 -10,-23 c 0,0 1,-1 2,-1 z M 2110,7400 c 1,1 1,3 2,4 1,1 1,3 1,4 l -25,4 21,-11 1,-1 -1,1 1,-1 c 0,0 0,0 0,0 l 2,0 -2,0 z m 39,-4498 c 0,1 0,2 0,3 -1,0 -1,1 -2,1 l -5,-6 -17,-4 17,4 -2,-1 4,2 5,1 z m -7,-2 0,0 2,1 0,0 -2,-1 z m -16,-8 14,7 0,0 -14,-7 z m 14,7 0,0 -10,-11 10,11 z m 2217,-841 -2,-17 2,17 0,0 z m -4,-17 4,17 0,1 -4,-18 z" />
        </g>
        <g
           id="g22"
           style="fill:#ffffff;fill-opacity:0.54117647;stroke:#ffffff;stroke-opacity:0.54117647">
          <path
             id="path24"
             d="m 5822,2442 -52,22 -52,23 -52,23 -53,25 -53,25 -53,26 -53,26 -54,27 -54,27 -54,28 -55,28 -54,29 -55,29 -55,29 -111,60 -112,60 -112,60 -113,61 -114,60 -114,60 -114,59 -57,29 -57,29 -58,28 -57,28 -27,-6 -28,-7 -56,-13 -58,-14 -59,-13 -60,-14 -61,-14 -61,-14 -63,-14 -62,-14 -63,-15 -127,-28 -127,-28 -64,-14 -63,-14 -62,-13 -62,-13 -61,-13 -60,-13 -60,-13 -58,-12 -57,-12 -28,-5 -28,-6 -27,-5 -27,-6 -27,-5 -26,-5 -26,-5 -25,-6 -25,-4 -24,-5 -24,-5 -24,-4 -23,-4 -22,-5 -22,-4 -21,-3 -21,-4 -20,-4 52,16 52,16 53,16 54,15 55,16 55,15 57,16 56,15 57,16 58,15 116,31 117,30 118,31 118,31 117,30 116,31 58,15 57,16 57,15 56,16 55,15 55,16 54,15 53,16 52,16 52,16 1,60 2,61 1,61 1,63 1,64 2,64 1,65 1,66 1,67 1,67 1,68 0,69 1,69 1,70 1,70 0,71 1,71 0,72 1,72 1,73 1,146 1,147 0,149 1,149 2,299 1,300 1,149 1,148 1,147 1,146 1,73 0,72 1,72 1,71 0,71 1,71 1,69 1,70 0,68 1,68 1,67 1,67 1,66 1,65 1,65 2,63 1,63 1,62 2,61 1,60 1,-61 1,-61 0,-63 1,-63 1,-64 1,-65 1,-66 1,-67 1,-67 1,-68 1,-69 2,-69 1,-70 1,-71 1,-71 1,-72 1,-72 2,-73 1,-73 1,-73 3,-148 3,-149 2,-151 3,-151 6,-303 5,-303 3,-151 3,-150 2,-149 3,-149 1,-73 2,-73 1,-73 1,-72 1,-71 1,-72 1,-70 2,-70 1,-70 1,-68 1,-68 1,-68 1,-66 1,-66 1,-65 1,-64 1,-64 0,-62 1,-62 1,-60 110,-59 109,-59 109,-57 109,-58 108,-57 107,-58 107,-57 107,-58 105,-58 105,-58 104,-60 103,-60 51,-30 50,-31 51,-31 50,-31 50,-31 50,-32 49,-32 50,-32 z" />
        </g>
        <g
           id="g26"
           style="fill:#ffffff;stroke:none" />
        <g
           id="g28"
           style="fill:none;stroke:none">
          <path
             id="path30"
             d="m 5822,2442 c -549,232 -1156,606 -1768,901 -580,-138 -1417,-322 -1839,-396 543,169 1257,327 1800,496 32,1271 16,3196 48,4467 16,-1282 59,-3238 75,-4519 586,-317 1161,-601 1684,-949 z" />
        </g>
        <g
           id="g32"
           style="fill:#000000;fill-opacity:0.16078431;stroke:#ffffff;stroke-opacity:0.16078431">
          <path
             id="path34"
             d="m 2420,6628 10,14 10,13 11,13 12,13 12,12 12,12 14,12 13,12 14,12 15,11 15,11 16,11 15,11 17,10 16,10 17,11 18,9 18,10 18,9 18,8 19,9 19,8 19,8 19,8 40,15 40,14 41,12 41,11 42,10 41,9 42,8 41,6 41,6 41,3 21,2 20,1 19,1 20,0 20,0 19,0 19,-1 19,-1 18,-1 19,-1 17,-2 18,-3 17,-2 17,-3 17,-4 16,-4 15,-4 15,-4 15,-5 15,-5 -2,-1 -1,0 -5,-2 -6,-1 -7,-2 -8,-2 -10,-3 -10,-3 -12,-3 -13,-4 -14,-3 -15,-4 -16,-5 -16,-4 -18,-5 -18,-5 -19,-5 -20,-6 -20,-5 -21,-6 -22,-6 -22,-6 -22,-6 -23,-7 -24,-6 -48,-13 -49,-14 -50,-14 -50,-13 -50,-15 -50,-13 -49,-14 -49,-13 -23,-7 -24,-6 -23,-7 -22,-6 -22,-6 -21,-6 -21,-6 -20,-5 -19,-6 -19,-5 -18,-5 -17,-5 -16,-4 -15,-5 -15,-4 -13,-4 -12,-3 -12,-3 -10,-3 -9,-3 -7,-2 -7,-2 -5,-2 -2,0 -2,-1 z" />
        </g>
        <g
           id="g36"
           style="fill:#000000;stroke:none" />
        <g
           id="g38"
           style="fill:none;stroke:none">
          <path
             id="path40"
             d="m 2420,6628 c 201,289 833,431 1133,315 -53,-14 -1066,-293 -1133,-315 z" />
        </g>
        <g
           id="g42"
           style="fill:#ffffff;fill-opacity:0.38823529;stroke:#ffffff;stroke-opacity:0.38823529">
          <path
             id="path44"
             d="m 3454,6093 -936,-361 -9,4 -8,4 -8,4 -6,5 -6,6 -6,6 -5,7 -5,6 -4,7 -4,7 -3,7 -3,8 -3,8 -2,7 -3,15 -2,15 -2,14 0,6 0,7 0,5 0,6 0,5 0,4 0,4 1,4 0,2 0,2 0,1 0,1 146,51 0,0 1,1 1,1 1,1 1,2 2,2 1,3 3,3 2,3 3,4 3,4 3,4 4,5 4,4 4,6 5,4 10,12 10,11 13,12 13,12 14,13 15,12 17,13 17,12 19,12 19,11 21,11 22,10 11,4 11,5 12,4 12,4 13,3 12,3 13,3 13,3 13,2 13,1 14,2 14,1 14,0 15,0 15,0 15,-1 15,-2 15,-2 16,-2 16,-3 16,-4 16,-4 17,-5 17,-6 0,0 1,0 0,0 2,1 3,0 6,1 6,1 7,1 8,1 9,1 10,1 11,1 12,1 12,1 12,0 13,1 26,0 14,-1 13,-1 14,-1 13,-2 13,-2 12,-3 12,-3 12,-3 10,-5 11,-5 9,-6 8,-6 8,-8 3,-4 3,-4 3,-4 2,-4 2,-5 2,-5 z" />
        </g>
        <g
           id="g46"
           style="fill:#ffffff;stroke:none" />
        <g
           id="g48"
           style="fill:none;stroke:none">
          <path
             id="path50"
             d="m 3454,6093 -936,-361 c -97,34 -78,177 -78,177 l 146,51 c 0,0 204,319 566,194 0,0 269,48 302,-61 z" />
        </g>
        <g
           id="g52"
           style="fill:#606060;stroke:none">
          <path
             id="path54"
             d="m 3446,5971 c -311,-81 -622,-161 -933,-242 -12,44 -13,107 6,140 47,23 142,41 189,64 136,131 255,142 472,124 84,17 168,31 251,48 26,-51 33,-72 15,-134 z" />
        </g>
        <g
           id="g56"
           style="fill:none;stroke:none">
          <path
             id="path58"
             d="m 3446,5971 c -311,-81 -622,-161 -933,-242 -12,44 -13,107 6,140 47,23 142,41 189,64 136,131 255,142 472,124 84,17 168,31 251,48 26,-51 33,-72 15,-134 z" />
        </g>
        <g
           id="g60"
           style="fill:#ffffff;fill-opacity:0.4;stroke:#ffffff;stroke-opacity:0.4">
          <path
             id="path62"
             d="m 5856,2414 -1813,1017 7,4549 1775,-1494 31,-4072 z" />
        </g>
        <g
           id="g64"
           style="fill:#ffffff;stroke:none" />
        <g
           id="g66"
           style="fill:none;stroke:none">
          <path
             id="path68"
             d="m 5856,2414 -1813,1017 7,4549 1775,-1494 31,-4072 z" />
        </g>
        <g
           id="g70"
           style="fill:#000000;fill-opacity:0.16078431;stroke:#ffffff;stroke-opacity:0.16078431">
          <path
             id="path72"
             d="m 2525,6916 10,13 11,12 10,13 11,11 11,12 11,11 12,11 12,10 12,10 12,10 13,10 12,9 13,9 13,8 27,17 28,15 28,14 28,13 29,11 29,11 30,9 30,8 29,8 30,6 30,5 30,4 30,3 30,2 29,2 29,0 29,-1 27,-2 28,-2 27,-3 26,-5 25,-5 24,-6 24,-6 22,-8 -2,-1 -4,0 -4,-2 -5,-1 -6,-2 -8,-2 -8,-2 -9,-2 -10,-3 -10,-3 -11,-3 -12,-3 -13,-4 -13,-3 -14,-4 -15,-4 -15,-4 -15,-5 -16,-4 -16,-5 -17,-4 -18,-5 -35,-10 -36,-10 -38,-10 -38,-10 -38,-11 -76,-21 -37,-10 -37,-11 -36,-10 -17,-4 -17,-5 -17,-5 -16,-4 -16,-5 -15,-4 -15,-4 -14,-4 -14,-4 -13,-4 -12,-3 -11,-3 -12,-3 -10,-3 -9,-3 -8,-2 -8,-3 -7,-1 -6,-2 -5,-2 -4,-1 -3,-1 z" />
        </g>
        <g
           id="g74"
           style="fill:#000000;stroke:none" />
        <g
           id="g76"
           style="fill:none;stroke:none">
          <path
             id="path78"
             d="m 2525,6916 c 209,276 627,323 861,239 -39,-10 -810,-222 -861,-239 z" />
        </g>
        <g
           id="g80"
           style="fill:#000000;fill-opacity:0.16078431;stroke:#ffffff;stroke-opacity:0.16078431">
          <path
             id="path82"
             d="m 2680,7199 12,15 12,14 13,14 14,12 14,13 14,11 15,11 16,11 15,9 17,9 16,9 17,7 18,7 17,7 18,5 18,5 18,5 19,3 18,4 19,2 18,2 19,1 19,0 19,0 18,-1 19,-2 18,-2 19,-3 18,-4 18,-4 18,-5 17,-6 -1,0 -2,-1 -3,0 -4,-1 -3,-1 -5,-2 -5,-1 -6,-2 -6,-1 -6,-2 -7,-2 -8,-2 -8,-2 -8,-3 -9,-2 -9,-2 -19,-6 -20,-5 -22,-6 -22,-6 -23,-6 -23,-7 -48,-13 -48,-13 -23,-7 -23,-6 -23,-6 -21,-6 -21,-6 -19,-6 -9,-2 -9,-3 -9,-2 -8,-2 -8,-2 -7,-2 -7,-2 -6,-2 -6,-2 -5,-2 -5,-1 -5,-1 -3,-1 -3,-1 -3,-1 -2,0 z" />
        </g>
        <g
           id="g84"
           style="fill:#000000;stroke:none" />
        <g
           id="g86"
           style="fill:none;stroke:none">
          <path
             id="path88"
             d="m 2680,7199 c 121,163 355,213 540,149 -25,-6 -507,-139 -540,-149 z" />
        </g>
        <g
           id="g90"
           style="fill:#fcfcfc;fill-opacity:0.43921569;stroke:#ffffff;stroke-opacity:0.43921569">
          <path
             id="path92"
             d="m 2356,3259 -92,13 -17,2173 1425,399 35,-116 -1369,-365 18,-2104 z" />
        </g>
        <g
           id="g94"
           style="fill:#fcfcfc;stroke:none" />
        <g
           id="g96"
           style="fill:none;stroke:none">
          <path
             id="path98"
             d="m 2356,3259 -92,13 -17,2173 1425,399 35,-116 -1369,-365 18,-2104 z" />
        </g>
        <g
           id="g100"
           style="fill:#000000;fill-opacity:0.23137255;stroke:#ffffff;stroke-opacity:0.23137255">
          <path
             id="path102"
             d="m 3700,4065 -2,61 -1340,-386 1342,325 z" />
        </g>
        <g
           id="g104"
           style="fill:#000000;stroke:none" />
        <g
           id="g106"
           style="fill:#000000;fill-opacity:0.23137255;stroke:#ffffff;stroke-opacity:0.23137255">
          <path
             id="path108"
             d="m 3720,4507 -3,61 -1339,-386 1342,325 z" />
        </g>
        <g
           id="g110"
           style="fill:#000000;stroke:none" />
        <g
           id="g112"
           style="fill:#000000;fill-opacity:0.23137255;stroke:#ffffff;stroke-opacity:0.23137255">
          <path
             id="path114"
             d="m 3700,4916 -2,61 -1340,-386 1342,325 z" />
        </g>
        <g
           id="g116"
           style="fill:#000000;stroke:none" />
        <g
           id="g118"
           style="fill:#000000;fill-opacity:0.23137255;stroke:#ffffff;stroke-opacity:0.23137255">
          <path
             id="path120"
             d="m 3700,5318 -2,61 -1340,-387 1342,326 z" />
        </g>
        <g
           id="g122"
           style="fill:#000000;stroke:none" />
        <g
           id="g124"
           style="fill:#9e9e9e;stroke:none">
          <path
             id="path126"
             d="m 2361,3309 1332,333 -11,2197 11,0 11,0 11,-2205 0,-9 -8,-2 -1341,-335 -2,11 -3,10 z m 1340,335 -8,-2 0,-8 11,0 -3,10 z" />
        </g>
      </g>
    </g>
  </g>
</svg>
