<?xml version="1.0" encoding="UTF-8" standalone="no"?>
<!DOCTYPE svg PUBLIC "-//W3C//DTD SVG 1.0//EN" "http://www.w3.org/TR/2001/PR-SVG-20010719/DTD/svg10.dtd">
<svg width="36cm" height="11cm" viewBox="57 27 706 210" xmlns="http://www.w3.org/2000/svg" xmlns:xlink="http://www.w3.org/1999/xlink">
  <g>
    <rect style="fill: #ffffff" x="58.375" y="35" width="79.25" height="80"/>
    <rect style="fill: none; fill-opacity:0; stroke-width: 2; stroke: #000000" x="58.375" y="35" width="79.25" height="80"/>
    <text font-size="12.8" style="fill: #000000;text-anchor:middle;font-family:Lato;font-style:normal;font-weight:normal" x="98" y="79.65">
      <tspan x="98" y="79.65">6.0 or 6.1?</tspan>
    </text>
  </g>
  <g>
    <polygon style="fill: #ffffff" points="252.999,40 293.212,73.5533 252.999,107.107 212.786,73.5533 "/>
    <polygon style="fill: none; fill-opacity:0; stroke-width: 2; stroke: #000000" points="252.999,40 293.212,73.5533 252.999,107.107 212.786,73.5533 "/>
    <text font-size="12.8" style="fill: #000000;text-anchor:middle;font-family:sans-serif;font-style:normal;font-weight:normal" x="252.999" y="77.4533">
      <tspan x="252.999" y="77.4533"></tspan>
    </text>
  </g>
  <g>
    <line style="fill: none; fill-opacity:0; stroke-width: 2; stroke: #000000" x1="137.625" y1="75" x2="203.052" y2="73.7408"/>
    <polygon style="fill: #000000" points="210.55,73.5964 200.648,78.7879 203.052,73.7408 200.456,68.7898 "/>
    <polygon style="fill: none; fill-opacity:0; stroke-width: 2; stroke: #000000" points="210.55,73.5964 200.648,78.7879 203.052,73.7408 200.456,68.7898 "/>
  </g>
  <g>
    <rect style="fill: #ffffff" x="377.462" y="29" width="95.95" height="87"/>
    <rect style="fill: none; fill-opacity:0; stroke-width: 2; stroke: #000000" x="377.462" y="29" width="95.95" height="87"/>
    <text font-size="12.8" style="fill: #000000;text-anchor:middle;font-family:Lato;font-style:normal;font-weight:normal" x="425.437" y="61.15">
      <tspan x="425.437" y="61.15">Image </tspan>
      <tspan x="425.437" y="77.15">Gallery </tspan>
      <tspan x="425.437" y="93.15">(&lt;=6.0)?</tspan>
    </text>
  </g>
  <g>
    <line style="fill: none; fill-opacity:0; stroke-width: 2; stroke: #000000" x1="293.214" y1="73.5534" x2="367.727" y2="72.6217"/>
    <polygon style="fill: #000000" points="375.227,72.528 365.29,77.6526 367.727,72.6217 365.165,67.6534 "/>
    <polygon style="fill: none; fill-opacity:0; stroke-width: 2; stroke: #000000" points="375.227,72.528 365.29,77.6526 367.727,72.6217 365.165,67.6534 "/>
  </g>
  <text font-size="12.8" style="fill: #000000;text-anchor:start;font-family:Lato;font-style:normal;font-weight:normal" x="323" y="68">
    <tspan x="323" y="68">Yes</tspan>
  </text>
  <g>
    <rect style="fill: #ffffff" x="217.672" y="166" width="72.6568" height="70"/>
    <rect style="fill: none; fill-opacity:0; stroke-width: 2; stroke: #000000" x="217.672" y="166" width="72.6568" height="70"/>
    <text font-size="12.8" style="fill: #000000;text-anchor:middle;font-family:Lato;font-style:normal;font-weight:normal" x="254.001" y="189.65">
      <tspan x="254.001" y="189.65">Upgrade </tspan>
      <tspan x="254.001" y="205.65">to</tspan>
      <tspan x="254.001" y="221.65">Alg 6</tspan>
    </text>
  </g>
  <g>
    <line style="fill: none; fill-opacity:0; stroke-width: 2; stroke: #000000" x1="253" y1="107.107" x2="253.835" y2="156.265"/>
    <polygon style="fill: #000000" points="253.963,163.764 248.793,153.851 253.835,156.265 258.792,153.681 "/>
    <polygon style="fill: none; fill-opacity:0; stroke-width: 2; stroke: #000000" points="253.963,163.764 248.793,153.851 253.835,156.265 258.792,153.681 "/>
  </g>
  <text font-size="12.8" style="fill: #000000;text-anchor:start;font-family:Lato;font-style:normal;font-weight:normal" x="260" y="136">
    <tspan x="260" y="136">No</tspan>
  </text>
  <g>
    <polyline style="fill: none; fill-opacity:0; stroke-width: 2; stroke: #000000" points="290.329,201 425.437,201 425.437,125.736 "/>
    <polygon style="fill: #000000" points="425.437,118.236 430.437,128.236 425.437,125.736 420.437,128.236 "/>
    <polygon style="fill: none; fill-opacity:0; stroke-width: 2; stroke: #000000" points="425.437,118.236 430.437,128.236 425.437,125.736 420.437,128.236 "/>
  </g>
  <text font-size="12.7998" style="fill: #000000;text-anchor:start;font-family:sans-serif;font-style:normal;font-weight:normal" x="425.437" y="72.5">
    <tspan x="425.437" y="72.5"></tspan>
  </text>
  <text font-size="12.7998" style="fill: #000000;text-anchor:start;font-family:sans-serif;font-style:normal;font-weight:normal" x="425.437" y="72.5">
    <tspan x="425.437" y="72.5"></tspan>
  </text>
  <text font-size="12.7998" style="fill: #000000;text-anchor:start;font-family:sans-serif;font-style:normal;font-weight:normal" x="425.437" y="72.5">
    <tspan x="425.437" y="72.5"></tspan>
  </text>
  <g>
    <polygon style="fill: #ffffff" points="560.75,39.1 600,72.6533 560.75,106.207 521.5,72.6533 "/>
    <polygon style="fill: none; fill-opacity:0; stroke-width: 2; stroke: #000000" points="560.75,39.1 600,72.6533 560.75,106.207 521.5,72.6533 "/>
    <text font-size="12.8" style="fill: #000000;text-anchor:middle;font-family:sans-serif;font-style:normal;font-weight:normal" x="560.75" y="76.5533">
      <tspan x="560.75" y="76.5533"></tspan>
    </text>
  </g>
  <g>
    <rect style="fill: #ffffff" x="650.275" y="32" width="111.45" height="84"/>
    <rect style="fill: none; fill-opacity:0; stroke-width: 2; stroke: #000000" x="650.275" y="32" width="111.45" height="84"/>
    <text font-size="12.8" style="fill: #000000;text-anchor:middle;font-family:Lato;font-style:normal;font-weight:normal" x="706" y="70.65">
      <tspan x="706" y="70.65">Migrate to</tspan>
      <tspan x="706" y="86.65">Docs and Media</tspan>
    </text>
  </g>
  <g>
    <line style="fill: none; fill-opacity:0; stroke-width: 2; stroke: #000000" x1="473.412" y1="72.5" x2="511.764" y2="72.6223"/>
    <polygon style="fill: #000000" points="519.264,72.6462 509.248,77.6143 511.764,72.6223 509.28,67.6143 "/>
    <polygon style="fill: none; fill-opacity:0; stroke-width: 2; stroke: #000000" points="519.264,72.6462 509.248,77.6143 511.764,72.6223 509.28,67.6143 "/>
  </g>
  <g>
    <line style="fill: none; fill-opacity:0; stroke-width: 2; stroke: #000000" x1="600" y1="72.6533" x2="640.542" y2="73.7393"/>
    <polygon style="fill: #000000" points="648.04,73.9401 637.909,78.6706 640.542,73.7393 638.177,68.6741 "/>
    <polygon style="fill: none; fill-opacity:0; stroke-width: 2; stroke: #000000" points="648.04,73.9401 637.909,78.6706 640.542,73.7393 638.177,68.6741 "/>
  </g>
  <text font-size="12.8" style="fill: #000000;text-anchor:start;font-family:Lato;font-style:normal;font-weight:normal" x="607" y="67">
    <tspan x="607" y="67">Yes</tspan>
  </text>
  <g>
    <rect style="fill: #ffffff" x="667.897" y="168" width="70.2068" height="54"/>
    <rect style="fill: none; fill-opacity:0; stroke-width: 2; stroke: #000000" x="667.897" y="168" width="70.2068" height="54"/>
    <text font-size="12.8" style="fill: #000000;text-anchor:middle;font-family:Lato;font-style:normal;font-weight:normal" x="703" y="191.65">
      <tspan x="703" y="191.65">Upgrade</tspan>
      <tspan x="703" y="207.65">Plugins</tspan>
    </text>
  </g>
  <g>
    <rect style="fill: #ffffff" x="526.897" y="159" width="70.2068" height="70"/>
    <rect style="fill: none; fill-opacity:0; stroke-width: 2; stroke: #000000" x="526.897" y="159" width="70.2068" height="70"/>
    <text font-size="12.8" style="fill: #000000;text-anchor:middle;font-family:Lato;font-style:normal;font-weight:normal" x="562" y="182.65">
      <tspan x="562" y="182.65">Run</tspan>
      <tspan x="562" y="198.65">Upgrade</tspan>
      <tspan x="562" y="214.65">Process</tspan>
    </text>
  </g>
  <g>
    <line style="fill: none; fill-opacity:0; stroke-width: 2; stroke: #000000" x1="560.75" y1="106.207" x2="561.77" y2="149.267"/>
    <polygon style="fill: #000000" points="561.947,156.765 556.712,146.886 561.77,149.267 566.709,146.649 "/>
    <polygon style="fill: none; fill-opacity:0; stroke-width: 2; stroke: #000000" points="561.947,156.765 556.712,146.886 561.77,149.267 566.709,146.649 "/>
  </g>
  <text font-size="12.8" style="fill: #000000;text-anchor:start;font-family:Lato;font-style:normal;font-weight:normal" x="569" y="133">
    <tspan x="569" y="133">No</tspan>
  </text>
  <g>
    <line style="fill: none; fill-opacity:0; stroke-width: 2; stroke: #000000" x1="597.103" y1="194" x2="658.161" y2="194.862"/>
    <polygon style="fill: #000000" points="665.661,194.968 655.591,199.827 658.161,194.862 655.732,189.828 "/>
    <polygon style="fill: none; fill-opacity:0; stroke-width: 2; stroke: #000000" points="665.661,194.968 655.591,199.827 658.161,194.862 655.732,189.828 "/>
  </g>
  <g>
    <polyline style="fill: none; fill-opacity:0; stroke-width: 2; stroke: #000000" points="706,116 706,137.5 579.552,137.5 579.552,149.264 "/>
    <polygon style="fill: #000000" points="579.552,156.764 574.552,146.764 579.552,149.264 584.552,146.764 "/>
    <polygon style="fill: none; fill-opacity:0; stroke-width: 2; stroke: #000000" points="579.552,156.764 574.552,146.764 579.552,149.264 584.552,146.764 "/>
  </g>
  <text font-size="12.7998" style="fill: #000000;text-anchor:start;font-family:sans-serif;font-style:normal;font-weight:normal" x="98" y="75">
    <tspan x="98" y="75"></tspan>
  </text>
</svg>
