<?xml version="1.0" encoding="UTF-8" standalone="no"?>
<!-- Created with Inkscape (http://www.inkscape.org/) -->
<svg
   xmlns:svg="http://www.w3.org/2000/svg"
   xmlns="http://www.w3.org/2000/svg"
   version="1.0"
   width="297.26001"
   height="100.02"
   id="svg2695">
  <defs
     id="defs2698" />
  <path
     d="M 185.92777,59.628536 C 185.92777,59.628572 185.92778,59.628608 185.92778,59.628644"
     transform="translate(-48.37617,-68.9)"
     style="opacity:1;fill:#51504c;fill-opacity:1;fill-rule:evenodd;stroke:#51504c;stroke-width:2;stroke-miterlimit:4;stroke-dasharray:none;stroke-dashoffset:0;stroke-opacity:1"
     id="path2788" />
  <path
     transform="translate(-48.37617,-68.9)"
     style="opacity:1;fill:#51504c;fill-opacity:1;fill-rule:evenodd;stroke:#51504c;stroke-width:2;stroke-miterlimit:4;stroke-dasharray:none;stroke-dashoffset:0;stroke-opacity:1"
     id="path2790" />
  <g
     id="g9887">
    <g
       id="g9834">
      <rect
         width="266.25513"
         height="54.873371"
         x="0.5000006"
         y="0.64559942"
         style="fill:#45443f;fill-opacity:1;fill-rule:evenodd;stroke:black;stroke-width:1;stroke-miterlimit:4;stroke-dasharray:none;stroke-dashoffset:0;stroke-opacity:1"
         id="rect2934" />
      <rect
         width="40.081417"
         height="10.974674"
         x="15.769113"
         y="21.640633"
         style="fill:#566380;fill-opacity:1;fill-rule:evenodd;stroke:black;stroke-width:1;stroke-miterlimit:4;stroke-dasharray:none;stroke-dashoffset:0;stroke-opacity:1"
         id="rect3821" />
      <path
         d="M 12.666394,0.85357 L 254.85047,0.50002 C 254.85047,0.50002 256.26468,10.39952 247.07229,11.10662 C 237.8799,11.81373 167.87633,14.2886 167.87633,14.2886 L 90.80169,14.2886 L 25.39432,10.75307 C 25.39432,10.75307 15.494821,9.69241 12.666394,0.85357 z "
         style="fill:#54504b;fill-opacity:1;fill-rule:evenodd;stroke:black;stroke-width:1px;stroke-linecap:butt;stroke-linejoin:miter;stroke-opacity:1"
         id="path2715" />
      <path
         d="M 259.30335,54.6741 L 13.628534,55.05373 C 13.628534,55.05373 12.19394,44.42408 21.518825,43.66482 C 30.84371,42.90556 101.85629,40.24814 101.85629,40.24814 L 180.04185,40.24814 L 246.39198,44.04445 C 246.39198,44.04445 256.43416,45.18333 259.30335,54.6741 z "
         style="fill:#31302c;fill-opacity:1;fill-rule:evenodd;stroke:black;stroke-width:1.04366326px;stroke-linecap:butt;stroke-linejoin:miter;stroke-opacity:1"
         id="path2717" />
      <g
         transform="translate(-75.57716,-124.3153)"
         id="g2834">
        <path
           d="M 241.45038,169.62826 L 249.18436,169.62826 L 241.45038,169.62826 z "
           style="fill:none;fill-rule:evenodd;stroke:black;stroke-width:1px;stroke-linecap:butt;stroke-linejoin:miter;stroke-opacity:1"
           id="path2739" />
        <path
           d="M 241.22941,168.61181 C 243.88106,168.62654 246.53271,168.64127 249.18437,168.65599"
           style="fill:#5b5853;fill-opacity:1;fill-rule:evenodd;stroke:#423e3b;stroke-width:1px;stroke-linecap:butt;stroke-linejoin:miter;stroke-opacity:1"
           id="path2741" />
        <path
           d="M 249.47611,165.38428 C 249.4782,165.93378 247.47916,166.37949 245.0125,166.37949 C 242.54584,166.37949 240.5468,165.93378 240.54889,165.38428 C 240.5468,164.83478 242.54584,164.38907 245.0125,164.38907 C 247.47916,164.38907 249.4782,164.83478 249.47611,165.38428 z "
           transform="matrix(0.916287,0,0,1.029105,20.76423,2.015847)"
           style="fill:#20201c;fill-opacity:1;fill-rule:evenodd;stroke:#20201c;stroke-width:2;stroke-miterlimit:4;stroke-dasharray:none;stroke-dashoffset:0;stroke-opacity:1"
           id="path2745" />
        <path
           d="M 239.90359,168.74438 C 239.84466,168.74438 239.84466,168.74438 239.90359,168.74438 z "
           style="fill:none;fill-rule:evenodd;stroke:black;stroke-width:1px;stroke-linecap:butt;stroke-linejoin:miter;stroke-opacity:1"
           id="path2747" />
        <path
           d="M 239.63842,170.24698 L 239.63842,174.09187"
           style="fill:#1f1e1c;fill-opacity:1;fill-rule:evenodd;stroke:#1b1a18;stroke-width:1px;stroke-linecap:butt;stroke-linejoin:miter;stroke-opacity:1"
           id="path2752" />
        <path
           d="M 237.25193,173.78252 L 239.99197,173.82671"
           style="fill:#1b1a18;fill-opacity:1;fill-rule:evenodd;stroke:#1b1a18;stroke-width:1px;stroke-linecap:butt;stroke-linejoin:miter;stroke-opacity:1"
           id="path2754" />
        <path
           d="M 250.81955,170.20279 L 250.90793,174.13607"
           style="fill:#1b1a18;fill-opacity:1;fill-rule:evenodd;stroke:#1b1a18;stroke-width:1px;stroke-linecap:butt;stroke-linejoin:miter;stroke-opacity:1"
           id="path2756" />
        <path
           d="M 254.2225,173.64993 L 250.4218,173.60574"
           style="fill:#1b1a18;fill-opacity:1;fill-rule:evenodd;stroke:#1b1a18;stroke-width:1px;stroke-linecap:butt;stroke-linejoin:miter;stroke-opacity:1"
           id="path2758" />
        <path
           d="M 240.16875,168.70019 L 238.2684,168.70019"
           style="fill:none;fill-rule:evenodd;stroke:#22211f;stroke-width:1px;stroke-linecap:butt;stroke-linejoin:miter;stroke-opacity:1"
           id="path2760" />
        <path
           d="M 238.62195,168.30244 L 238.66615,170.0702"
           style="fill:none;fill-rule:evenodd;stroke:#22211f;stroke-width:1px;stroke-linecap:butt;stroke-linejoin:miter;stroke-opacity:1"
           id="path2762" />
        <path
           d="M 250.20083,168.65599 L 252.23376,168.70019"
           style="fill:none;fill-rule:evenodd;stroke:#22211f;stroke-width:1px;stroke-linecap:butt;stroke-linejoin:miter;stroke-opacity:1"
           id="path2764" />
        <path
           d="M 251.74762,168.25824 L 251.79182,170.0702"
           style="fill:none;fill-rule:evenodd;stroke:#22211f;stroke-width:1px;stroke-linecap:butt;stroke-linejoin:miter;stroke-opacity:1"
           id="path2766" />
        <path
           d="M 241.36199,174.75479 L 250.15663,174.71059"
           style="fill:#1b1a18;fill-opacity:1;fill-rule:evenodd;stroke:#1b1a18;stroke-width:1px;stroke-linecap:butt;stroke-linejoin:miter;stroke-opacity:1"
           id="path2768" />
        <path
           d="M 237.05892,164.71432 C 237.05892,165.04373 236.75182,165.31077 236.373,165.31077 C 235.99418,165.31077 235.68708,165.04373 235.68708,164.71432 C 235.68708,164.38491 235.99418,164.11787 236.373,164.11787 C 236.75182,164.11787 237.05892,164.38491 237.05892,164.71432 z "
           transform="translate(0.23858,6.829349)"
           style="fill:#44423d;fill-opacity:1;fill-rule:evenodd;stroke:#44413c;stroke-width:2;stroke-miterlimit:4;stroke-dasharray:none;stroke-dashoffset:0;stroke-opacity:1"
           id="path2798" />
        <path
           d="M 237.05892,164.71432 C 237.05892,165.04373 236.75182,165.31077 236.373,165.31077 C 235.99418,165.31077 235.68708,165.04373 235.68708,164.71432 C 235.68708,164.38491 235.99418,164.11787 236.373,164.11787 C 236.75182,164.11787 237.05892,164.38491 237.05892,164.71432 z "
           transform="translate(17.44616,6.769701)"
           style="fill:#44413c;fill-opacity:1;fill-rule:evenodd;stroke:#44413c;stroke-width:2;stroke-miterlimit:4;stroke-dasharray:none;stroke-dashoffset:0;stroke-opacity:1"
           id="path2800" />
      </g>
      <g
         transform="translate(-75.3684,-117.486)"
         id="g2884">
        <g
           id="g2864">
          <rect
             width="5.3680472"
             height="2.7436686"
             x="264.58505"
             y="163.43196"
             style="opacity:1;fill:#070604;fill-opacity:1;fill-rule:evenodd;stroke:#070604;stroke-width:2;stroke-miterlimit:4;stroke-dasharray:none;stroke-dashoffset:0;stroke-opacity:1"
             id="rect2853" />
          <rect
             width="0.98414195"
             height="0.029822484"
             x="263.89917"
             y="166.32474"
             style="opacity:1;fill:#817b75;fill-opacity:1;fill-rule:evenodd;stroke:#78736f;stroke-width:2;stroke-miterlimit:4;stroke-dasharray:none;stroke-dashoffset:0;stroke-opacity:1"
             id="rect2860" />
          <rect
             width="0.98414195"
             height="0.029822484"
             x="269.81894"
             y="166.33965"
             style="opacity:1;fill:#817b75;fill-opacity:1;fill-rule:evenodd;stroke:#78736f;stroke-width:2;stroke-miterlimit:4;stroke-dasharray:none;stroke-dashoffset:0;stroke-opacity:1"
             id="rect2862" />
        </g>
        <path
           d="M 259.02318,162.77586 L 261.91596,162.77586"
           style="fill:#2a6e48;fill-opacity:1;fill-rule:evenodd;stroke:#2c5a3e;stroke-width:1px;stroke-linecap:butt;stroke-linejoin:miter;stroke-opacity:1"
           id="path2880" />
        <path
           d="M 258.90389,165.84757 L 261.79667,165.84757"
           style="fill:#2a6e48;fill-opacity:1;fill-rule:evenodd;stroke:#2c5a3e;stroke-width:1px;stroke-linecap:butt;stroke-linejoin:miter;stroke-opacity:1"
           id="path2882" />
      </g>
      <g
         transform="translate(-59.21604,-117.5049)"
         id="g2892">
        <g
           id="g2894">
          <rect
             width="5.3680472"
             height="2.7436686"
             x="264.58505"
             y="163.43196"
             style="opacity:1;fill:#070604;fill-opacity:1;fill-rule:evenodd;stroke:#070604;stroke-width:2;stroke-miterlimit:4;stroke-dasharray:none;stroke-dashoffset:0;stroke-opacity:1"
             id="rect2896" />
          <rect
             width="0.98414195"
             height="0.029822484"
             x="263.89917"
             y="166.32474"
             style="opacity:1;fill:#817b75;fill-opacity:1;fill-rule:evenodd;stroke:#78736f;stroke-width:2;stroke-miterlimit:4;stroke-dasharray:none;stroke-dashoffset:0;stroke-opacity:1"
             id="rect2898" />
          <rect
             width="0.98414195"
             height="0.029822484"
             x="269.81894"
             y="166.33965"
             style="opacity:1;fill:#817b75;fill-opacity:1;fill-rule:evenodd;stroke:#78736f;stroke-width:2;stroke-miterlimit:4;stroke-dasharray:none;stroke-dashoffset:0;stroke-opacity:1"
             id="rect2900" />
        </g>
        <path
           d="M 259.02318,162.77586 L 261.91596,162.77586"
           style="fill:#2a6e48;fill-opacity:1;fill-rule:evenodd;stroke:#2c5a3e;stroke-width:1px;stroke-linecap:butt;stroke-linejoin:miter;stroke-opacity:1"
           id="path2902" />
        <path
           d="M 258.90389,165.84757 L 261.79667,165.84757"
           style="fill:#2a6e48;fill-opacity:1;fill-rule:evenodd;stroke:#2c5a3e;stroke-width:1px;stroke-linecap:butt;stroke-linejoin:miter;stroke-opacity:1"
           id="path2904" />
      </g>
      <g
         transform="translate(-43.20137,-117.4452)"
         id="g2906">
        <g
           id="g2908">
          <rect
             width="5.3680472"
             height="2.7436686"
             x="264.58505"
             y="163.43196"
             style="opacity:1;fill:#070604;fill-opacity:1;fill-rule:evenodd;stroke:#070604;stroke-width:2;stroke-miterlimit:4;stroke-dasharray:none;stroke-dashoffset:0;stroke-opacity:1"
             id="rect2910" />
          <rect
             width="0.98414195"
             height="0.029822484"
             x="263.89917"
             y="166.32474"
             style="opacity:1;fill:#817b75;fill-opacity:1;fill-rule:evenodd;stroke:#78736f;stroke-width:2;stroke-miterlimit:4;stroke-dasharray:none;stroke-dashoffset:0;stroke-opacity:1"
             id="rect2912" />
          <rect
             width="0.98414195"
             height="0.029822484"
             x="269.81894"
             y="166.33965"
             style="opacity:1;fill:#817b75;fill-opacity:1;fill-rule:evenodd;stroke:#78736f;stroke-width:2;stroke-miterlimit:4;stroke-dasharray:none;stroke-dashoffset:0;stroke-opacity:1"
             id="rect2914" />
        </g>
        <path
           d="M 259.02318,162.77586 L 261.91596,162.77586"
           style="fill:#2a6e48;fill-opacity:1;fill-rule:evenodd;stroke:#2c5a3e;stroke-width:1px;stroke-linecap:butt;stroke-linejoin:miter;stroke-opacity:1"
           id="path2916" />
        <path
           d="M 258.90389,165.84757 L 261.79667,165.84757"
           style="fill:#2a6e48;fill-opacity:1;fill-rule:evenodd;stroke:#2c5a3e;stroke-width:1px;stroke-linecap:butt;stroke-linejoin:miter;stroke-opacity:1"
           id="path2918" />
      </g>
      <g
         transform="translate(-26.35166,-117.4452)"
         id="g2920">
        <g
           id="g2922">
          <rect
             width="5.3680472"
             height="2.7436686"
             x="264.58505"
             y="163.43196"
             style="opacity:1;fill:#070604;fill-opacity:1;fill-rule:evenodd;stroke:#070604;stroke-width:2;stroke-miterlimit:4;stroke-dasharray:none;stroke-dashoffset:0;stroke-opacity:1"
             id="rect2924" />
          <rect
             width="0.98414195"
             height="0.029822484"
             x="263.89917"
             y="166.32474"
             style="opacity:1;fill:#817b75;fill-opacity:1;fill-rule:evenodd;stroke:#78736f;stroke-width:2;stroke-miterlimit:4;stroke-dasharray:none;stroke-dashoffset:0;stroke-opacity:1"
             id="rect2926" />
          <rect
             width="0.98414195"
             height="0.029822484"
             x="269.81894"
             y="166.33965"
             style="opacity:1;fill:#817b75;fill-opacity:1;fill-rule:evenodd;stroke:#78736f;stroke-width:2;stroke-miterlimit:4;stroke-dasharray:none;stroke-dashoffset:0;stroke-opacity:1"
             id="rect2928" />
        </g>
        <path
           d="M 259.02318,162.77586 L 261.91596,162.77586"
           style="fill:#2a6e48;fill-opacity:1;fill-rule:evenodd;stroke:#2c5a3e;stroke-width:1px;stroke-linecap:butt;stroke-linejoin:miter;stroke-opacity:1"
           id="path2930" />
        <path
           d="M 258.90389,165.84757 L 261.79667,165.84757"
           style="fill:#2a6e48;fill-opacity:1;fill-rule:evenodd;stroke:#2c5a3e;stroke-width:1px;stroke-linecap:butt;stroke-linejoin:miter;stroke-opacity:1"
           id="path2932" />
      </g>
      <text
         x="75.941887"
         y="32.078869"
         style="font-size:14px;font-weight:bold;fill:white;stroke:white;stroke-width:1"
         id="flowPara3829">CITRIX</text>
      <path
         d="M 166.21309,137.04218 C 166.21387,137.36656 166.00101,137.66656 165.65489,137.82893 C 165.30877,137.9913 164.88212,137.9913 164.536,137.82893 C 164.18988,137.66656 163.97702,137.36656 163.9778,137.04218 C 163.97702,136.7178 164.18988,136.4178 164.536,136.25543 C 164.88212,136.09306 165.30877,136.09306 165.65489,136.25543 C 166.00101,136.4178 166.21387,136.7178 166.21309,137.04218 L 166.21309,137.04218 z "
         transform="translate(-76.16973,-117.6969)"
         style="fill:#df132c;fill-opacity:1;fill-rule:evenodd;stroke:#df132c;stroke-width:1;stroke-miterlimit:4;stroke-dasharray:none;stroke-dashoffset:0;stroke-opacity:1"
         id="path3831" />
      <path
         d="M 166.21309,137.04218 C 166.21387,137.36656 166.00101,137.66656 165.65489,137.82893 C 165.30877,137.9913 164.88212,137.9913 164.536,137.82893 C 164.18988,137.66656 163.97702,137.36656 163.9778,137.04218 C 163.97702,136.7178 164.18988,136.4178 164.536,136.25543 C 164.88212,136.09306 165.30877,136.09306 165.65489,136.25543 C 166.00101,136.4178 166.21387,136.7178 166.21309,137.04218 L 166.21309,137.04218 z "
         transform="translate(-50.5808,-102.408)"
         style="fill:#df132c;fill-opacity:1;fill-rule:evenodd;stroke:#df132c;stroke-width:1;stroke-miterlimit:4;stroke-dasharray:none;stroke-dashoffset:0;stroke-opacity:1"
         id="path3833" />
    </g>
    <text
       x="59.137371"
       y="78.013901"
       style="font-size:22px"
       id="flowPara9329">Netscaler 9000</text>
  </g>
</svg>
