<?xml version="1.0" encoding="UTF-8" standalone="no"?>
<svg
   xmlns:dc="http://purl.org/dc/elements/1.1/"
   xmlns:cc="http://creativecommons.org/ns#"
   xmlns:rdf="http://www.w3.org/1999/02/22-rdf-syntax-ns#"
   xmlns:svg="http://www.w3.org/2000/svg"
   xmlns="http://www.w3.org/2000/svg"
   xmlns:xlink="http://www.w3.org/1999/xlink"
   xmlns:sodipodi="http://sodipodi.sourceforge.net/DTD/sodipodi-0.dtd"
   xmlns:inkscape="http://www.inkscape.org/namespaces/inkscape"
   id="svg2"
   viewBox="0 0 1150 746.5"
   version="1.1"
   inkscape:version="0.48.4 r9939"
   width="100%"
   height="100%"
   sodipodi:docname="web-jar-localized.svg"
   inkscape:export-filename="/home/russell/Documents/code/liferay-docs/develop/tutorials/images/web-jar-localized.png"
   inkscape:export-xdpi="90"
   inkscape:export-ydpi="90">
  <sodipodi:namedview
     pagecolor="#ffffff"
     bordercolor="#666666"
     borderopacity="1"
     objecttolerance="10"
     gridtolerance="10"
     guidetolerance="10"
     inkscape:pageopacity="0"
     inkscape:pageshadow="2"
     inkscape:window-width="1099"
     inkscape:window-height="783"
     id="namedview80"
     showgrid="false"
     inkscape:zoom="0.41043478"
     inkscape:cx="496.36941"
     inkscape:cy="410.04945"
     inkscape:window-x="664"
     inkscape:window-y="209"
     inkscape:window-maximized="0"
     inkscape:current-layer="svg2" />
  <defs
     id="defs6">
    <clipPath
       id="clipPath3797"
       clipPathUnits="userSpaceOnUse">
      <path
         id="path3799"
         d="m 466,189.25 v 1.2812 l -259,6.97 c 0,0 13,44 8,59 -5,15 -97,103.19 -97,193.5 v 566 c 0,0 15.75,75.25 29.5,106.5 13.75,31.25 32.5,88.75 113.75,98.75 75.811,4.2286 79.478,12.75 228.75,12.75 149.272,0 154.26,-3.9563 228.75,-12.75 81.25,-10 100,-67.5 113.75,-98.75 13.75,-31.2 29.5,-106.4 29.5,-106.4 v -566 c 0,-90.312 -92,-178.5 -97,-193.5 -5,-15 8,-59 8,-59 l -259,-6.9688 v -1.2812 l -24,0.65625 z"
         inkscape:connector-curvature="0"
         style="fill:#729fcf" />
    </clipPath>
    <clipPath
       id="clipPath3801"
       clipPathUnits="userSpaceOnUse">
      <path
         id="path3803"
         d="m 466,189.25 v 1.2812 l -259,6.97 c 0,0 13,44 8,59 -5,15 -97,103.19 -97,193.5 v 566 c 0,0 15.75,75.25 29.5,106.5 13.75,31.25 32.5,88.75 113.75,98.75 75.811,4.2286 79.478,12.75 228.75,12.75 149.272,0 154.26,-3.9563 228.75,-12.75 81.25,-10 100,-67.5 113.75,-98.75 13.75,-31.2 29.5,-106.4 29.5,-106.4 v -566 c 0,-90.312 -92,-178.5 -97,-193.5 -5,-15 8,-59 8,-59 l -259,-6.9688 v -1.2812 l -24,0.65625 z"
         inkscape:connector-curvature="0"
         style="fill:#729fcf" />
    </clipPath>
    <linearGradient
       id="linearGradient3827"
       y2="237.36"
       gradientUnits="userSpaceOnUse"
       y1="408"
       x2="566"
       x1="566">
      <stop
         id="stop3823"
         stop-opacity=".16471"
         offset="0" />
      <stop
         id="stop3879"
         stop-opacity=".14118"
         offset=".5" />
      <stop
         id="stop3825"
         stop-opacity="0"
         offset="1" />
    </linearGradient>
    <clipPath
       id="clipPath3831"
       clipPathUnits="userSpaceOnUse">
      <path
         id="path3833"
         d="m 466,189.25 v 1.2812 l -259,6.97 c 0,0 13,44 8,59 -5,15 -97,103.19 -97,193.5 v 566 c 0,0 15.75,75.25 29.5,106.5 13.75,31.25 32.5,88.75 113.75,98.75 75.811,4.2286 79.478,12.75 228.75,12.75 149.272,0 154.26,-3.9563 228.75,-12.75 81.25,-10 100,-67.5 113.75,-98.75 13.75,-31.2 29.5,-106.4 29.5,-106.4 v -566 c 0,-90.312 -92,-178.5 -97,-193.5 -5,-15 8,-59 8,-59 l -259,-6.9688 v -1.2812 l -24,0.65625 z"
         inkscape:connector-curvature="0"
         style="fill:#ad7fa8" />
    </clipPath>
    <filter
       id="filter3875"
       color-interpolation-filters="sRGB">
      <feGaussianBlur
         id="feGaussianBlur3877"
         stdDeviation="5.13" />
    </filter>
    <clipPath
       id="clipPath3883"
       clipPathUnits="userSpaceOnUse">
      <path
         id="path3885"
         d="m 466,189.25 v 1.2812 l -259,6.97 c 0,0 13,44 8,59 -5,15 -97,103.19 -97,193.5 v 566 c 0,0 15.75,75.25 29.5,106.5 13.75,31.25 32.5,88.75 113.75,98.75 75.811,4.2286 79.478,12.75 228.75,12.75 149.272,0 154.26,-3.9563 228.75,-12.75 81.25,-10 100,-67.5 113.75,-98.75 13.75,-31.2 29.5,-106.4 29.5,-106.4 v -566 c 0,-90.312 -92,-178.5 -97,-193.5 -5,-15 8,-59 8,-59 l -259,-6.9688 v -1.2812 l -24,0.65625 z"
         inkscape:connector-curvature="0"
         style="fill:#e9b96e" />
    </clipPath>
    <filter
       id="filter3925"
       width="1.2183"
       y="-0.041370999"
       x="-0.10915"
       height="1.0827"
       color-interpolation-filters="sRGB">
      <feGaussianBlur
         id="feGaussianBlur3927"
         stdDeviation="18.009431" />
    </filter>
    <filter
       id="filter3937"
       width="1.2183"
       y="-0.041370999"
       x="-0.10915"
       height="1.0827"
       color-interpolation-filters="sRGB">
      <feGaussianBlur
         id="feGaussianBlur3939"
         stdDeviation="18.009431" />
    </filter>
    <clipPath
       id="clipPath3992"
       clipPathUnits="userSpaceOnUse">
      <path
         id="path3994"
         d="m 466,189.25 v 1.2812 l -259,6.97 c 0,0 13,44 8,59 -5,15 -97,103.19 -97,193.5 v 566 c 0,0 15.75,75.25 29.5,106.5 13.75,31.25 32.5,88.75 113.75,98.75 75.811,4.2286 79.478,12.75 228.75,12.75 149.272,0 154.26,-3.9563 228.75,-12.75 81.25,-10 100,-67.5 113.75,-98.75 13.75,-31.2 29.5,-106.4 29.5,-106.4 v -566 c 0,-90.312 -92,-178.5 -97,-193.5 -5,-15 8,-59 8,-59 l -259,-6.9688 v -1.2812 l -24,0.65625 z"
         inkscape:connector-curvature="0"
         style="fill:#ad7fa8" />
    </clipPath>
    <filter
       id="filter3996"
       width="2.6535001"
       y="-0.33816999"
       x="-0.82673001"
       height="1.6763"
       color-interpolation-filters="sRGB">
      <feGaussianBlur
         id="feGaussianBlur3998"
         stdDeviation="146.4" />
    </filter>
    <clipPath
       id="clipPath3810"
       clipPathUnits="userSpaceOnUse">
      <path
         id="path3812"
         d="m 490,85 c -94.287,0 -275.65,5.4645 -282.72,9 -6.4786,3.2393 -18.375,17.771 -20.406,20.281 28.61,-5.33 104.5,-13.28 303.13,-13.28 198.63,0 274.52,7.9481 303.12,13.281 -2.03,-2.51 -13.92,-17.041 -20.4,-20.28 -7.07,-3.536 -188.43,-9 -282.72,-9 z"
         inkscape:connector-curvature="0"
         style="fill:#204a87" />
    </clipPath>
    <clipPath
       id="clipPath3814"
       clipPathUnits="userSpaceOnUse">
      <path
         id="path3816"
         d="m 490,85 c -94.287,0 -275.65,5.4645 -282.72,9 -6.4786,3.2393 -18.375,17.771 -20.406,20.281 28.61,-5.33 104.5,-13.28 303.13,-13.28 198.63,0 274.52,7.9481 303.12,13.281 -2.03,-2.51 -13.92,-17.041 -20.4,-20.28 -7.07,-3.536 -188.43,-9 -282.72,-9 z"
         inkscape:connector-curvature="0"
         style="fill:#204a87" />
    </clipPath>
    <filter
       id="filter3863"
       width="1.0371"
       y="-0.61686999"
       x="-0.018541001"
       height="2.2337"
       color-interpolation-filters="sRGB">
      <feGaussianBlur
         id="feGaussianBlur3865"
         stdDeviation="4.6907812" />
    </filter>
    <filter
       id="filter3867"
       width="1.0369"
       y="-0.75788999"
       x="-0.018438"
       height="2.5158"
       color-interpolation-filters="sRGB">
      <feGaussianBlur
         id="feGaussianBlur3869"
         stdDeviation="4.3612365" />
    </filter>
    <clipPath
       id="clipPath3884"
       clipPathUnits="userSpaceOnUse">
      <path
         id="path3886"
         d="m 490,85 c -94.287,0 -275.65,5.4645 -282.72,9 -7.0711,3.5355 -21.188,21.219 -21.188,21.219 V 193 l 10.812,5.3125 c 0,0 144.73,-5.3125 190.69,-5.3125 h 204.81 c 45.962,0 190.69,5.3125 190.69,5.3125 L 793.906,193 v -77.781 c 0,0 -14.116,-17.683 -21.188,-21.219 -7.06,-3.537 -188.42,-9.001 -282.71,-9.001 z"
         inkscape:connector-curvature="0"
         style="fill:#3465a4" />
    </clipPath>
    <filter
       id="filter3900"
       width="3.1324"
       y="-0.21656001"
       x="-1.0662"
       height="1.4331"
       color-interpolation-filters="sRGB">
      <feGaussianBlur
         id="feGaussianBlur3902"
         stdDeviation="9.4125" />
    </filter>
    <filter
       id="filter3936"
       width="1.0124"
       y="-0.19855"
       x="-0.0061869998"
       height="1.3971"
       color-interpolation-filters="sRGB">
      <feGaussianBlur
         id="feGaussianBlur3938"
         stdDeviation="1.6070004" />
    </filter>
    <clipPath
       id="clipPath3946"
       clipPathUnits="userSpaceOnUse">
      <path
         id="path3948"
         d="m 490,125 c -101.94,0 -197.92,0.0384 -303.94,9.3438 -5.2064,0.90051 -7.75,2.0106 -7.75,5.8438 0,3.8331 0.98984,4.9543 7.6875,3.8125 102.7,-8.8558 202.17,-9 304,-9 101.83,0 201.3,0.14425 304,9 6.6977,1.1418 7.6875,0.0206 7.6875,-3.8125 0,-3.8332 -2.5436,-4.9432 -7.75,-5.8438 -106.02,-9.3 -202,-9.34 -303.94,-9.34 z"
         inkscape:connector-curvature="0"
         style="fill:#204a87" />
    </clipPath>
    <linearGradient
       id="linearGradient3875"
       x1="479.13"
       gradientUnits="userSpaceOnUse"
       y1="1233.8"
       gradientTransform="translate(-8,0)"
       x2="479.13"
       y2="189.58">
      <stop
         id="stop3863"
         offset="0" />
      <stop
         id="stop3865"
         stop-color="#FFF"
         offset=".66444" />
      <stop
         id="stop3867"
         stop-color="#FFF"
         offset=".95952" />
      <stop
         id="stop3869"
         offset="1" />
    </linearGradient>
    <mask
       id="mask3871"
       maskUnits="userSpaceOnUse">
      <rect
         id="rect3873"
         height="1044.1"
         width="296.34"
         y="188.33"
         x="75.086998"
         style="fill:url(#linearGradient3875)" />
    </mask>
    <clipPath
       id="clipPath3921"
       clipPathUnits="userSpaceOnUse">
      <path
         id="path3923"
         d="m 466,189.25 v 1.2812 l -259,6.97 c 0,0 13,44 8,59 -5,15 -97,103.19 -97,193.5 v 566 c 0,0 15.75,75.25 29.5,106.5 13.75,31.25 32.5,88.75 113.75,98.75 75.811,4.2286 79.478,12.75 228.75,12.75 149.272,0 154.26,-3.9563 228.75,-12.75 81.25,-10 100,-67.5 113.75,-98.75 13.75,-31.2 29.5,-106.4 29.5,-106.4 v -566 c 0,-90.312 -92,-178.5 -97,-193.5 -5,-15 8,-59 8,-59 l -259,-6.9688 v -1.2812 l -24,0.65625 z"
         inkscape:connector-curvature="0"
         style="opacity:0.33000004;fill:#ef2929" />
    </clipPath>
    <filter
       id="filter3938"
       width="1.0264"
       y="-0.13322"
       x="-0.013188"
       height="1.2664"
       color-interpolation-filters="sRGB">
      <feGaussianBlur
         id="feGaussianBlur3940"
         stdDeviation="3.4917185" />
    </filter>
    <filter
       id="filter3950"
       width="1.0965"
       y="-0.32317001"
       x="-0.048273999"
       height="1.6463"
       color-interpolation-filters="sRGB">
      <feGaussianBlur
         id="feGaussianBlur3952"
         stdDeviation="13.59586" />
    </filter>
    <linearGradient
       id="linearGradient4082"
       y2="627.12"
       gradientUnits="userSpaceOnUse"
       y1="627.12"
       x2="746.5"
       x1="1.5"
       gradientTransform="matrix(1.9107378,0,0,1.1000222,-1.2676417,0.96182637)">
      <stop
         id="stop4078"
         offset="0" />
      <stop
         id="stop4080"
         stop-opacity=".49412"
         offset="1" />
    </linearGradient>
    <linearGradient
       inkscape:collect="always"
       xlink:href="#linearGradient3827"
       id="linearGradient3266"
       gradientUnits="userSpaceOnUse"
       x1="566"
       y1="408"
       x2="566"
       y2="237.36" />
    <linearGradient
       inkscape:collect="always"
       xlink:href="#linearGradient4082"
       id="linearGradient3268"
       gradientUnits="userSpaceOnUse"
       gradientTransform="matrix(0.99692634,0,0,0.59646345,188.68637,45.376736)"
       x1="1.5"
       y1="627.12"
       x2="746.5"
       y2="627.12" />
  </defs>
  <path
     id="path3830"
     d="m 279.40666,112.7771 c 0,0 12.96004,26.24441 7.97542,35.19135 -4.98464,8.94694 -96.70186,61.54907 -96.70186,115.41567 v 337.59831 c 0,0 15.70159,44.88383 29.40933,63.52333 13.70773,18.6395 32.4001,52.93613 113.40037,58.90076 75.57798,2.52223 79.23371,7.60489 228.0469,7.60489 148.81318,0 153.78584,-2.35976 228.0469,-7.60489 81.00026,-5.96463 99.6927,-40.26126 113.40033,-58.90076 13.70779,-18.6395 29.40942,-63.52333 29.40942,-63.52333 V 263.38412 c 0,-53.8666 -91.71729,-106.46873 -96.70192,-115.41567 -4.98465,-8.94694 7.97541,-35.19135 7.97541,-35.19135"
     style="opacity:0.5;fill:none;stroke:url(#linearGradient3268);stroke-width:0.77112263"
     inkscape:connector-curvature="0" />
  <path
     id="path3807"
     d="m 152.03,1133 c 13.807,32.178 36.386,79.255 109.22,88.219 75.811,4.2286 79.478,12.75 228.75,12.75 149.272,0 154.26,-3.9563 228.75,-12.75 72.833,-8.964 95.411,-56.04 109.22,-88.219 -25.16,14.9 -102.37,39.5 -337.97,39.5 -235.6,0 -312.81,-24.608 -337.97,-39.469 z"
     clip-path="url(#clipPath3883)"
     transform="matrix(0.99692634,0,0,0.59646345,73.042916,-5.0244249)"
     inkscape:connector-curvature="0"
     style="opacity:0.8;fill-opacity:0.18824002;filter:url(#filter3950)" />
  <path
     id="path2987"
     d="m 561.53682,45.674966 c -93.9972,0 -274.80275,3.259379 -281.85102,5.368176 -7.04936,2.10879 -21.12288,12.656357 -21.12288,12.656357 v 46.393531 l 10.77877,3.1687 c 0,0 144.28515,-3.1687 190.10389,-3.1687 h 204.18048 c 45.82073,0 190.10384,3.1687 190.10384,3.1687 l 10.77887,-3.1687 V 63.699499 c 0,0 -14.07269,-10.547264 -21.12293,-12.656357 -7.0383,-2.108797 -187.84087,-5.368176 -281.84106,-5.368176 z"
     inkscape:connector-curvature="0"
     style="fill-opacity:0.03921599" />
  <path
     id="path3834"
     d="m 172.28,1171.1 c 16.319,23.066 42.349,44.418 88.969,50.156 75.811,4.2286 79.478,12.75 228.75,12.75 149.272,0 154.26,-3.9563 228.75,-12.75 46.62,-5.7379 72.65,-27.09 88.969,-50.156 -24.71,10.7 -98.55,28 -317.72,28 -219.17,0 -293.01,-17.292 -317.72,-27.906 z"
     clip-path="url(#clipPath3921)"
     transform="matrix(0.99692634,0,0,0.59646345,73.042916,-5.0244249)"
     inkscape:connector-curvature="0"
     style="fill-opacity:0.09411801;filter:url(#filter3938)" />
  <path
     id="path3855"
     d="m 561.53682,45.674966 c -94.00019,0 -274.80275,3.259379 -281.85102,5.368176 -6.45808,1.931944 -18.31852,10.599747 -20.34328,12.096875 28.5161,-3.180944 104.1788,-7.921632 302.18831,-7.921632 198.01948,0 273.67623,4.740688 302.1883,7.921632 -2.02376,-1.497128 -13.87722,-10.164931 -20.33731,-12.096875 -7.04826,-2.108797 -187.8508,-5.368176 -281.85099,-5.368176 z"
     inkscape:connector-curvature="0"
     style="opacity:0.3;fill:none;stroke:#000000;stroke-width:0.77112263" />
  <path
     id="path3858"
     d="m 561.53682,104.12839 c -187.88074,0 -268.40248,2.41101 -302.97589,4.4362 v 1.52844 l 10.77877,3.1687 c 0,0 144.28515,-3.1687 190.10389,-3.1687 h 204.18047 c 45.82072,0 190.10388,3.1687 190.10388,3.1687 l 10.77879,-3.1687 v -0.0373 c -34.56346,-2.70194 -115.07522,-5.9288 -302.96592,-5.9288 z"
     inkscape:connector-curvature="0"
     style="fill-opacity:0.32159005" />
  <path
     id="path3018"
     d="m 60,392 c 0,0 192,20 430,20 238,0 430,-20 430,-20 V 204 H 50 z"
     clip-path="url(#clipPath3831)"
     transform="matrix(0.99692634,0,0,0.59646345,73.042916,-5.0244249)"
     style="opacity:0.5;fill:url(#linearGradient3266);filter:url(#filter3875)"
     inkscape:connector-curvature="0" />
  <path
     id="path3793"
     d="m 502,189.25 v 1.2812 L 761,197.5 c 0,0 -13,44 -8,59 5,15 97,103.19 97,193.5 v 566 c 0,0 -15.75,75.25 -29.5,106.5 -13.75,31.25 -32.5,88.75 -113.75,98.75 -75.811,4.2286 -79.478,12.75 -228.75,12.75 -3.7406,0 -6.9997,0.01 -10.562,0 143.83,-0.2089 148.45,-8.5744 223.31,-12.75 81.25,-10 100,-67.5 113.75,-98.75 13.75,-31.2 29.5,-106.4 29.5,-106.4 v -566 c 0,-90.312 -92,-178.5 -97,-193.5 -5,-15 8,-59 8,-59 l -259,-6.9688 v -0.84375 l 16,-0.4375 z m -48,0 16,0.4375 -8,0.21875 -8,-0.21875 V 189.25 z"
     clip-path="url(#clipPath3797)"
     transform="matrix(0.99692634,0,0,0.59646345,67.061346,-5.0244249)"
     inkscape:connector-curvature="0"
     style="opacity:0.4;filter:url(#filter3937)" />
  <path
     id="path3969"
     d="M 299.75,195 207,197.5 c 0,0 13,44 8,59 -5,15 -97,103.19 -97,193.5 v 566 c 0,0 15.75,75.25 29.5,106.5 13.75,31.25 32.5,88.75 113.75,98.75 75.811,4.2286 79.478,12.75 228.75,12.75 20.193,0 37.559,-0.072 53,-0.2188 -111.6,-1.3683 -121.19,-8.7071 -189.75,-12.531 -81.25,-10 -100,-67.5 -113.75,-98.75 -13.75,-31.4 -29.5,-106.6 -29.5,-106.6 v -566 c 0,-90.312 92,-178.5 97,-193.5 5,-15 -8,-59 -8,-59 l 0.75,-2.5 z"
     clip-path="url(#clipPath3992)"
     transform="matrix(0.99692634,0,0,0.59646345,71.049053,-5.0244249)"
     inkscape:connector-curvature="0"
     style="opacity:0.23999999;filter:url(#filter3996)" />
  <path
     id="path3805"
     style="text-indent:0;text-transform:none;block-progression:tb;opacity:0.75;color:#000000;filter:url(#filter3863)"
     d="m 490,98.5 c -198.7,0 -274.65,7.9154 -303.59,13.312 l 0.9375,4.9375 c 28.25,-5.27 104.09,-13.25 302.65,-13.25 198.56,0 274.4,7.9809 302.66,13.25 l 0.9375,-4.9375 c -28.95,-5.39 -104.9,-13.31 -303.6,-13.31 z"
     clip-path="url(#clipPath3814)"
     transform="matrix(0.99692634,0,0,0.59646345,73.042916,-5.0244249)"
     inkscape:connector-curvature="0" />
  <path
     id="path3796"
     style="text-indent:0;text-transform:none;block-progression:tb;opacity:0.25;color:#000000;filter:url(#filter3867)"
     d="m 490,82.5 c -47.192,0 -116.12,1.3787 -174.16,3.1875 -29.016,0.90438 -55.281,1.8952 -74.781,2.9062 -9.7499,0.50551 -17.819,1.0082 -23.688,1.5 -2.934,0.24591 -5.3131,0.50605 -7.125,0.75 -1.8119,0.24395 -2.7536,0.23615 -4.0938,0.90625 l 2.25,4.5 c -0.45631,0.22816 0.83235,-0.24422 2.5,-0.46875 1.6676,-0.22452 4.0203,-0.44563 6.9062,-0.6875 5.7718,-0.48375 13.78,-0.99603 23.5,-1.5 19.44,-1.008 45.7,-2.003 74.69,-2.906 57.99,-1.808 126.9,-3.188 174,-3.188 47.095,0 116.01,1.3801 174,3.1875 28.994,0.90368 55.247,1.8983 74.688,2.9062 9.7202,0.50397 17.728,1.0163 23.5,1.5 2.8859,0.24187 5.2386,0.46298 6.9062,0.6875 1.6676,0.22452 2.9563,0.6969 2.5,0.46875 l 2.25,-4.5 c -1.3402,-0.6701 -2.2819,-0.6623 -4.0938,-0.90625 -1.8119,-0.24395 -4.191,-0.50409 -7.125,-0.75 -5.8681,-0.49181 -13.938,-0.99449 -23.688,-1.5 -19.51,-1.012 -45.78,-2.003 -74.79,-2.907 -58.04,-1.809 -126.97,-3.188 -174.16,-3.188 z"
     clip-path="url(#clipPath3810)"
     transform="matrix(0.99692634,0,0,0.59646345,73.042916,-5.0244249)"
     inkscape:connector-curvature="0" />
  <path
     id="path3875"
     d="m 207.28,94 c -7.0711,3.5355 -21.188,21.219 -21.188,21.219 V 193 l 10.812,5.3125"
     clip-path="url(#clipPath3884)"
     transform="matrix(0.99692634,0,0,0.59646345,73.042916,-5.0244249)"
     inkscape:connector-curvature="0"
     style="opacity:0.5;fill:none;stroke:#000000;stroke-width:10;filter:url(#filter3900)" />
  <path
     id="path3904"
     d="m 207.28,94 c -7.0711,3.5355 -21.188,21.219 -21.188,21.219 V 193 l 10.812,5.3125"
     clip-path="url(#clipPath3884)"
     transform="matrix(-0.99692634,0,0,0.59646345,1050.0307,-5.0244249)"
     inkscape:connector-curvature="0"
     style="opacity:0.5;fill:none;stroke:#000000;stroke-width:10;filter:url(#filter3900)" />
  <g
     id="g3819"
     transform="matrix(0.99692634,0,0,0.59646345,73.042916,-5.0244249)">
    <path
       id="path3944"
       d="m 186.06,134.34 c -5.2064,0.90051 -7.75,2.0106 -7.75,5.8438 0,3.8331 0.98984,4.9543 7.6875,3.8125 0.0311,-0.003 0.0626,0.003 0.0937,0 v -9.6562 c -0.0104,9.1e-4 -0.0208,-9.1e-4 -0.0312,0 z m 607.84,0 v 9.6562 c 0.0311,0.003 0.0626,-0.003 0.0937,0 6.6977,1.1418 7.6875,0.0206 7.6875,-3.8125 0,-3.8332 -2.5436,-4.9432 -7.75,-5.8438 -0.0104,-9.1e-4 -0.0208,9.1e-4 -0.0312,0 z"
       inkscape:connector-curvature="0"
       style="opacity:0.35897001" />
    <path
       id="path3912"
       clip-path="url(#clipPath3946)"
       d="m 490,125 c -101.94,0 -197.92,0.0384 -303.94,9.3438 -5.2064,0.90051 -7.75,2.0106 -7.75,5.8438 0,3.8331 0.98984,4.9543 7.6875,3.8125 102.7,-8.8558 202.17,-9 304,-9 101.83,0 201.3,0.14425 304,9 6.6977,1.1418 7.6875,0.0206 7.6875,-3.8125 0,-3.8332 -2.5436,-4.9432 -7.75,-5.8438 -106.02,-9.3 -202,-9.34 -303.94,-9.34 z m 0,1.5 c 101.92,0 197.85,0.048 303.78,9.3438 0.0105,9.2e-4 0.0208,-9.2e-4 0.0312,0 2.4467,0.43295 4.2166,0.94885 5.125,1.5625 0.9302,0.62839 1.25,1.1965 1.25,2.7812 0,0.89372 -0.0716,1.5699 -0.1875,1.9375 -0.11588,0.36756 -0.16514,0.41193 -0.375,0.53125 -0.41973,0.23865 -2.1184,0.43019 -5.375,-0.125 l -0.0625,-0.0312 h -0.0625 c -102.78,-8.8628 -202.29,-9 -304.12,-9 -101.83,0 -201.34,0.13725 -304.12,9 h -0.0625 l -0.0625,0.0312 c -3.2566,0.55519 -4.9553,0.36365 -5.375,0.125 -0.20986,-0.11932 -0.25912,-0.16369 -0.375,-0.53125 -0.11588,-0.36756 -0.1875,-1.0438 -0.1875,-1.9375 0,-1.5848 0.3198,-2.1529 1.25,-2.7812 0.90838,-0.61365 2.6783,-1.1296 5.125,-1.5625 0.0137,-0.002 0.0175,0.002 0.0312,0 105.94,-9.28 201.87,-9.33 303.79,-9.33 z"
       inkscape:connector-curvature="0"
       style="filter:url(#filter3936)" />
  </g>
  <path
     id="path3790"
     d="m 478,189.25 v 1.2812 l -259,6.97 c 0,0 13,44 8,59 -5,15 -97,103.19 -97,193.5 v 566 c 0,0 15.75,75.25 29.5,106.5 13.75,31.25 32.5,88.75 113.75,98.75 75.811,4.2286 79.478,12.75 228.75,12.75 3.7406,0 6.9997,0.01 10.562,0 -143.83,-0.2089 -148.45,-8.5744 -223.31,-12.75 -81.25,-10 -100,-67.5 -113.75,-98.75 -13.75,-31.2 -29.5,-106.4 -29.5,-106.4 v -566 c 0,-90.312 92,-178.5 97,-193.5 5,-15 -8,-59 -8,-59 l 259,-6.9688 v -0.84375 l -16,-0.4375 z m 48,0 -16,0.4375 8,0.21875 8,-0.21875 V 189.25 z"
     clip-path="url(#clipPath3801)"
     mask="url(#mask3871)"
     transform="matrix(0.99692634,0,0,0.59646345,81.018323,-5.0244249)"
     inkscape:connector-curvature="0"
     style="opacity:0.75;filter:url(#filter3925)" />
  <g
     id="g3823"
     transform="matrix(0.99692634,0,0,0.59646345,73.042916,11.676552)">
    <path
       id="path3825"
       d="m 186.06,134.34 c -5.2064,0.90051 -7.75,2.0106 -7.75,5.8438 0,3.8331 0.98984,4.9543 7.6875,3.8125 0.0311,-0.003 0.0626,0.003 0.0937,0 v -9.6562 c -0.0104,9.1e-4 -0.0208,-9.1e-4 -0.0312,0 z m 607.84,0 v 9.6562 c 0.0311,0.003 0.0626,-0.003 0.0937,0 6.6977,1.1418 7.6875,0.0206 7.6875,-3.8125 0,-3.8332 -2.5436,-4.9432 -7.75,-5.8438 -0.0104,-9.1e-4 -0.0208,9.1e-4 -0.0312,0 z"
       inkscape:connector-curvature="0"
       style="opacity:0.35897001" />
    <path
       id="path3827"
       clip-path="url(#clipPath3946)"
       d="m 490,125 c -101.94,0 -197.92,0.0384 -303.94,9.3438 -5.2064,0.90051 -7.75,2.0106 -7.75,5.8438 0,3.8331 0.98984,4.9543 7.6875,3.8125 102.7,-8.8558 202.17,-9 304,-9 101.83,0 201.3,0.14425 304,9 6.6977,1.1418 7.6875,0.0206 7.6875,-3.8125 0,-3.8332 -2.5436,-4.9432 -7.75,-5.8438 -106.02,-9.3 -202,-9.34 -303.94,-9.34 z m 0,1.5 c 101.92,0 197.85,0.048 303.78,9.3438 0.0105,9.2e-4 0.0208,-9.2e-4 0.0312,0 2.4467,0.43295 4.2166,0.94885 5.125,1.5625 0.9302,0.62839 1.25,1.1965 1.25,2.7812 0,0.89372 -0.0716,1.5699 -0.1875,1.9375 -0.11588,0.36756 -0.16514,0.41193 -0.375,0.53125 -0.41973,0.23865 -2.1184,0.43019 -5.375,-0.125 l -0.0625,-0.0312 h -0.0625 c -102.78,-8.8628 -202.29,-9 -304.12,-9 -101.83,0 -201.34,0.13725 -304.12,9 h -0.0625 l -0.0625,0.0312 c -3.2566,0.55519 -4.9553,0.36365 -5.375,0.125 -0.20986,-0.11932 -0.25912,-0.16369 -0.375,-0.53125 -0.11588,-0.36756 -0.1875,-1.0438 -0.1875,-1.9375 0,-1.5848 0.3198,-2.1529 1.25,-2.7812 0.90838,-0.61365 2.6783,-1.1296 5.125,-1.5625 0.0137,-0.002 0.0175,0.002 0.0312,0 105.94,-9.28 201.87,-9.33 303.79,-9.33 z"
       inkscape:connector-curvature="0"
       style="filter:url(#filter3936)" />
  </g>
  <metadata
     id="metadata78">
    <rdf:RDF>
      <cc:Work>
        <dc:format>image/svg+xml</dc:format>
        <dc:type
           rdf:resource="http://purl.org/dc/dcmitype/StillImage" />
        <cc:license
           rdf:resource="http://creativecommons.org/licenses/publicdomain/" />
        <dc:publisher>
          <cc:Agent
             rdf:about="http://openclipart.org/">
            <dc:title>Openclipart</dc:title>
          </cc:Agent>
        </dc:publisher>
        <dc:title></dc:title>
        <dc:date>2013-04-22T07:44:41</dc:date>
        <dc:description>jar, glass, empty jar, glass jar,</dc:description>
        <dc:source>https://openclipart.org/detail/177364/empty-glass-jar-by-mirek2-177364</dc:source>
        <dc:creator>
          <cc:Agent>
            <dc:title>Mirek2</dc:title>
          </cc:Agent>
        </dc:creator>
        <dc:subject>
          <rdf:Bag>
            <rdf:li>empty jar</rdf:li>
            <rdf:li>glass</rdf:li>
            <rdf:li>glass jar</rdf:li>
            <rdf:li>jar</rdf:li>
          </rdf:Bag>
        </dc:subject>
      </cc:Work>
      <cc:License
         rdf:about="http://creativecommons.org/licenses/publicdomain/">
        <cc:permits
           rdf:resource="http://creativecommons.org/ns#Reproduction" />
        <cc:permits
           rdf:resource="http://creativecommons.org/ns#Distribution" />
        <cc:permits
           rdf:resource="http://creativecommons.org/ns#DerivativeWorks" />
      </cc:License>
    </rdf:RDF>
  </metadata>
  <flowRoot
     xml:space="preserve"
     id="flowRoot3270"
     style="font-size:40px;font-style:normal;font-weight:normal;line-height:125%;letter-spacing:0px;word-spacing:0px;fill:#008000;fill-opacity:1;stroke:none;font-family:Sans"
     transform="matrix(1.3156089,0,0,1.3156089,-177.27622,-8.273199)"><flowRegion
       id="flowRegion3272"><rect
         id="rect3274"
         width="479.97882"
         height="87.711861"
         x="326.48306"
         y="132.51695"
         style="fill:#008000" /></flowRegion><flowPara
       id="flowPara3276">my-application-web.jar</flowPara></flowRoot>  <flowRoot
     transform="translate(-116.84017,280.57886)"
     xml:space="preserve"
     id="flowRoot3270-7"
     style="font-size:40px;font-style:normal;font-weight:normal;line-height:125%;letter-spacing:0px;word-spacing:0px;fill:#000000;fill-opacity:1;stroke:none;font-family:Sans"><flowRegion
       id="flowRegion3272-3"><rect
         id="rect3274-6"
         width="479.97882"
         height="87.711861"
         x="326.48306"
         y="132.51695" /></flowRegion><flowPara
       id="flowPara3276-0">Language.properties</flowPara></flowRoot>  <flowRoot
     transform="translate(180.40559,368.29072)"
     xml:space="preserve"
     id="flowRoot3270-9"
     style="font-size:40px;font-style:normal;font-weight:normal;line-height:125%;letter-spacing:0px;word-spacing:0px;fill:#000000;fill-opacity:1;stroke:none;font-family:Sans"><flowRegion
       id="flowRegion3272-8"><rect
         id="rect3274-8"
         width="479.97882"
         height="87.711861"
         x="326.48306"
         y="132.51695" /></flowRegion><flowPara
       id="flowPara3276-9">Portlet Components</flowPara></flowRoot>  <flowRoot
     transform="translate(2.5454192,436.51106)"
     xml:space="preserve"
     id="flowRoot3270-0"
     style="font-size:40px;font-style:normal;font-weight:normal;line-height:125%;letter-spacing:0px;word-spacing:0px;fill:#000000;fill-opacity:1;stroke:none;font-family:Sans"><flowRegion
       id="flowRegion3272-7"><rect
         id="rect3274-61"
         width="479.97882"
         height="87.711861"
         x="326.48306"
         y="132.51695" /></flowRegion><flowPara
       id="flowPara3276-3">JSP Files</flowPara></flowRoot>  <flowRoot
     transform="translate(-30.32865,190.43055)"
     xml:space="preserve"
     id="flowRoot3270-7-3"
     style="font-size:40px;font-style:normal;font-weight:normal;line-height:125%;letter-spacing:0px;word-spacing:0px;fill:#000000;fill-opacity:1;stroke:none;font-family:Sans"><flowRegion
       id="flowRegion3272-3-1"><rect
         id="rect3274-6-0"
         width="648.09326"
         height="56.038139"
         x="326.48306"
         y="132.51695" /></flowRegion><flowPara
       id="flowPara3276-0-0">Other Resources (.css, .js, etc.)</flowPara></flowRoot>  <flowRoot
     transform="translate(-113.16763,114.90089)"
     xml:space="preserve"
     id="flowRoot3270-7-9"
     style="font-size:40px;font-style:normal;font-weight:normal;line-height:125%;letter-spacing:0px;word-spacing:0px;fill:#000000;fill-opacity:1;stroke:none;font-family:Sans"><flowRegion
       id="flowRegion3272-3-9"><rect
         id="rect3274-6-5"
         width="479.97882"
         height="87.711861"
         x="326.48306"
         y="132.51695" /></flowRegion><flowPara
       id="flowPara3276-0-3">Java Classes</flowPara></flowRoot></svg>
